<?xml version="1.0" encoding="UTF-8" ?>
<!DOCTYPE svg PUBLIC "-//W3C//DTD SVG 1.1//EN" "http://www.w3.org/Graphics/SVG/1.1/DTD/svg11.dtd">
<svg width="747pt" height="229pt" viewBox="0 0 747 229" version="1.1" xmlns="http://www.w3.org/2000/svg">
<g id="#ffffffff">
<path fill="#ffffff" opacity="1.00" d=" M 643.60 16.63 C 648.14 16.36 652.70 16.39 657.26 16.21 C 660.03 33.10 663.30 49.90 665.97 66.80 C 661.61 67.29 657.25 67.80 652.90 68.35 C 651.68 61.25 650.39 54.16 649.10 47.07 C 643.09 47.76 637.05 48.11 631.03 48.64 C 631.97 55.97 633.83 63.14 634.94 70.44 C 630.54 70.89 626.17 71.50 621.78 71.97 C 618.45 53.76 614.68 35.63 611.25 17.44 C 615.84 17.22 620.44 17.16 625.05 17.16 C 625.95 24.00 627.62 30.71 628.72 37.52 C 634.83 37.24 640.94 36.80 647.05 36.42 C 646.02 29.81 644.69 23.24 643.60 16.63 Z" />
<path fill="#ffffff" opacity="1.00" d=" M 673.34 15.79 C 684.35 16.18 696.15 13.32 706.42 18.54 C 714.37 22.25 721.24 29.81 721.68 38.90 C 722.60 50.70 712.29 61.02 701.06 62.68 C 694.59 63.54 688.09 64.10 681.63 65.00 C 678.79 48.61 676.09 32.19 673.34 15.79 M 688.63 26.24 C 690.24 35.04 691.56 43.88 692.93 52.71 C 697.26 52.38 702.02 51.50 705.04 48.07 C 709.85 42.68 707.94 33.64 702.47 29.44 C 698.56 26.38 693.40 25.91 688.63 26.24 Z" />
<path fill="#ffffff" opacity="1.00" d=" M 48.94 94.99 C 63.27 83.83 82.66 81.36 100.09 84.91 C 107.66 86.60 115.29 89.06 121.43 93.97 C 119.59 102.37 118.52 110.94 116.34 119.25 C 106.99 112.85 95.62 108.70 84.17 110.14 C 74.50 111.24 65.07 116.82 60.72 125.73 C 55.83 136.06 55.82 149.53 63.35 158.63 C 70.28 167.20 82.50 169.97 92.98 167.98 C 98.50 167.13 103.59 164.75 108.84 163.00 C 107.65 171.91 106.15 180.84 104.22 189.62 C 98.49 193.14 91.48 193.85 84.90 194.52 C 68.58 195.87 51.16 190.43 40.08 178.01 C 33.31 170.51 29.50 160.82 27.88 150.94 C 27.18 144.60 27.18 138.22 27.86 131.88 C 30.46 117.74 36.92 103.51 48.94 94.99 Z" />
<path fill="#ffffff" opacity="1.00" d=" M 566.50 85.38 C 576.57 85.25 586.64 85.29 596.71 85.35 C 596.94 96.97 596.74 108.59 596.82 120.21 C 609.47 120.24 622.12 120.14 634.77 120.26 C 634.78 130.46 634.82 140.65 634.74 150.84 C 623.49 151.02 612.25 150.86 601.00 150.92 C 599.56 150.91 598.18 151.23 596.80 151.54 C 596.75 164.90 596.96 178.27 596.69 191.63 C 586.64 191.68 576.58 191.84 566.53 191.54 C 566.22 178.14 566.93 164.66 566.19 151.30 C 553.43 150.38 540.52 151.24 527.71 150.86 C 527.66 140.76 527.66 130.65 527.71 120.55 C 540.62 120.15 553.55 120.50 566.47 120.37 C 566.52 108.70 566.46 97.04 566.50 85.38 Z" />
<path fill="#ffffff" opacity="1.00" d=" M 163.46 87.58 C 174.79 87.34 186.13 87.55 197.46 87.49 C 201.21 102.19 203.81 117.17 207.16 131.97 C 211.27 151.78 215.55 171.55 219.66 191.35 C 210.65 191.71 201.62 191.37 192.61 191.57 C 191.16 185.49 189.72 179.40 188.19 173.34 C 177.11 173.30 166.03 173.33 154.95 173.31 C 153.75 173.38 152.15 173.21 151.45 174.44 C 148.30 179.85 146.53 185.99 143.16 191.26 C 132.78 191.76 122.33 191.51 111.94 191.36 C 127.27 159.12 143.59 127.33 159.21 95.23 C 160.59 92.69 161.39 89.62 163.46 87.58 M 161.86 150.32 C 169.01 150.31 176.16 150.40 183.31 150.52 C 180.77 139.69 178.54 128.79 176.04 117.96 C 171.32 128.75 166.62 139.55 161.86 150.32 Z" />
<path fill="#ffffff" opacity="1.00" d=" M 395.62 87.62 C 406.87 87.34 418.15 87.47 429.42 87.57 C 435.71 116.29 441.33 145.17 447.42 173.94 C 448.44 179.92 450.12 185.78 450.91 191.80 C 441.76 191.85 432.61 191.85 423.46 191.80 C 421.86 185.66 420.98 179.35 419.32 173.21 C 407.40 173.35 395.44 172.84 383.56 173.46 C 380.49 179.43 377.89 185.64 374.89 191.66 C 364.44 191.63 353.99 191.87 343.54 191.53 C 359.13 160.18 374.65 128.79 390.34 97.49 C 392.11 94.21 393.35 90.60 395.62 87.62 M 408.07 117.57 C 403.34 128.59 398.37 139.50 393.66 150.52 C 400.88 150.56 408.09 150.49 415.31 150.55 C 412.71 139.60 410.65 128.53 408.07 117.57 Z" />
<path fill="#ffffff" opacity="1.00" d=" M 477.00 87.49 C 486.65 87.49 496.30 87.44 505.95 87.52 C 505.60 94.67 504.25 101.72 503.36 108.80 C 500.67 128.48 497.87 148.15 495.27 167.84 C 505.70 168.10 516.15 167.87 526.59 167.96 C 525.58 175.87 524.72 183.81 523.39 191.67 C 503.01 191.61 482.62 191.89 462.25 191.53 C 466.00 161.28 470.86 131.15 474.91 100.93 C 475.70 96.47 476.08 91.94 477.00 87.49 Z" />
<path fill="#ffffff" opacity="1.00" d=" M 244.38 93.14 C 244.78 91.30 244.27 89.00 245.95 87.69 C 255.75 87.45 265.55 87.69 275.35 87.59 C 286.93 106.96 297.32 127.05 309.06 146.31 C 312.23 126.79 314.52 107.13 317.75 87.62 C 323.85 87.49 329.94 87.86 336.04 87.75 C 339.44 87.82 342.91 87.42 346.26 88.26 C 341.77 120.83 337.07 153.38 332.49 185.94 C 332.23 187.87 331.90 189.80 331.47 191.70 C 322.22 191.68 312.97 191.68 303.72 191.71 C 291.74 170.32 279.72 148.96 267.80 127.55 C 264.63 148.84 261.94 170.21 258.59 191.48 C 249.67 191.52 240.75 191.52 231.84 191.48 C 231.58 191.12 231.07 190.40 230.81 190.03 C 233.39 173.03 235.63 155.96 237.97 138.92 C 240.18 123.67 242.21 108.39 244.38 93.14 Z" />
</g>
<g id="#ce0d21ff">
<path fill="#ce0d21" opacity="1.00" d=" M 586.63 3.05 C 635.59 3.02 684.54 3.13 733.50 2.99 C 736.78 26.10 740.46 49.20 742.73 72.43 C 720.16 75.87 697.57 79.15 675.02 82.69 C 670.21 83.42 665.33 83.75 660.62 85.02 C 642.07 88.32 623.36 90.67 604.77 93.70 C 602.37 81.82 599.54 70.01 597.72 58.03 C 594.34 39.64 590.37 21.36 586.63 3.05 M 643.60 16.63 C 644.69 23.24 646.02 29.81 647.05 36.42 C 640.94 36.80 634.83 37.24 628.72 37.52 C 627.62 30.71 625.95 24.00 625.05 17.16 C 620.44 17.16 615.84 17.22 611.25 17.44 C 614.68 35.63 618.45 53.76 621.78 71.97 C 626.17 71.50 630.54 70.89 634.94 70.44 C 633.83 63.14 631.97 55.97 631.03 48.64 C 637.05 48.11 643.09 47.76 649.10 47.07 C 650.39 54.16 651.68 61.25 652.90 68.35 C 657.25 67.80 661.61 67.29 665.97 66.80 C 663.30 49.90 660.03 33.10 657.26 16.21 C 652.70 16.39 648.14 16.36 643.60 16.63 M 673.34 15.79 C 676.09 32.19 678.79 48.61 681.63 65.00 C 688.09 64.10 694.59 63.54 701.06 62.68 C 712.29 61.02 722.60 50.70 721.68 38.90 C 721.24 29.81 714.37 22.25 706.42 18.54 C 696.15 13.32 684.35 16.18 673.34 15.79 Z" />
<path fill="#ce0d21" opacity="1.00" d=" M 688.63 26.24 C 693.40 25.91 698.56 26.38 702.47 29.44 C 707.94 33.64 709.85 42.68 705.04 48.07 C 702.02 51.50 697.26 52.38 692.93 52.71 C 691.56 43.88 690.24 35.04 688.63 26.24 Z" />
</g>
<g id="#000000ff">
<path fill="#000000" opacity="1.00" d=" M 3.07 57.99 C 201.29 58.01 399.51 57.93 597.72 58.03 C 599.54 70.01 602.37 81.82 604.77 93.70 C 623.36 90.67 642.07 88.32 660.62 85.02 C 660.75 132.01 660.63 179.01 660.68 226.00 C 441.48 225.98 222.28 225.98 3.08 226.00 C 3.07 169.99 3.08 113.99 3.07 57.99 M 48.94 94.99 C 36.92 103.51 30.46 117.74 27.86 131.88 C 27.18 138.22 27.18 144.60 27.88 150.94 C 29.50 160.82 33.31 170.51 40.08 178.01 C 51.16 190.43 68.58 195.87 84.90 194.52 C 91.48 193.85 98.49 193.14 104.22 189.62 C 106.15 180.84 107.65 171.91 108.84 163.00 C 103.59 164.75 98.50 167.13 92.98 167.98 C 82.50 169.97 70.28 167.20 63.35 158.63 C 55.82 149.53 55.83 136.06 60.72 125.73 C 65.07 116.82 74.50 111.24 84.17 110.14 C 95.62 108.70 106.99 112.85 116.34 119.25 C 118.52 110.94 119.59 102.37 121.43 93.97 C 115.29 89.06 107.66 86.60 100.09 84.91 C 82.66 81.36 63.27 83.83 48.94 94.99 M 566.50 85.38 C 566.46 97.04 566.52 108.70 566.47 120.37 C 553.55 120.50 540.62 120.15 527.71 120.55 C 527.66 130.65 527.66 140.76 527.71 150.86 C 540.52 151.24 553.43 150.38 566.19 151.30 C 566.93 164.66 566.22 178.14 566.53 191.54 C 576.58 191.84 586.64 191.68 596.69 191.63 C 596.96 178.27 596.75 164.90 596.80 151.54 C 598.18 151.23 599.56 150.91 601.00 150.92 C 612.25 150.86 623.49 151.02 634.74 150.84 C 634.82 140.65 634.78 130.46 634.77 120.26 C 622.12 120.14 609.47 120.24 596.82 120.21 C 596.74 108.59 596.94 96.97 596.71 85.35 C 586.64 85.29 576.57 85.25 566.50 85.38 M 163.46 87.58 C 161.39 89.62 160.59 92.69 159.21 95.23 C 143.59 127.33 127.27 159.12 111.94 191.36 C 122.33 191.51 132.78 191.76 143.16 191.26 C 146.53 185.99 148.30 179.85 151.45 174.44 C 152.15 173.21 153.75 173.38 154.95 173.31 C 166.03 173.33 177.11 173.30 188.19 173.34 C 189.72 179.40 191.16 185.49 192.61 191.57 C 201.62 191.37 210.65 191.71 219.66 191.35 C 215.55 171.55 211.27 151.78 207.16 131.97 C 203.81 117.17 201.21 102.19 197.46 87.49 C 186.13 87.55 174.79 87.34 163.46 87.58 M 395.62 87.62 C 393.35 90.60 392.11 94.21 390.34 97.49 C 374.65 128.79 359.13 160.18 343.54 191.53 C 353.99 191.87 364.44 191.63 374.89 191.66 C 377.89 185.64 380.49 179.43 383.56 173.46 C 395.44 172.84 407.40 173.35 419.32 173.21 C 420.98 179.35 421.86 185.66 423.46 191.80 C 432.61 191.85 441.76 191.85 450.91 191.80 C 450.12 185.78 448.44 179.92 447.42 173.94 C 441.33 145.17 435.71 116.29 429.42 87.57 C 418.15 87.47 406.87 87.34 395.62 87.62 M 477.00 87.49 C 476.08 91.94 475.70 96.47 474.91 100.93 C 470.86 131.15 466.00 161.28 462.25 191.53 C 482.62 191.89 503.01 191.61 523.39 191.67 C 524.72 183.81 525.58 175.87 526.59 167.96 C 516.15 167.87 505.70 168.10 495.27 167.84 C 497.87 148.15 500.67 128.48 503.36 108.80 C 504.25 101.72 505.60 94.67 505.95 87.52 C 496.30 87.44 486.65 87.49 477.00 87.49 M 244.38 93.14 C 242.21 108.39 240.18 123.67 237.97 138.92 C 235.63 155.96 233.39 173.03 230.81 190.03 C 231.07 190.40 231.58 191.12 231.84 191.48 C 240.75 191.52 249.67 191.52 258.59 191.48 C 261.94 170.21 264.63 148.84 267.80 127.55 C 279.72 148.96 291.74 170.32 303.72 191.71 C 312.97 191.68 322.22 191.68 331.47 191.70 C 331.90 189.80 332.23 187.87 332.49 185.94 C 337.07 153.38 341.77 120.83 346.26 88.26 C 342.91 87.42 339.44 87.82 336.04 87.75 C 329.94 87.86 323.85 87.49 317.75 87.62 C 314.52 107.13 312.23 126.79 309.06 146.31 C 297.32 127.05 286.93 106.96 275.35 87.59 C 265.55 87.69 255.75 87.45 245.95 87.69 C 244.27 89.00 244.78 91.30 244.38 93.14 Z" />
<path fill="#000000" opacity="1.00" d=" M 161.86 150.32 C 166.62 139.55 171.32 128.75 176.04 117.96 C 178.54 128.79 180.77 139.69 183.31 150.52 C 176.16 150.40 169.01 150.31 161.86 150.32 Z" />
<path fill="#000000" opacity="1.00" d=" M 408.07 117.57 C 410.65 128.53 412.71 139.60 415.31 150.55 C 408.09 150.49 400.88 150.56 393.66 150.52 C 398.37 139.50 403.34 128.59 408.07 117.57 Z" />
</g>
</svg>
