<?xml version="1.0" encoding="utf-8"?>
<!-- Generator: Adobe Illustrator 16.0.0, SVG Export Plug-In . SVG Version: 6.00 Build 0)  -->
<!DOCTYPE svg PUBLIC "-//W3C//DTD SVG 1.1//EN" "http://www.w3.org/Graphics/SVG/1.1/DTD/svg11.dtd">
<svg version="1.1" id="Layer_1" xmlns="http://www.w3.org/2000/svg" xmlns:xlink="http://www.w3.org/1999/xlink" x="0px" y="0px"
	 width="1000px" height="193.911px" viewBox="0 0 1000 193.911" enable-background="new 0 0 1000 193.911" xml:space="preserve">
<g>
	<path fill-rule="evenodd" clip-rule="evenodd" d="M112.313,0c0.416,0.191,0.861,0.188,1.305,0.197
		c6.162,0.141,12.265,0.903,18.34,1.875c10.328,1.653,20.427,4.25,30.321,7.626c3.261,1.113,6.472,2.369,9.694,3.59
		c1.848,0.7,1.841,0.727,1.841,2.8c0.001,13.052,0.001,26.104,0.001,39.156c0,2.266,0.007,4.531-0.006,6.797
		c-0.003,0.517,0.119,1.076-0.316,1.592c-0.73-0.376-1.09-1.033-1.521-1.602c-2.948-3.884-5.907-7.756-9.141-11.413
		c-5.005-5.66-10.803-10.347-17.31-14.157c-7.524-4.406-15.596-7.354-24.252-8.432c-15.001-1.868-28.926,1.039-41.283,10.046
		c-5.574,4.063-9.788,9.385-13.249,15.316c-4.387,7.521-7.199,15.634-8.993,24.119c-1.481,7.008-2.294,14.106-2.067,21.267
		c0.415,13.101,3.035,25.706,9.219,37.388c6.838,12.92,17.15,21.902,30.917,26.879c6.829,2.468,13.896,3.277,21.088,2.621
		c8.608-0.785,16.601-3.627,24.131-7.818c6.935-3.86,13.046-8.783,18.767-14.259c4.609-4.413,8.646-9.298,12.542-14.321
		c0.31-0.398,0.534-1.177,1.127-0.986c0.599,0.193,0.338,0.951,0.338,1.459c0.013,16.106-0.005,32.213,0.038,48.318
		c0.003,1.365-0.52,1.988-1.725,2.515c-9.247,4.041-18.908,6.733-28.719,8.953c-6.197,1.401-12.459,2.444-18.768,3.172
		c-4.545,0.523-9.104,0.887-13.686,1.027c-2.903,0.09-5.805,0.228-8.709,0.171c-10.467-0.203-20.814-1.319-30.958-4.026
		c-15.296-4.083-28.939-11.257-40.839-21.726c-8.531-7.506-15.417-16.301-20.588-26.408c-4.479-8.752-7.374-18.026-8.771-27.764
		c-0.251-1.754-0.495-3.508-0.613-5.278c-0.046-0.683-0.112-1.378-0.469-1.997c0-4.926,0-9.852,0-14.778
		c0.372-0.773,0.421-1.619,0.482-2.448c0.125-1.67,0.347-3.327,0.58-4.984C2.579,73.71,5.8,63.486,10.832,53.823
		c5.743-11.026,13.504-20.42,22.886-28.509c8.119-7,17.114-12.604,27.021-16.716c12.264-5.089,25.046-7.829,38.302-8.396
		c0.49-0.021,0.989,0.023,1.45-0.202C104.433,0,108.373,0,112.313,0z"/>
	<path fill-rule="evenodd" clip-rule="evenodd" d="M318.688,167.028c0.734-1.438,1.118-2.864,1.609-4.242
		c5.509-15.445,10.987-30.901,16.485-46.351c6.108-17.167,12.212-34.334,18.352-51.489c2.093-5.847,4.587-11.53,7.371-17.082
		c1.967-3.922,4.571-7.345,8.078-10.046c3.644-2.806,7.806-4.346,12.294-5.077c3.796-0.618,7.623-0.896,11.469-0.9
		c10.591-0.011,21.182-0.019,31.771-0.024c1.686-0.001,1.708,0.001,2.281,1.652c2.635,7.583,5.257,15.169,7.881,22.755
		c7.293,21.083,14.584,42.166,21.875,63.248c4.459,12.893,8.912,25.785,13.374,38.676c3.076,8.889,6.163,17.773,9.241,26.662
		c0.723,2.088,0.717,2.093-1.469,2.094c-13.251,0-26.502,0-39.752,0c-0.197,0-0.395,0.002-0.592-0.001
		c-1.551-0.021-1.568-0.021-2.088-1.522c-2.012-5.816-4.012-11.639-6.022-17.457c-3.249-9.401-6.502-18.803-9.758-28.201
		c-0.567-1.638-0.577-1.646-2.296-1.646c-16.65-0.002-33.299-0.002-49.949,0c-1.841,0-1.848,0.008-2.428,1.689
		c-4.383,12.709-8.761,25.42-13.143,38.13c-0.866,2.515-1.734,5.028-2.613,7.538c-0.502,1.435-0.533,1.469-1.976,1.469
		c-17.931-0.01-35.86-0.007-53.79-0.064c-2.95-0.009-5.898-0.307-8.796-0.934c-5.011-1.086-8.883-3.844-11.806-8.016
		c-2.555-3.647-4.565-7.592-6.419-11.625c-4.278-9.307-8.563-18.609-12.819-27.928c-1.738-3.805-3.616-7.555-4.739-11.613
		c-0.72-2.604-0.808-5.244-0.497-7.909c0.408-3.483,2.23-6.255,4.434-8.845c2.142-2.519,4.51-4.817,6.867-7.127
		c2.323-2.276,4.625-4.57,6.551-7.207c2.738-3.749,4.838-7.789,5.472-12.45c1.425-10.473-1.773-19.256-9.862-26.109
		c-4.796-4.063-10.441-6.158-16.693-6.829c-6.641-0.712-12.792,0.899-18.796,3.475c-0.726,0.312-1.092,0.777-1.037,1.584
		c0.037,0.539,0.004,1.083,0.004,1.625c0,42.363,0,84.725-0.001,127.087c0,0.591-0.013,1.182-0.015,1.773
		c-0.002,0.711-0.313,1.112-1.065,1.1c-0.395-0.006-0.788,0.011-1.183,0.011c-13.004,0.001-26.009,0.001-39.013,0
		c-2.209,0-2.219-0.004-2.219-2.202c-0.002-50.244-0.002-100.488,0-150.732c0-2.146,0.011-2.152,2.119-2.151
		c23.989,0.007,47.979,0.01,71.967,0.028c6.559,0.005,13.086,0.388,19.521,1.77c8.503,1.826,16.367,5.082,23.104,10.685
		c8.693,7.229,14.007,16.413,15.49,27.681c1.53,11.626-1.794,21.794-9.401,30.641c-3.315,3.855-7.06,7.279-10.742,10.768
		c-0.608,0.576-1.188,1.181-1.8,1.753c-0.463,0.433-0.559,0.894-0.237,1.449c0.172,0.298,0.308,0.616,0.462,0.925
		c7.969,15.949,15.936,31.898,23.91,47.844C317.916,165.879,318.095,166.458,318.688,167.028z M394.524,58.597
		c-0.347,0.268-0.392,0.57-0.487,0.846c-2.057,5.906-4.117,11.81-6.165,17.717c-3.372,9.722-6.738,19.447-10.102,29.172
		c-0.692,2-1.388,4-2.041,6.014c-0.299,0.922-0.183,1.05,0.734,1.132c0.245,0.022,0.492,0.013,0.738,0.013
		c11.082,0,22.163,0.002,33.244-0.002c1.751,0,1.8-0.064,1.262-1.748c-5.528-17.306-11.061-34.61-16.597-51.915
		C394.98,59.417,394.937,58.96,394.524,58.597z"/>
	<path fill-rule="evenodd" clip-rule="evenodd" d="M885.47,97.112c0-29.062,0.002-58.124-0.002-87.185
		c0-3.048,0.053-2.632,2.662-2.633c35.07-0.007,70.143-0.005,105.213-0.005c0.297,0,0.592-0.002,0.887,0
		c1.72,0.017,1.804,0.081,1.805,1.869c0.009,8.571,0.005,17.142,0.002,25.712c0,0.344-0.021,0.689-0.054,1.032
		c-0.059,0.6-0.428,0.844-1.003,0.842c-0.492-0.001-0.984,0.011-1.478,0.011c-20.836,0.001-41.671,0-62.507,0.001
		c-2.346,0-2.321-0.203-2.32,2.353c0.004,12.216,0.002,24.432,0.003,36.648c0,2.167,0.003,2.17,2.201,2.17
		c20.442,0,40.884-0.001,61.325,0.001c2.593,0,2.459-0.181,2.459,2.518c0.002,8.226,0.001,16.452,0.001,24.678
		c0,0.246,0.002,0.492-0.001,0.738c-0.021,1.754-0.063,1.811-1.85,1.811c-12.758,0.005-25.516,0.003-38.273,0.003
		c-7.635,0.001-15.27,0.001-22.904,0.001c-0.246,0-0.492-0.004-0.738,0c-1.567,0.023-1.646,0.084-1.646,1.703
		c-0.008,7.783-0.004,15.565-0.004,23.348c0,7.34,0,14.679,0,22.018c0,0.197-0.002,0.395,0,0.592
		c0.018,1.774,0.041,1.808,1.836,1.808c22.067,0.003,44.135,0.002,66.201,0.003c0.592,0,1.183,0.01,1.773,0.022
		c0.599,0.013,0.898,0.331,0.917,0.922c0.013,0.394,0.023,0.788,0.023,1.182c0.001,8.521,0.001,17.043,0.001,25.564
		c0,0.247,0.006,0.493-0.008,0.739c-0.061,1.146-0.166,1.259-1.289,1.314c-0.442,0.022-0.887,0.01-1.33,0.01
		c-36.451,0-72.9,0-109.352,0c-0.295,0-0.591,0.004-0.887-0.002c-1.546-0.027-1.629-0.112-1.66-1.717
		c-0.01-0.492-0.004-0.985-0.004-1.479C885.47,154.841,885.47,125.977,885.47,97.112z"/>
	<path fill-rule="evenodd" clip-rule="evenodd" d="M616.786,80.466c-0.651-0.067-0.847-0.64-1.159-1.048
		c-2.545-3.324-5.055-6.678-7.858-9.793c-8.95-9.946-19.879-16.46-33.086-18.984c-3.538-0.676-7.119-1.064-10.721-0.875
		c-10.489,0.551-20.156,3.451-28.373,10.276c-4.142,3.44-7.37,7.649-10.008,12.321c-4.468,7.912-7.014,16.456-8.303,25.407
		c-0.604,4.197-0.981,8.42-0.833,12.659c0.389,11.056,2.528,21.714,7.711,31.59c6.606,12.59,16.781,20.808,30.58,24.365
		c8.089,2.085,16.114,1.442,24.02-1.085c7.758-2.48,14.602-6.602,20.862-11.742c6.046-4.965,11.329-10.654,15.998-16.924
		c0.263-0.352,0.481-0.752,0.879-0.984c0.076-0.045,0.185-0.035,0.29-0.054c0.453,0.369,0.326,0.896,0.327,1.367
		c0.007,13.646-0.005,27.29,0.023,40.936c0.002,1.212-0.452,1.833-1.569,2.316c-8.722,3.778-17.842,6.208-27.112,8.149
		c-5.738,1.201-11.537,2.003-17.368,2.574c-1.958,0.191-3.927,0.305-5.894,0.361c-2.903,0.082-5.801,0.306-8.71,0.248
		c-11.187-0.221-22.181-1.605-32.812-5.271c-13.589-4.686-25.334-12.232-34.997-22.881c-9.958-10.971-16.078-23.845-18.524-38.463
		c-0.98-5.851-1.361-11.744-1.085-17.661c0.87-18.646,6.832-35.374,19.023-49.684c7.599-8.919,16.618-16.08,27.084-21.367
		c8.46-4.274,17.413-7.046,26.769-8.545c6.384-1.024,12.81-1.485,19.268-1.38c6.303,0.104,12.571,0.657,18.813,1.599
		c12.135,1.832,23.836,5.209,35.256,9.639c1.801,0.698,1.84,0.741,1.84,2.685c0.004,12.857,0.005,25.714-0.006,38.571
		C617.11,79.352,617.29,79.978,616.786,80.466z"/>
	<path fill-rule="evenodd" clip-rule="evenodd" d="M784.11,109.381c0-24.97,0.003-49.94-0.004-74.91
		c0-3.114,0.112-2.648,2.649-2.651c13.051-0.013,26.103-0.006,39.153-0.006c2.319,0,2.322,0.003,2.322,2.375
		c0.002,41.616,0,83.233,0.002,124.849c0,2.808-0.209,2.551,2.543,2.552c15.119,0.004,30.239,0.002,45.359,0.002
		c2.343,0,2.346,0.004,2.346,2.363c0.002,6.846,0,13.691,0,20.537c0,0.246,0.004,0.493-0.002,0.739
		c-0.032,1.571-0.105,1.664-1.696,1.666c-6.944,0.009-13.888,0.005-20.833,0.005c-23.098,0-46.196,0.003-69.295-0.005
		c-2.424-0.001-2.549,0.398-2.549-2.608C784.113,159.321,784.11,134.35,784.11,109.381z"/>
	<path fill-rule="evenodd" clip-rule="evenodd" d="M748.678,186.903c-7.929,0-15.857-0.035-23.786,0.031
		c-1.438,0.012-2.318-0.402-3.135-1.627c-9.29-13.929-18.641-27.816-27.974-41.717c-4.748-7.072-9.505-14.141-14.233-21.227
		c-1.365-2.047-2.666-4.137-3.634-6.416c-1.669-3.934-1.841-7.895-0.46-11.954c0.98-2.882,2.436-5.492,4.306-7.866
		c6.555-8.315,12.931-16.766,19.334-25.196c9.411-12.392,18.831-24.778,28.191-37.208c1.046-1.39,2.13-1.964,3.916-1.954
		c13.888,0.082,27.774,0.04,41.662,0.062c0.64,0.001,1.56-0.386,1.871,0.345c0.247,0.577-0.522,1.092-0.909,1.577
		c-18.599,23.271-37.206,46.535-55.813,69.799c-1.14,1.426-1.137,1.421-0.083,2.907c11.613,16.394,23.224,32.789,34.838,49.182
		c6.945,9.804,13.897,19.603,20.836,29.411c0.33,0.467,1.006,0.956,0.75,1.507c-0.313,0.672-1.146,0.329-1.743,0.33
		C764.634,186.909,756.655,186.903,748.678,186.903z"/>
	<path fill-rule="evenodd" clip-rule="evenodd" d="M627.128,109.364c0-25.02,0.002-50.04-0.002-75.059
		c-0.001-2.788,0.05-2.486,2.51-2.487c13.102-0.006,26.202-0.003,39.303-0.003c2.302,0,2.309,0.003,2.309,2.253
		c0.001,50.188,0.001,100.376,0.001,150.563c0,0.147,0.001,0.295-0.001,0.443c-0.027,1.744-0.096,1.825-1.85,1.825
		c-13.446,0.004-26.892,0.003-40.338,0.003c-0.197,0-0.395,0.004-0.591-0.006c-1.13-0.057-1.267-0.179-1.328-1.291
		c-0.03-0.541-0.013-1.084-0.013-1.625C627.128,159.109,627.128,134.237,627.128,109.364z"/>
</g>
</svg>
