<?xml version="1.0" encoding="utf-8"?>
<!-- Generator: Adobe Illustrator 23.0.1, SVG Export Plug-In . SVG Version: 6.00 Build 0)  -->
<svg version="1.1" id="Calque_1" xmlns="http://www.w3.org/2000/svg" xmlns:xlink="http://www.w3.org/1999/xlink" x="0px" y="0px"
	 viewBox="0 0 2106 250" enable-background="new 0 0 2106 250" xml:space="preserve">
<g>
	<path fill="#005587" d="M195.9,180.4c-17.4,24.9-45.3,39.7-75,39.7c-43.1,0-81.1-31.6-90.3-75.1l-0.3-1.6h159.8h44.7h6.2
		c1.3-8.6,0.9-17.9,0.9-17.9l0,0c0-0.3,0-0.5,0-0.8C241.9,56,187.7,0.1,121,0.1C54.3,0.1,0,56,0,124.8c0,68.8,54.3,124.7,121,124.7
		c45.4,0,86.6-25.9,107.6-67.6l3-6.1h-32.6C197.8,177.7,196.7,179.3,195.9,180.4 M29.3,112.6c5.9-47.4,45.4-83.2,91.7-83.2
		c46.3,0,85.8,35.8,91.7,83.2l0.2,1.5H29.1L29.3,112.6z"/>
	<path fill="#005587" d="M377.6,249.6c-13.4,0-26.3-2.4-38.2-7.1c-11.8-4.7-22.3-11.6-31.1-20.3c-9-8.9-16-19.5-20.8-31.5
		c-5-12.5-7-26.2-6.9-40.6l0-145.1h28l0,142.8c0,11.2,1.3,21.6,5,31.1c3.5,9,8.5,16.9,15,23.6c6.3,6.5,13.7,11.6,22.1,15
		c8.5,3.5,17.5,5.3,26.8,5.3c9.5,0,18.6-1.8,27.1-5.3c8.4-3.5,15.8-8.6,22.2-15.1c6.5-6.7,11.6-14.6,15.1-23.6c3.7-9.5,6-19.9,6-31
		V4.9h27.9l0,145.1c0,14.5-3,28.1-8,40.5c-4.9,12-11.9,22.6-20.9,31.5c-8.9,8.8-19.3,15.6-31.1,20.3
		C403.9,247.1,391.1,249.6,377.6,249.6L377.6,249.6z"/>
	<path fill="#005587" d="M515.8,243.1V105.7c0-10.2,1.2-20.2,3.6-29.7c3.3-13.2,8.7-24.9,16.1-34.9c9.2-12.4,21.6-22.2,36.8-29.1
		c17.5-7.9,39-11.9,63.9-11.9h4.7V30l-4.6,0c-18.1,0-33.6,2.4-46.3,7.1c-11.1,4.1-20.2,10.1-27.1,17.8c-6,6.7-10.5,14.8-13.3,24.2
		c-2.4,8-3.6,17-3.7,26.7v137.3L515.8,243.1L515.8,243.1z"/>
	<path fill="#005587" d="M1090.7,243.1V117.6c0-9.7-1-18.7-4.1-26.8c-2.9-7.5-7.1-14.1-12.4-19.7c-5.1-5.3-11.2-9.5-18-12.3
		c-7-2.9-14.4-4.4-22.1-4.4c-7.9,0-15.4,1.5-22.4,4.4c-6.8,2.9-12.9,7-18.1,12.4c-5.4,5.5-9.6,12.2-12.5,19.7
		c-3.2,8.1-5.2,17.2-5.3,26.8l0,125.4h-55.4l0-127.9c0.1-16.5,3.4-32.1,9.2-46.4c5.7-14,13.8-26.3,24.3-36.7
		c10.3-10.2,22.5-18.2,36.2-23.7c13.7-5.5,28.5-8.3,43.9-8.3c15.4,0,30.2,2.8,43.9,8.3c13.7,5.5,25.9,13.5,36.2,23.7
		c10.4,10.4,18.6,22.8,24.2,36.7c5.7,14.4,8,30.1,8,46.6v127.8H1090.7z"/>
	<path fill="#005587" d="M1294.2,249.4c-66.7,0-120.9-55.9-120.9-124.7C1173.2,56,1227.5,0,1294.2,0c66.7,0,120.9,56,120.9,124.7
		c0,6.4-0.5,12.7-1.4,19l-0.3,1.9h-188.9l0.8,2.6c9.8,30.6,37.5,51.2,68.8,51.2c17,0,33.1-6,46.3-17.4c0,0,3.5-3,4-3.5h58.9
		l-1.7,3.3C1380.8,223.5,1339.6,249.4,1294.2,249.4 M1294.2,50c-31.4,0-59,20.6-68.8,51.2l-0.8,2.6h139.2l-0.8-2.6
		C1353.2,70.6,1325.5,50,1294.2,50"/>
	<path fill="#005587" d="M1434,6.3V4.9h60c7.3,57.4,26.2,148.5,42.4,189.7c17.2-41.2,37.3-132.2,44.7-189.7h49.8
		c7.7,57.4,27.4,144.7,45,189.7c16.3-45,34.8-132.2,42.4-189.7h59.7v1.4c-13.7,89.7-39.9,181.9-62.2,236.7H1641
		c-12.4-30-27.4-75.9-35.1-117.1c-7.3,41.2-23.6,89.7-34.8,117.1h-74.7C1470.3,183.1,1441.9,82.5,1434,6.3"/>
	<path fill="#005587" d="M1802.6,232.6v-45.5h2.5c13.5,4.1,42.7,9.7,63.7,9.7h12.2c19.4,0,34.2-6,34.2-25.7
		c0-14.7-12.9-20.7-27-24.5l-36.7-9.7c-27-6.9-48.9-25.7-48.9-66.2c0-47.7,39.2-67.4,86.9-67.4h12.2c14.7,0,44.2,3.8,57.7,8.8v45.2
		h-2.5c-12.2-3.5-41.7-7.2-55.2-7.2h-11c-17.2,0-32,3.4-32,20.7c0,13.5,10,18.8,22.3,22l36.7,10c35.4,9.4,53.9,30.4,53.9,68.4
		c0,52.7-37.9,72.5-90.6,72.5h-12.2C1850.2,243.6,1819.5,238.6,1802.6,232.6"/>
	<path fill="#005587" d="M2106,193.4c0,27.8-22.5,50.3-50.3,50.3c-27.8,0-50.3-22.5-50.3-50.3s22.5-50.3,50.3-50.3
		C2083.5,143.1,2106,165.6,2106,193.4"/>
	<path fill="#005587" d="M771.4,0.6c-67.2,0-121.7,55.8-121.7,124.7S704.2,250,771.4,250s121.7-55.8,121.7-124.7
		S838.6,0.6,771.4,0.6 M771.4,216c-46.9,0-85-40.7-85-90.7s38.1-90.7,85-90.7c46.9,0,85,40.7,85,90.7S818.3,216,771.4,216"/>
</g>
</svg>
