<svg xmlns="http://www.w3.org/2000/svg" width="1280" height="398.207" xml:space="preserve"><path vector-effect="non-scaling-stroke" d="M196.031 0C129.873 0 84.961 50.97 84.398 110.86v11.61H24.28S-.92 185.293.026 185.037h84.372v108.838c0 14.17-4.506 32.14-25.944 40.64l24.869 63.692c38.704-15.193 69.025-52.313 69.076-104.332V185.037h47.69v150.361h68.027V199.449c7.577-8.78 21.234-16.076 45.001-18.777-6.757 14.758-10.354 31.027-10.354 47.641 0 34.24 12.453 64.615 37.617 85.875 18.968 16.026 45.142 26.1 78.637 26.19 21.554.05 38.756-3.226 55.996-9.588l-19.352-51.213c-8.447 3.11-21.093 5.811-30.782 5.799-11.877-.026-25.687-3.559-34.583-9.946-8.127-5.837-13.938-14.042-17.125-24.128h124.945c4.428 24.768 16.255 46.54 35.62 62.9 18.968 16.025 45.142 26.098 78.637 26.188 21.554.051 38.756-3.226 55.996-9.587l-19.352-51.213c-8.447 3.11-21.093 5.811-30.782 5.798-11.877-.025-25.687-3.558-34.583-9.945-8.127-5.837-13.938-14.042-17.125-24.128H722.83l32.996 84.096H828l38.026-96.922c2.24 30.08 14.59 56.589 37.232 75.725 18.969 16.026 45.143 26.1 78.638 26.189 21.554.05 38.756-3.226 55.996-9.587l-19.352-51.213c-8.447 3.11-21.093 5.811-30.782 5.798-11.877-.025-25.688-3.558-34.583-9.945-8.127-5.837-13.938-14.042-17.125-24.128h125.06c4.428 24.768 16.255 46.54 35.62 62.899 18.968 16.025 45.142 26.099 78.637 26.189 21.554.05 38.756-3.226 55.996-9.588l-19.352-51.212c-8.447 3.11-21.093 5.81-30.782 5.798-11.877-.026-25.7-3.558-34.596-9.946-8.127-5.836-13.938-14.041-17.125-24.128H1280v-22.77c0-50.92-33.828-111.45-108.575-111.45-45.82 0-80.237 23.552-98.233 56.23-16.14-31.309-47.254-56.23-95.212-56.23-30.539 0-56.01 10.47-74.939 27.123l8.524-21.734h-71.982l-47.587 133.644-48.022-133.644h-71.65l7.974 20.339c-17.38-15.54-41.162-25.728-71.828-25.728-45.77 0-80.16 23.513-98.17 56.128-16.152-31.258-47.254-56.128-95.16-56.128-33.713 0-61.244 12.749-80.622 32.499v-32.934c-16.818 0-35.94 5.824-53.09 18.713-4.724 3.546-9.318 7.68-13.248 12.416v-25.318H152.464v-11.943c0-27.225 19.403-44.697 45.385-44.697 4.288 0 8.563.896 11.801 1.677L233.354 7.45C222.846 3.008 211.263.026 196.096.026zm219.927 172.173c20.338 0 38.948 8.742 43.095 32.345H372.48c3.775-18.393 16.715-32.345 43.478-32.345zm193.33 0c20.338 0 38.948 8.742 43.095 32.345H565.81c3.776-18.393 16.716-32.345 43.479-32.345zm369.498 0c20.337 0 38.947 8.742 43.094 32.345h-86.573c3.776-18.393 16.716-32.345 43.479-32.345zm193.445 0c20.338 0 38.948 8.742 43.095 32.345h-86.573c3.775-18.393 16.715-32.345 43.478-32.345z" fill="#d8ff04"/></svg>