<svg height="183.484786" viewBox="0 0 300 101" width="545.004315" xmlns="http://www.w3.org/2000/svg"><path clip-rule="evenodd" d="m13.303 26.39c8.224 0 13.304-5.833 13.304-13.2 0-7.357-5.08-13.19-13.303-13.19-8.224 0-13.304 5.833-13.304 13.2 0 7.357 5.08 13.19 13.303 13.19zm285.48 63.894-28.502-39.209c-.613-.836-.624-1.651-.031-2.508l26.374-38.32c.772-1.09 1.291-1.937 1.291-3.546 0-1.398-.931-3.112-2.381-4.563-1.45-1.45-2.911-2.138-4.826-2.138-1.08 0-2.032.445-3.091 1.25l-36.1 27.723c-.868.667-1.778.667-2.646 0l-36.09-27.724c-1.048-.804-2.011-1.249-3.09-1.249-1.905 0-3.376.688-4.816 2.138-1.45 1.45-2.381 3.165-2.381 4.563 0 1.62.519 2.456 1.291 3.546l26.374 38.32c.582.846.572 1.661-.031 2.508l-28.502 39.21c-.762 1.047-1.227 1.99-1.227 3.239 0 1.799.783 3.292 2.233 4.731 1.45 1.45 3.027 2.266 4.762 2.266 1.238 0 2.18-.487 3.218-1.25l38.312-27.882a2.175 2.175 0 0 1 2.55 0l38.313 27.882c1.048.763 1.989 1.25 3.228 1.25 1.735 0 3.312-.816 4.762-2.266 1.44-1.44 2.223-2.932 2.223-4.731.01-1.25-.455-2.192-1.217-3.24zm-107.052-54.452c1.915.582 5.747 1.757 7.175 2.212 1.471.477 2.085 1.218 2.085 2.16 0 .931-.529 2.403-1.28 4.425-5.959 16.164-14.235 33.725-23.951 48.577-3.704 5.674-7.81 7.314-14.658 7.314-7.228 0-10.467-1.937-14.012-7.176-2.084-3.072-4.239-6.412-6.976-10.654l-1.343-2.081c-7.641 12.533-20.744 19.901-38.566 19.901-13.494 0-25.718-4.139-32.439-10.268-6.847 6.33-18.447 10.278-29.57 10.278-11.144 0-22.86-3.059-29.718-9.918-5.271-5.282-8.298-11.973-8.298-23.702v-29.374c0-1.45.508-2.064 2.064-2.064h22.088c1.576 0 2.106.635 2.106 2.053v32.498c0 5.187 1.122 8.712 3.513 11.242 2.297 2.424 6.15 3.874 10.5 3.874 4.455 0 8.498-1.493 11.08-4.266 2.932-3.154 4.265-7.643 4.265-15.942v-49.9c0-2.445.635-4.129 2.011-5.378 2.022-1.852 6.117-2.752 11.113-2.752 4.921 0 9.102.91 11.123 2.752 1.376 1.25 2.011 2.933 2.011 5.378v20.43h20.775c1.567 0 2.117.635 2.117 2.054v12.49c0 1.42-.54 2.054-2.117 2.054h-11.663c-3.64 0-6.657-.54-9.112-1.588v12.957c0 7.728 1.63 12.364 4.985 15.804 3.513 3.61 8.911 5.59 15.896 5.59 14.722 0 22.353-9.242 22.353-19.457 0-4.096-1.207-7.43-3.609-11.538-2.117-3.61-2.678-5.145-2.678-7.177 0-6.002 10.626-12.449 17.801-12.449 3.482 0 5.25 1.154 7.896 5.473 1.815 2.958 4.866 8.317 8.323 14.388 1.541 2.706 3.162 5.553 4.79 8.392 3.418 5.96 7.091 12.555 9.08 16.355 6.075-10.395 12.88-27.12 17.357-42.014.455-1.493 1.154-2.213 2.445-2.213.688 0 1.852.286 5.038 1.26z" fill="#deeb52" fill-rule="evenodd"/></svg>