<?xml version="1.0" encoding="utf-8"?>
<!DOCTYPE svg PUBLIC "-//W3C//DTD SVG 1.1//EN" "http://www.w3.org/Graphics/SVG/1.1/DTD/svg11.dtd">
<svg version="1.1" id="joyn logo" xmlns="http://www.w3.org/2000/svg" xmlns:xlink="http://www.w3.org/1999/xlink" x="0px" y="0px"
	 width="1520px" height="640px" viewBox="0 0 1520 640" enable-background="new 0 0 1520 640" xml:space="preserve">
<path id="J" d="M229,11v450.5C229,560.082,151.77,640,56.5,640H0V521h53c29.271,0,53-28.43,53-63.5V290.473V129H0V11H229z"/>
<path id="O" d="M480.75,0c-119.569,0-216.5,96.931-216.5,216.5c0,119.57,96.931,216.5,216.5,216.5s216.5-96.93,216.5-216.5
	C697.25,96.931,600.319,0,480.75,0z M480.75,313c-51.362,0-93-43.204-93-96.5s41.638-96.5,93-96.5s93,43.204,93,96.5
	S532.112,313,480.75,313z"/>
<path id="Y" d="M1101.5,11v451.5c0,77.764-51.842,143.838-124,167.84c-18.807,6.254-38.99,9.66-60,9.66
	c-20.637,0-40.479-3.277-59-9.322c-72.682-23.719-125-90.055-125-168.178h125c0,32.861,26.639,59.5,59.5,59.5s59.5-26.639,59.5-59.5
	v-73.912c-8.527,8.838-18.164,16.59-28.719,22.984C927.387,424.535,902.314,432,875.5,432c-2.865,0-5.689-0.066-8.477-0.193
	c-2.885-0.133-5.723-0.34-8.523-0.604c-45.369-4.281-79.58-25.746-100.641-57.023c-15.941-23.676-24.359-52.963-24.359-84.68V11h125
	v137.052V253.5c0,14.032,4.869,26.92,12.994,37.094C882.396,304.244,899.172,313,918,313c18.73,0,35.43-8.662,46.336-22.189
	c8.229-10.207,13.164-23.18,13.164-37.311v-63.088V11H1101.5z"/>
<path id="N" d="M1520,137v284h-124V271.874V180c0-33.137-26.863-60-60-60s-60,26.863-60,60v51.568V421h-124V12h124v30.432
	C1301.814,16.897,1337.959,1,1378,1c22.76,0,43.094,3.93,60.791,11C1490.877,32.811,1520,80.937,1520,137z"/>
</svg>
