<?xml version="1.0" encoding="UTF-8" standalone="no"?>
<!-- Created with Inkscape (http://www.inkscape.org/) -->

<svg
   xmlns:dc="http://purl.org/dc/elements/1.1/"
   xmlns:cc="http://creativecommons.org/ns#"
   xmlns:rdf="http://www.w3.org/1999/02/22-rdf-syntax-ns#"
   xmlns:svg="http://www.w3.org/2000/svg"
   xmlns="http://www.w3.org/2000/svg"
   xmlns:sodipodi="http://sodipodi.sourceforge.net/DTD/sodipodi-0.dtd"
   xmlns:inkscape="http://www.inkscape.org/namespaces/inkscape"
   width="1000"
   height="458.12729"
   id="svg2"
   sodipodi:version="0.32"
   inkscape:version="0.92.3 (2405546, 2018-03-11)"
   version="1.0"
   inkscape:output_extension="org.inkscape.output.svg.inkscape"
   sodipodi:docname="HBO_Max.svg">
  <metadata
     id="metadata667">
    <rdf:RDF>
      <cc:Work
         rdf:about="">
        <dc:format>image/svg+xml</dc:format>
        <dc:type
           rdf:resource="http://purl.org/dc/dcmitype/StillImage" />
        <dc:title></dc:title>
      </cc:Work>
    </rdf:RDF>
  </metadata>
  <defs
     id="defs665">
    <linearGradient
       gradientTransform="matrix(2.3357424,0,0,-2.3298274,-515.1627,1098.4438)"
       y2="-33.043701"
       x2="352.45499"
       y1="213.86"
       x1="-46.813"
       gradientUnits="userSpaceOnUse"
       id="grad2">
      <stop
         id="stop23"
         style="stop-color:#34229B"
         offset="0.1672" />
      <stop
         id="stop25"
         style="stop-color:#4585C2"
         offset="0.355" />
      <stop
         id="stop27"
         style="stop-color:#8459B0"
         offset="0.6222" />
      <stop
         id="stop29"
         style="stop-color:#875BB0"
         offset="1" />
    </linearGradient>
    <linearGradient
       gradientTransform="matrix(2.3357424,0,0,-2.3298274,-515.1627,1098.4438)"
       y2="51.9142"
       x2="600.5434"
       y1="50.158501"
       x1="-6.3309999"
       gradientUnits="userSpaceOnUse"
       id="grad1">
      <stop
         id="stop2"
         style="stop-color:#2531C8"
         offset="0" />
      <stop
         id="stop4"
         style="stop-color:#009EFF"
         offset="0.2646" />
      <stop
         id="stop6"
         style="stop-color:#6746A5"
         offset="0.4123" />
      <stop
         id="stop8"
         style="stop-color:#875BB0"
         offset="0.695" />
      <stop
         id="stop10"
         style="stop-color:#9D3DA5"
         offset="0.8573" />
      <stop
         id="stop12"
         style="stop-color:#FF002F"
         offset="0.9834" />
    </linearGradient>
  </defs>
  <sodipodi:namedview
     pagecolor="#ffffff"
     bordercolor="#666666"
     borderopacity="1"
     objecttolerance="10"
     gridtolerance="10"
     guidetolerance="10"
     inkscape:pageopacity="0"
     inkscape:pageshadow="2"
     inkscape:window-width="1366"
     inkscape:window-height="705"
     id="namedview663"
     showgrid="false"
     inkscape:zoom="0.70710678"
     inkscape:cx="700.78831"
     inkscape:cy="321.05026"
     inkscape:window-x="-8"
     inkscape:window-y="-8"
     inkscape:window-maximized="1"
     inkscape:current-layer="layer1" />
  <g
     inkscape:label="Layer 1"
     inkscape:groupmode="layer"
     id="layer1"
     transform="translate(515.1627,-686.68012)">
    <g
       id="g9440"
       clip-path="url(#id55)"
       transform="matrix(1,0,0,-1,155.55703,799.81101)">
      <g
         id="g9442"
         transform="translate(292.2298,532.3087)" />
    </g>
    <g
       id="g11042"
       clip-path="url(#id82)"
       transform="matrix(1,0,0,-1,155.55703,799.81101)" />
    <g
       id="g114"
       transform="matrix(0.71348223,0,0,0.71348223,-147.60327,328.00767)">
      <path
         inkscape:connector-curvature="0"
         style="fill:url(#grad1);stroke-width:2.33278298"
         id="path15"
         d="M 870.6333,1084.4648 692.4161,978.22468 870.6333,871.98455 c 15.4159,-9.08632 20.3209,-28.88986 11.2115,-44.26672 -9.1094,-15.37686 -28.9632,-20.2695 -44.3791,-11.18317 L 629.5847,940.71446 421.47,816.53466 c -15.4159,-9.08633 -35.03613,-4.19369 -44.3791,11.18317 -9.1094,15.37686 -4.20434,34.94741 11.21156,44.26672 L 566.5196,978.22468 388.30246,1084.4648 c -15.4159,9.0864 -20.32096,28.8899 -11.21156,44.2668 6.07293,10.0182 16.81734,15.6098 27.79533,15.6098 5.60578,0 11.44514,-1.3979 16.58377,-4.6597 l 207.8811,-124.1798 207.881,124.1798 c 5.1387,3.0288 10.978,4.6597 16.5838,4.6597 10.978,0 21.7224,-5.5916 27.7954,-15.6098 9.3429,-15.3769 4.2043,-35.1804 -10.978,-44.2668 z" />
      <path
         inkscape:connector-curvature="0"
         style="clip-rule:evenodd;fill:#000000;fill-rule:evenodd;stroke-width:2.33278298"
         id="path17"
         d="m -150.08616,673.71624 c 15.18232,0 27.56176,-12.34808 27.56176,-27.49196 0,-15.14388 -12.37944,-27.49197 -27.56176,-27.49197 -15.18233,0 -27.56176,12.34809 -27.56176,27.49197 0,15.14388 12.37943,27.49196 27.56176,27.49196 z" />
      <path
         inkscape:connector-curvature="0"
         style="clip-rule:evenodd;fill:#000000;fill-rule:evenodd;stroke-width:2.33278298"
         id="path19"
         d="m -149.61901,573.99963 c -31.53253,0 -58.39356,20.2695 -68.20368,48.46041 0.46715,-2.79579 0.46715,-5.82457 0.46715,-9.08633 0,-10.48422 -6.07293,-21.90038 -14.71518,-27.95793 -7.94153,-5.82457 -16.11662,-9.31931 -25.92674,-9.31931 h -62.5979 v 142.35246 h 58.62714 c 11.67871,0 21.48883,-4.19369 31.53252,-11.41616 9.10939,-6.52351 14.94875,-18.17265 14.94875,-29.12284 0,-0.46596 0,-0.93193 0,-1.63088 11.44514,24.92915 36.67116,42.16988 65.63436,42.16988 39.9412,0 72.408022,-32.3846 72.408022,-72.22465 0,-40.07303 -32.233252,-72.22465 -72.174442,-72.22465 z m -134.30519,32.85056 h 15.4159 c 7.47437,0 15.4159,1.3979 15.4159,10.71721 0.46715,8.62036 -4.67149,13.74598 -14.94875,13.74598 h -15.64948 z m 28.26248,76.41834 c -3.27004,2.56281 -7.47438,2.32983 -11.44514,2.32983 h -17.05092 v -25.86108 h 15.64948 c 9.34297,0 17.51807,2.32982 17.75164,13.513 0,3.26175 -2.10217,7.92141 -4.90506,10.01825 z m 34.56899,-27.25898 c -2.80289,-3.72772 -6.77365,-7.22246 -12.84659,-10.48422 6.77366,-3.49474 10.97799,-7.68843 13.54731,-13.28002 -0.9343,4.65966 -1.40144,9.31931 -1.40144,13.97897 0,3.26176 0.23357,6.52351 0.70072,9.78527 z m 71.00657,27.72495 c -20.78811,0 -37.60546,-16.77476 -37.60546,-37.51022 0,-20.73547 16.81735,-37.51022 37.60546,-37.51022 20.7881,0 37.60545,16.77475 37.60545,37.51022 0,20.73546 -16.81735,37.51022 -37.60545,37.51022 z" />
      <polygon
         transform="matrix(2.3357424,0,0,2.3298274,-515.1627,502.00796)"
         style="clip-rule:evenodd;fill:#000000;fill-rule:evenodd"
         id="polygon21"
         points="51.4,69 64.1,69 64.1,92.9 79.9,92.9 79.9,31.6 64.1,31.6 64.1,54.2 51.5,54.2 51.5,31.6 35.9,31.6 35.9,92.9 51.4,92.9 " />
      <path
         sodipodi:nodetypes="ssssssscscsssssssccsssssssssssssssssscssccccccsssscccssssssccccscssasss"
         inkscape:connector-curvature="0"
         style="fill:url(#grad2);stroke-width:2.33278298"
         id="path32"
         d="M -44.744178,789.50866 H -474.28721 c -22.6567,0 -40.87549,-18.40563 -40.87549,-40.77198 V 543.47889 c 0,-22.36634 18.45236,-40.77198 40.87549,-40.77198 h 429.543032 c 22.6567,0 40.8754903,18.40564 40.8754903,40.77198 v 205.25779 c 0.23358,22.59933 -18.2187903,40.77198 -40.8754903,40.77198 z M -474.28721,515.05499 c -15.64947,0 -28.49605,13.04704 -28.49605,28.65688 v 205.2578 c 0,15.60984 12.84658,28.42389 28.49605,28.42389 h 429.543032 c 15.64947,0 28.49606,-12.81405 28.49606,-28.42389 V 543.47889 c 0,-15.60984 -12.84659,-28.4239 -28.49606,-28.4239 z M -3.6351077,955.62538 v 156.56442 c 0,17.7067 -14.4816103,32.1516 -32.2332503,32.1516 -17.75164,0 -32.23324,-14.4449 -32.23324,-32.1516 V 955.62538 c 0,-43.80078 -35.736862,-79.21416 -79.415252,-79.21416 -43.67838,0 -79.41524,35.64636 -79.41524,79.21416 v 156.56442 c 0,17.7067 -14.4816,32.1516 -32.23324,32.1516 -17.75165,0 -32.23325,-14.4449 -32.23325,-32.1516 V 955.62538 c 0,-43.80078 -35.73686,-79.21416 -79.41524,-79.21416 -43.67838,0 -79.41524,35.64636 -79.41524,79.21416 v 156.56442 c 0,17.7067 -14.4816,32.1516 -32.23325,32.1516 -17.75164,0 -32.70039,-14.4449 -32.70039,-32.1516 V 955.62538 c 0,-79.21416 64.70007,-143.75037 144.11531,-143.75037 45.07982,0 85.25459,20.73546 111.64848,53.12006 26.39389,-32.3846 66.80224,-53.12006 111.64849,-53.12006 79.648822,0 144.1153123,64.53621 144.1153123,143.75037 z M 184.62572,811.87501 c 0,0 -0.23357,0 0,0 z m 0,332.46639 v 0 0 c -0.23357,0 0,0 0,0 z M 351.16416,844.25961 v 267.93019 c 0,17.7067 -14.48161,32.1516 -32.23325,32.1516 -17.75164,0 -32.23324,-14.4449 -32.23324,-32.1516 v -7.9214 c -2.33575,3.0287 -11.91229,14.6779 -31.53253,24.6961 -18.45236,8.6204 -38.77332,13.979 -60.02858,15.3769 -0.93429,0 -2.10216,0.233 -3.03646,0.233 -1.8686,0 -3.73719,0.233 -5.37221,0.233 h -2.10217 c -91.794668,0 -166.304858,-74.5545 -166.304858,-166.11672 0,-91.56225 74.51019,-166.11673 166.304858,-166.11673 h 2.10217 c 1.8686,0 3.73719,0 5.60578,0.23299 0.9343,0 1.8686,0 3.03647,0.23298 21.48883,1.3979 42.04336,6.7565 60.49573,15.37686 19.38666,10.01826 28.9632,21.43441 31.06537,24.46319 v -7.92141 c 0,-17.70669 14.4816,-32.15162 32.23325,-32.15162 17.51806,-0.93193 31.99967,13.513 31.99967,31.45267 z m -64.70007,133.96507 c 0,-56.14884 -45.78055,-101.81346 -102.07194,-101.81346 -56.29139,0 -102.071938,45.66462 -102.071938,101.81346 0,56.14882 45.780548,101.81352 102.071938,101.81352 56.29139,0 102.07194,-45.8976 102.07194,-101.81352 z" />
    </g>
  </g>
</svg>
