<?xml version="1.0" encoding="UTF-8" standalone="no"?>
<svg
   width="37"
   height="54"
   viewBox="0 0 176 254"
   fill="none"
   version="1.1"
   id="svg261"
   xmlns:sodipodi="http://sodipodi.sourceforge.net/DTD/sodipodi-0.dtd"
   xmlns="http://www.w3.org/2000/svg"
   xmlns:svg="http://www.w3.org/2000/svg">
  <path
     d="m 84.1304,254 c -0.0508,0 -0.1016,0 -0.1354,0 C 61.3366,252.984 40.2024,243.399 24.4703,227.007 8.68738,210.563 0,188.955 0,166.161 c 0,-0.067 0,-0.152 0,-0.22 0.118541,-5.266 4.43683,-9.5 9.72039,-9.5 H 48.8559 c 5.3513,0 9.7204,4.386 9.7374,9.788 0.0338,14.784 11.1767,27.231 25.9266,28.975 1.6088,0.186 2.8281,1.558 2.8281,3.184 V 250.8 c 0,0.88 -0.3556,1.71 -0.9991,2.32 -0.6097,0.575 -1.4056,0.88 -2.2185,0.88 z"
     fill="url(&quot;#paint0_linear_460_16551&quot;)"
     id="path2"
     style="fill:url(#paint0_linear_460_16551)" />
  <path
     d="m 162.199,210.326 c -0.339,0 -0.678,-0.051 -1,-0.153 -1.405,-0.457 -2.303,-1.812 -2.201,-3.268 1.626,-22.709 -10.008,-40.575 -10.127,-40.761 -0.017,-0.034 -0.051,-0.068 -0.068,-0.102 -6.248,-10.262 -15.054,-18.848 -25.469,-24.843 -10.737,-6.181 -22.963,-9.432 -35.3931,-9.432 H 37.4592 c -9.1615,0 -12.8363,-7.316 -13.3105,-8.332 L 4.3354,82.8601 C 3.8443,81.8609 3.91204,80.6925 4.50475,79.7611 5.09745,78.8297 6.11353,78.2539 7.2312,78.2539 h 80.7774 c 0.0677,0 0.1355,0 0.1863,0 11.8033,0.0169 23.2681,2.3539 34.0551,6.9093 10.483,4.4368 19.881,10.7703 27.976,18.8478 8.078,8.078 14.428,17.477 18.865,27.959 4.589,10.838 6.909,22.37 6.909,34.241 0,24.843 -10.618,41.947 -11.075,42.658 -0.61,0.915 -1.643,1.457 -2.726,1.457 z"
     fill="url(&quot;#paint1_linear_460_16551&quot;)"
     id="path4"
     style="fill:url(#paint1_linear_460_16551)" />
  <path
     d="m 91.8022,253.983 c -0.8129,0 -1.6088,-0.305 -2.2015,-0.881 -0.6435,-0.609 -0.9991,-1.439 -0.9991,-2.337 v -52.378 c 0,-1.625 1.2193,-2.997 2.828,-3.183 14.7334,-1.728 25.8254,-14.208 25.8254,-29.043 0,-5.165 -1.372,-10.228 -3.963,-14.665 -2.506,-4.302 -6.113,-7.926 -10.415,-10.466 -1.354,-0.796 -1.913,-2.455 -1.354,-3.912 0.491,-1.253 1.693,-2.049 2.997,-2.049 0.22,0 0.423,0.017 0.644,0.068 0.389,0.085 9.5,1.998 20.152,8.755 6.248,3.963 11.769,8.806 16.392,14.361 5.775,6.943 10.161,15.037 13.006,24.063 0.017,0.034 0.017,0.051 0.034,0.085 4.775,16.647 1.067,29.94 -2.862,38.153 -4.014,8.4 -9.06,13.294 -9.839,14.022 -0.677,0.694 -4.826,4.81 -12.565,9.094 -7.553,4.166 -20.186,9.348 -37.5274,10.279 -0.0339,0.034 -0.1016,0.034 -0.1524,0.034 z"
     fill="url(&quot;#paint2_linear_460_16551&quot;)"
     id="path6"
     style="fill:url(#paint2_linear_460_16551)" />
  <path
     d="m 103.605,53.4961 c -1.033,0 -1.998,-0.4911 -2.591,-1.3209 -0.61,-0.8298 -0.762,-1.9136 -0.44,-2.8789 L 116.119,2.21857 c 0.441,-1.320889 1.66,-2.2014802 3.049,-2.2014802 h 32.395 c 5.368,0 9.737,4.3690802 9.737,9.7203702 V 43.7757 c 0,5.3682 -4.369,9.7204 -9.72,9.7204 z"
     fill="url(&quot;#paint3_linear_460_16551&quot;)"
     id="path8"
     style="fill:url(#paint3_linear_460_16551)" />
  <path
     d="m 74.6808,76.2389 c -1.0161,0 -1.9813,-0.4911 -2.591,-1.3209 -0.6096,-0.8298 -0.779,-1.8967 -0.4572,-2.862 L 77.2717,54.4781 71.7173,3.55623 C 71.6157,2.65871 71.9035,1.74425 72.5132,1.06687 73.1228,0.38949 73.9865,0 74.9009,0 h 12.9549 c 1.6426,0 3.0143,1.23621 3.1836,2.86192 L 91.8523,10.2453 94.511,2.20148 C 94.9513,0.880591 96.1706,0 97.5592,0 h 13.2088 c 1.033,0 1.998,0.491097 2.591,1.32088 0.61,0.82979 0.779,1.89666 0.457,2.87886 L 90.7516,74.0713 c -0.4234,1.3208 -1.6596,2.2184 -3.0482,2.2184 -0.017,-0.017 -13.0226,-0.0508 -13.0226,-0.0508 z"
     fill="url(&quot;#paint4_linear_460_16551&quot;)"
     id="path10"
     style="fill:url(#paint4_linear_460_16551)" />
  <path
     d="m 59.5248,58.0005 c -1.6257,0 -2.9974,-1.2193 -3.1837,-2.845 l -0.8297,-7.3496 -2.6418,7.9931 c -0.4403,1.3209 -1.6596,2.2015 -3.0482,2.2015 H 36.8496 c -1.6426,0 -3.0143,-1.2363 -3.1836,-2.862 l -0.7959,-7.2648 -2.6079,7.9253 c -0.4403,1.3209 -1.6596,2.2015 -3.0482,2.2015 H 14.2084 c -1.033,0 -1.9983,-0.4911 -2.591,-1.3209 -0.6096,-0.8298 -0.762,-1.9136 -0.4403,-2.8789 L 26.7229,6.57056 C 28.0099,2.64177 31.6677,0 35.7997,0 h 8.3995 c 1.6426,0 3.0143,1.23621 3.1836,2.86192 l 0.8129,7.40038 2.6587,-8.04389 C 51.2947,0.897526 52.514,0.0169355 53.9026,0.0169355 h 12.9379 c 1.6426,0 3.0143,1.2362145 3.1836,2.8619145 l 5.6223,51.59925 c 0.1016,0.8975 -0.1863,1.812 -0.796,2.4894 -0.6096,0.6773 -1.4733,1.0668 -2.3877,1.0668 H 59.5248 Z"
     fill="url(&quot;#paint5_linear_460_16551&quot;)"
     id="path12"
     style="fill:url(#paint5_linear_460_16551)" />
  <path
     d="m 8.19641,75.9003 c -0.96527,0 -1.87973,-0.4572 -2.43857,-1.2362 C 5.199,73.8851 5.02966,72.8691 5.33448,71.9546 l 3.14981,-9.5849 c 0.40642,-1.2362 1.55801,-2.066 2.86191,-2.066 h 57.8312 c 0.9653,0 1.8798,0.4572 2.4386,1.2362 0.5588,0.779 0.7282,1.7951 0.4234,2.7095 l -3.1499,9.5849 c -0.4064,1.2362 -1.5579,2.066 -2.8619,2.066 z"
     fill="url(&quot;#paint6_linear_460_16551&quot;)"
     id="path14"
     style="fill:url(#paint6_linear_460_16551)" />
  <path
     d="M 84.0627,252.407 C 61.8108,251.408 41.066,242.009 25.6218,225.905 c -15.495,-16.139 -24.03,-37.358 -24.03,-59.728 0,-0.051 0,-0.102 0,-0.135 0.06773,-4.42 3.6917,-7.977 8.1116,-7.977 H 48.839 c 4.4707,0 8.1116,3.675 8.1285,8.18 0.0339,15.596 11.7864,28.738 27.3492,30.566 0.8128,0.102 1.4225,0.779 1.4225,1.592 v 52.412 c 0,0.441 -0.1863,0.864 -0.4911,1.152 -0.3048,0.288 -0.6943,0.44 -1.1008,0.44 -0.0508,0 -0.0677,0 -0.0846,0 z"
     fill="#2d3940"
     id="path16" />
  <path
     d="m 162.199,208.734 c -0.17,0 -0.339,-0.034 -0.508,-0.085 -0.695,-0.237 -1.152,-0.897 -1.101,-1.642 0.864,-12.092 -1.998,-22.794 -4.555,-29.636 -2.778,-7.451 -5.809,-12.074 -5.843,-12.125 -0.017,-0.017 -0.017,-0.034 -0.034,-0.051 -6.384,-10.499 -15.393,-19.271 -26.028,-25.401 -10.974,-6.317 -23.488,-9.653 -36.189,-9.653 H 37.4594 c -8.3318,0 -11.5663,-6.757 -11.8711,-7.434 L 5.77497,82.132 C 5.53789,81.6409 5.55482,81.0482 5.85964,80.5741 6.14753,80.0999 6.6725,79.812 7.2144,79.812 h 80.7774 c 0.0508,0 0.0847,0 0.1355,0 11.617,0.0169 22.8787,2.3031 33.4967,6.7907 10.279,4.3522 19.525,10.5671 27.467,18.5093 7.926,7.925 14.158,17.155 18.51,27.451 4.504,10.652 6.79,21.947 6.79,33.615 0,12.734 -2.929,23.403 -5.385,30.109 -2.675,7.282 -5.317,11.532 -5.436,11.702 -0.321,0.474 -0.829,0.745 -1.371,0.745 z"
     fill="#2d3940"
     id="path18" />
  <path
     d="m 91.8021,252.374 c -0.4064,0 -0.7959,-0.153 -1.1007,-0.441 -0.3218,-0.305 -0.508,-0.728 -0.508,-1.168 v -52.378 c 0,-0.813 0.6096,-1.491 1.4225,-1.592 15.5291,-1.829 27.2481,-14.987 27.2481,-30.635 0,-5.453 -1.44,-10.787 -4.183,-15.478 -2.642,-4.538 -6.452,-8.348 -10.974,-11.041 -0.677,-0.406 -0.965,-1.219 -0.677,-1.964 0.237,-0.627 0.846,-1.033 1.49,-1.033 0.102,0 0.22,0.016 0.322,0.033 0.372,0.068 9.195,1.931 19.627,8.552 6.113,3.878 11.498,8.603 16.02,14.039 5.639,6.791 9.924,14.699 12.718,23.522 0,0.017 0.017,0.034 0.017,0.051 2.049,7.129 2.675,14.225 1.863,21.1 -0.644,5.504 -2.202,10.855 -4.641,15.935 -3.979,8.315 -8.941,13.04 -9.517,13.565 -0.491,0.508 -4.487,4.572 -12.21,8.84 -7.4,4.098 -19.813,9.161 -36.8322,10.093 -0.0339,0 -0.0508,0 -0.0847,0 z"
     fill="#2d3940"
     id="path20" />
  <path
     d="m 103.808,51.8868 c -0.508,0 -0.999,-0.2541 -1.304,-0.6605 -0.304,-0.4234 -0.389,-0.9483 -0.22,-1.4394 L 117.83,2.70914 c 0.22,-0.66045 0.83,-1.10074 1.524,-1.10074 h 32.175 c 4.488,0 8.129,3.6409 8.129,8.12853 V 43.7752 c 0,4.4706 -3.641,8.1285 -8.129,8.1285 h -47.721 z"
     fill="#2d3940"
     id="path22" />
  <path
     d="m 74.6812,74.63 c -0.5081,0 -0.9992,-0.254 -1.2871,-0.6604 -0.3048,-0.4064 -0.3894,-0.9483 -0.237,-1.4394 L 78.8978,54.6305 73.3095,3.36991 C 73.2587,2.91268 73.4111,2.47239 73.7159,2.1337 74.0207,1.79501 74.461,1.60873 74.9013,1.60873 h 12.9548 c 0.8129,0 1.5072,0.60964 1.5919,1.42249 L 91.0567,17.7642 96.0354,2.69254 C 96.2556,2.03209 96.8652,1.5918 97.5595,1.5918 h 12.9715 c 0.508,0 0.999,0.25401 1.304,0.66044 0.305,0.42336 0.39,0.94833 0.22,1.43943 L 89.2278,73.5632 c -0.2201,0.6604 -0.8298,1.1007 -1.5241,1.1007 -0.0169,0 -13.0225,-0.0339 -13.0225,-0.0339 z"
     fill="#2d3940"
     id="path24" />
  <path
     d="m 59.5247,56.3915 c -0.8129,0 -1.5072,-0.6096 -1.5919,-1.4225 L 56.2902,40.3376 51.3454,55.3077 c -0.2202,0.6604 -0.8298,1.1007 -1.5241,1.1007 H 36.8494 c -0.8128,0 -1.5071,-0.6096 -1.5918,-1.4225 L 33.6488,40.3885 28.7209,55.3077 c -0.2202,0.6604 -0.8298,1.1007 -1.5241,1.1007 H 14.1911 c -0.508,0 -0.9991,-0.254 -1.3039,-0.6604 -0.3048,-0.4234 -0.3895,-0.9483 -0.2202,-1.4394 L 28.2129,7.0784 c 1.1007,-3.28528 4.132,-5.48676 7.5866,-5.48676 h 8.3995 c 0.8129,0 1.5072,0.60964 1.5918,1.42249 L 47.3996,17.7471 52.3783,2.67545 C 52.5985,2.015 53.2081,1.57471 53.9025,1.57471 h 12.9379 c 0.8128,0 1.5071,0.60964 1.5918,1.42249 l 5.6223,51.5993 c 0.0508,0.4572 -0.1016,0.8975 -0.4065,1.2362 -0.3048,0.3387 -0.7451,0.5249 -1.1854,0.5249 H 59.5247 Z"
     fill="#2d3940"
     id="path26" />
  <path
     d="m 8.196,74.4945 c -0.50803,0 -0.99913,-0.254 -1.30395,-0.6605 C 6.58723,73.4276 6.50256,72.8857 6.67191,72.3946 L 9.8217,62.8097 c 0.2201,-0.6604 0.8298,-1.1007 1.5241,-1.1007 h 57.831 c 0.508,0 0.9991,0.254 1.3039,0.6604 0.3048,0.4234 0.3895,0.9484 0.2201,1.4395 l -3.1497,9.5849 c -0.2202,0.6604 -0.8298,1.1007 -1.5241,1.1007 z"
     fill="#2d3940"
     id="path28" />
  <path
     d="m 55.3753,166.228 c 0,-3.624 -2.8958,-6.587 -6.5198,-6.587 H 9.71997 c -3.60705,0 -6.51977,2.912 -6.51977,6.519 0,45.503 35.9011,82.607 80.9298,84.622 V 198.37 C 68.0084,196.49 55.4092,182.841 55.3753,166.228 Z"
     fill="url(&quot;#paint7_linear_460_16551&quot;)"
     id="path30"
     style="fill:url(#paint7_linear_460_16551)" />
  <path
     d="m 172.765,166.177 c 0,-46.806 -37.967,-84.7395 -84.7913,-84.7395 H 7.19629 L 27.0435,122.063 c 0,0 2.7772,6.503 10.4147,6.503 h 50.4816 c 26.9262,0 50.5322,14.36 63.6062,35.816 0,0 12.362,18.696 10.651,42.76 0,-0.017 10.568,-16.782 10.568,-40.965 z"
     fill="url(&quot;#paint8_linear_460_16551&quot;)"
     id="path32"
     style="fill:url(#paint8_linear_460_16551)" />
  <path
     d="m 104.537,138.286 c 9.534,5.656 15.935,16.003 15.935,27.891 0,16.63 -12.532,30.33 -28.6702,32.226 v 52.379 c 32.3792,-1.762 48.0092,-18.459 48.0092,-18.459 0,0 20.559,-18.645 11.871,-49.008 -11.972,-37.832 -47.145,-45.029 -47.145,-45.029 z"
     fill="url(&quot;#paint9_linear_460_16551&quot;)"
     id="path34"
     style="fill:url(#paint9_linear_460_16551)" />
  <path
     d="M 151.529,3.20068 H 119.353 L 103.808,50.2784 h 47.738 c 3.607,0 6.52,-2.9127 6.52,-6.5197 V 9.72044 c -0.017,-3.60703 -2.93,-6.51976 -6.537,-6.51976 z"
     fill="url(&quot;#paint10_linear_460_16551&quot;)"
     id="path36"
     style="fill:url(#paint10_linear_460_16551)" />
  <path
     d="M 74.6807,73.0214 87.7033,73.0722 110.531,3.20068 H 97.5591 L 90.2773,25.2832 87.8726,3.20068 H 74.9178 L 80.54,54.7999 Z"
     fill="url(&quot;#paint11_linear_460_16551&quot;)"
     id="path38"
     style="fill:url(#paint11_linear_460_16551)" />
  <path
     d="m 27.2134,54.7828 7.231,-21.9131 2.4216,21.9131 h 12.9718 l 7.231,-21.9301 2.4555,21.9301 h 12.921 L 66.8231,3.18359 H 53.8851 L 46.6033,25.2661 44.1986,3.18359 h -8.3995 c -2.7434,0 -5.1819,1.76119 -6.0286,4.36909 L 14.2246,54.7828 Z"
     fill="url(&quot;#paint12_linear_460_16551&quot;)"
     id="path40"
     style="fill:url(#paint12_linear_460_16551)" />
  <path
     d="M 8.19629,72.9026 H 66.0275 l 3.1667,-9.6018 H 11.3461 Z"
     fill="#fcfcfc"
     id="path42" />
  <defs
     id="defs259">
    <linearGradient
       id="paint0_linear_460_16551"
       x1="16.2802"
       y1="146.228"
       x2="80.1383"
       y2="256.833"
       gradientUnits="userSpaceOnUse">
      <stop
         offset="0.0660138"
         stop-color="#4F616C"
         id="stop44" />
      <stop
         offset="0.6385"
         stop-color="#38464E"
         id="stop46" />
      <stop
         offset="1"
         stop-color="#2D3940"
         id="stop48" />
    </linearGradient>
    <linearGradient
       id="paint1_linear_460_16551"
       x1="53.868"
       y1="53.0259"
       x2="148.918"
       y2="217.658"
       gradientUnits="userSpaceOnUse">
      <stop
         offset="0"
         stop-color="#4F616C"
         id="stop51" />
      <stop
         offset="0.6129"
         stop-color="#38464E"
         id="stop53" />
      <stop
         offset="1"
         stop-color="#2D3940"
         id="stop55" />
    </linearGradient>
    <linearGradient
       id="paint2_linear_460_16551"
       x1="79.9117"
       y1="142.911"
       x2="140.367"
       y2="247.624"
       gradientUnits="userSpaceOnUse">
      <stop
         offset="0"
         stop-color="#4F616C"
         id="stop58" />
      <stop
         offset="0.6129"
         stop-color="#38464E"
         id="stop60" />
      <stop
         offset="1"
         stop-color="#2D3940"
         id="stop62" />
    </linearGradient>
    <linearGradient
       id="paint3_linear_460_16551"
       x1="113.868"
       y1="-0.241856"
       x2="151.819"
       y2="65.4898"
       gradientUnits="userSpaceOnUse">
      <stop
         offset="0"
         stop-color="#4F616C"
         id="stop65" />
      <stop
         offset="0.6129"
         stop-color="#38464E"
         id="stop67" />
      <stop
         offset="1"
         stop-color="#2D3940"
         id="stop69" />
    </linearGradient>
    <linearGradient
       id="paint4_linear_460_16551"
       x1="73.798"
       y1="-2.48217"
       x2="115.565"
       y2="87.0875"
       gradientUnits="userSpaceOnUse">
      <stop
         offset="0"
         stop-color="#4F616C"
         id="stop72" />
      <stop
         offset="0.6129"
         stop-color="#38464E"
         id="stop74" />
      <stop
         offset="1"
         stop-color="#2D3940"
         id="stop76" />
    </linearGradient>
    <linearGradient
       id="paint5_linear_460_16551"
       x1="36.3031"
       y1="22.4416"
       x2="70.5959"
       y2="75.7858"
       gradientUnits="userSpaceOnUse">
      <stop
         offset="0"
         stop-color="#4F616C"
         id="stop79" />
      <stop
         offset="1"
         stop-color="#2D3940"
         id="stop81" />
    </linearGradient>
    <linearGradient
       id="paint6_linear_460_16551"
       x1="26.6371"
       y1="45.5697"
       x2="58.4653"
       y2="105.047"
       gradientUnits="userSpaceOnUse">
      <stop
         offset="0"
         stop-color="#4F616C"
         id="stop84" />
      <stop
         offset="0.6129"
         stop-color="#38464E"
         id="stop86" />
      <stop
         offset="1"
         stop-color="#2D3940"
         id="stop88" />
    </linearGradient>
    <linearGradient
       id="paint7_linear_460_16551"
       x1="78.5263"
       y1="254.031"
       x2="20.0194"
       y2="152.694"
       gradientUnits="userSpaceOnUse">
      <stop
         offset="0"
         stop-color="#F1A914"
         id="stop91" />
      <stop
         offset="0.0578394"
         stop-color="#F2AD17"
         id="stop93" />
      <stop
         offset="0.6719"
         stop-color="#FBD134"
         id="stop95" />
      <stop
         offset="0.9987"
         stop-color="#FFDF3F"
         id="stop97" />
    </linearGradient>
    <linearGradient
       id="paint8_linear_460_16551"
       x1="147.673"
       y1="215.512"
       x2="54.4975"
       y2="54.1268"
       gradientUnits="userSpaceOnUse">
      <stop
         offset="0"
         stop-color="#F1A914"
         id="stop100" />
      <stop
         offset="0.057914"
         stop-color="#F2AD17"
         id="stop102" />
      <stop
         offset="0.6728"
         stop-color="#FBD134"
         id="stop104" />
      <stop
         offset="1"
         stop-color="#FFDF3F"
         id="stop106" />
    </linearGradient>
    <linearGradient
       id="paint9_linear_460_16551"
       x1="134.351"
       y1="237.2"
       x2="84.0628"
       y2="150.097"
       gradientUnits="userSpaceOnUse">
      <stop
         offset="0"
         stop-color="#F1A914"
         id="stop109" />
      <stop
         offset="0.057914"
         stop-color="#F2AD17"
         id="stop111" />
      <stop
         offset="0.6728"
         stop-color="#FBD134"
         id="stop113" />
      <stop
         offset="1"
         stop-color="#FFDF3F"
         id="stop115" />
    </linearGradient>
    <linearGradient
       id="paint10_linear_460_16551"
       x1="145.679"
       y1="54.6748"
       x2="116.809"
       y2="4.67004"
       gradientUnits="userSpaceOnUse">
      <stop
         offset="0"
         stop-color="#F1A914"
         id="stop118" />
      <stop
         offset="0.057914"
         stop-color="#F2AD17"
         id="stop120" />
      <stop
         offset="0.6728"
         stop-color="#FBD134"
         id="stop122" />
      <stop
         offset="1"
         stop-color="#FFDF3F"
         id="stop124" />
    </linearGradient>
    <linearGradient
       id="paint11_linear_460_16551"
       x1="106.518"
       y1="62.1999"
       x2="73.0694"
       y2="4.26595"
       gradientUnits="userSpaceOnUse">
      <stop
         offset="0"
         stop-color="#F1A914"
         id="stop127" />
      <stop
         offset="0.0578394"
         stop-color="#F2AD17"
         id="stop129" />
      <stop
         offset="0.6719"
         stop-color="#FBD134"
         id="stop131" />
      <stop
         offset="0.9987"
         stop-color="#FFDF3F"
         id="stop133" />
    </linearGradient>
    <linearGradient
       id="paint12_linear_460_16551"
       x1="59.6676"
       y1="62.168"
       x2="27.7368"
       y2="6.86215"
       gradientUnits="userSpaceOnUse">
      <stop
         offset="0"
         stop-color="#F1A914"
         id="stop136" />
      <stop
         offset="0.057914"
         stop-color="#F2AD17"
         id="stop138" />
      <stop
         offset="0.6728"
         stop-color="#FBD134"
         id="stop140" />
      <stop
         offset="1"
         stop-color="#FFDF3F"
         id="stop142" />
    </linearGradient>
    <linearGradient
       id="linearGradient151"
       x1="16.2802"
       y1="146.228"
       x2="80.1383"
       y2="256.833"
       gradientUnits="userSpaceOnUse">
      <stop
         offset="0.0660138"
         stop-color="#4F616C"
         id="stop145" />
      <stop
         offset="0.6385"
         stop-color="#38464E"
         id="stop147" />
      <stop
         offset="1"
         stop-color="#2D3940"
         id="stop149" />
    </linearGradient>
    <linearGradient
       id="linearGradient159"
       x1="53.868"
       y1="53.0259"
       x2="148.918"
       y2="217.658"
       gradientUnits="userSpaceOnUse">
      <stop
         offset="0"
         stop-color="#4F616C"
         id="stop153" />
      <stop
         offset="0.6129"
         stop-color="#38464E"
         id="stop155" />
      <stop
         offset="1"
         stop-color="#2D3940"
         id="stop157" />
    </linearGradient>
    <linearGradient
       id="linearGradient167"
       x1="79.9117"
       y1="142.911"
       x2="140.367"
       y2="247.624"
       gradientUnits="userSpaceOnUse">
      <stop
         offset="0"
         stop-color="#4F616C"
         id="stop161" />
      <stop
         offset="0.6129"
         stop-color="#38464E"
         id="stop163" />
      <stop
         offset="1"
         stop-color="#2D3940"
         id="stop165" />
    </linearGradient>
    <linearGradient
       id="linearGradient175"
       x1="113.868"
       y1="-0.241856"
       x2="151.819"
       y2="65.4898"
       gradientUnits="userSpaceOnUse">
      <stop
         offset="0"
         stop-color="#4F616C"
         id="stop169" />
      <stop
         offset="0.6129"
         stop-color="#38464E"
         id="stop171" />
      <stop
         offset="1"
         stop-color="#2D3940"
         id="stop173" />
    </linearGradient>
    <linearGradient
       id="linearGradient183"
       x1="73.798"
       y1="-2.48217"
       x2="115.565"
       y2="87.0875"
       gradientUnits="userSpaceOnUse">
      <stop
         offset="0"
         stop-color="#4F616C"
         id="stop177" />
      <stop
         offset="0.6129"
         stop-color="#38464E"
         id="stop179" />
      <stop
         offset="1"
         stop-color="#2D3940"
         id="stop181" />
    </linearGradient>
    <linearGradient
       id="linearGradient189"
       x1="36.3031"
       y1="22.4416"
       x2="70.5959"
       y2="75.7858"
       gradientUnits="userSpaceOnUse">
      <stop
         offset="0"
         stop-color="#4F616C"
         id="stop185" />
      <stop
         offset="1"
         stop-color="#2D3940"
         id="stop187" />
    </linearGradient>
    <linearGradient
       id="linearGradient197"
       x1="26.6371"
       y1="45.5697"
       x2="58.4653"
       y2="105.047"
       gradientUnits="userSpaceOnUse">
      <stop
         offset="0"
         stop-color="#4F616C"
         id="stop191" />
      <stop
         offset="0.6129"
         stop-color="#38464E"
         id="stop193" />
      <stop
         offset="1"
         stop-color="#2D3940"
         id="stop195" />
    </linearGradient>
    <linearGradient
       id="linearGradient207"
       x1="78.5263"
       y1="254.031"
       x2="20.0194"
       y2="152.694"
       gradientUnits="userSpaceOnUse">
      <stop
         offset="0"
         stop-color="#F1A914"
         id="stop199" />
      <stop
         offset="0.0578394"
         stop-color="#F2AD17"
         id="stop201" />
      <stop
         offset="0.6719"
         stop-color="#FBD134"
         id="stop203" />
      <stop
         offset="0.9987"
         stop-color="#FFDF3F"
         id="stop205" />
    </linearGradient>
    <linearGradient
       id="linearGradient217"
       x1="147.673"
       y1="215.512"
       x2="54.4975"
       y2="54.1268"
       gradientUnits="userSpaceOnUse">
      <stop
         offset="0"
         stop-color="#F1A914"
         id="stop209" />
      <stop
         offset="0.057914"
         stop-color="#F2AD17"
         id="stop211" />
      <stop
         offset="0.6728"
         stop-color="#FBD134"
         id="stop213" />
      <stop
         offset="1"
         stop-color="#FFDF3F"
         id="stop215" />
    </linearGradient>
    <linearGradient
       id="linearGradient227"
       x1="134.351"
       y1="237.2"
       x2="84.0628"
       y2="150.097"
       gradientUnits="userSpaceOnUse">
      <stop
         offset="0"
         stop-color="#F1A914"
         id="stop219" />
      <stop
         offset="0.057914"
         stop-color="#F2AD17"
         id="stop221" />
      <stop
         offset="0.6728"
         stop-color="#FBD134"
         id="stop223" />
      <stop
         offset="1"
         stop-color="#FFDF3F"
         id="stop225" />
    </linearGradient>
    <linearGradient
       id="linearGradient237"
       x1="145.679"
       y1="54.6748"
       x2="116.809"
       y2="4.67004"
       gradientUnits="userSpaceOnUse">
      <stop
         offset="0"
         stop-color="#F1A914"
         id="stop229" />
      <stop
         offset="0.057914"
         stop-color="#F2AD17"
         id="stop231" />
      <stop
         offset="0.6728"
         stop-color="#FBD134"
         id="stop233" />
      <stop
         offset="1"
         stop-color="#FFDF3F"
         id="stop235" />
    </linearGradient>
    <linearGradient
       id="linearGradient247"
       x1="106.518"
       y1="62.1999"
       x2="73.0694"
       y2="4.26595"
       gradientUnits="userSpaceOnUse">
      <stop
         offset="0"
         stop-color="#F1A914"
         id="stop239" />
      <stop
         offset="0.0578394"
         stop-color="#F2AD17"
         id="stop241" />
      <stop
         offset="0.6719"
         stop-color="#FBD134"
         id="stop243" />
      <stop
         offset="0.9987"
         stop-color="#FFDF3F"
         id="stop245" />
    </linearGradient>
    <linearGradient
       id="linearGradient257"
       x1="59.6676"
       y1="62.168"
       x2="27.7368"
       y2="6.86215"
       gradientUnits="userSpaceOnUse">
      <stop
         offset="0"
         stop-color="#F1A914"
         id="stop249" />
      <stop
         offset="0.057914"
         stop-color="#F2AD17"
         id="stop251" />
      <stop
         offset="0.6728"
         stop-color="#FBD134"
         id="stop253" />
      <stop
         offset="1"
         stop-color="#FFDF3F"
         id="stop255" />
    </linearGradient>
  </defs>
</svg>
