<?xml version="1.0" encoding="utf-8"?>
<!-- Generator: Adobe Illustrator 23.0.1, SVG Export Plug-In . SVG Version: 6.00 Build 0)  -->
<!DOCTYPE svg PUBLIC "-//W3C//DTD SVG 1.1//EN" "http://www.w3.org/Graphics/SVG/1.1/DTD/svg11.dtd" [
	<!ENTITY ns_extend "http://ns.adobe.com/Extensibility/1.0/">
	<!ENTITY ns_ai "http://ns.adobe.com/AdobeIllustrator/10.0/">
	<!ENTITY ns_graphs "http://ns.adobe.com/Graphs/1.0/">
	<!ENTITY ns_vars "http://ns.adobe.com/Variables/1.0/">
	<!ENTITY ns_imrep "http://ns.adobe.com/ImageReplacement/1.0/">
	<!ENTITY ns_sfw "http://ns.adobe.com/SaveForWeb/1.0/">
	<!ENTITY ns_custom "http://ns.adobe.com/GenericCustomNamespace/1.0/">
	<!ENTITY ns_adobe_xpath "http://ns.adobe.com/XPath/1.0/">
]>
<svg version="1.1" id="Livello_1" xmlns:x="&ns_extend;" xmlns:i="&ns_ai;" xmlns:graph="&ns_graphs;"
	 xmlns="http://www.w3.org/2000/svg" xmlns:xlink="http://www.w3.org/1999/xlink" x="0px" y="0px" viewBox="0 0 450.1 191.8"
	 style="enable-background:new 0 0 450.1 191.8;" xml:space="preserve">
<style type="text/css">
	.st0{fill:#009FF9;}
	.st1{fill:#FFFFFF;}
</style>
<metadata>
	<sfw  xmlns="&ns_sfw;">
		<slices></slices>
		<sliceSourceBounds  bottomLeftOrigin="true" height="191.8" width="450.1" x="-206.7" y="-242"></sliceSourceBounds>
	</sfw>
</metadata>
<g>
	<rect class="st0" width="191.8" height="191.8"/>
	<g>
		<path class="st1" d="M160.4,52.8c-5.6,0-10.2,4.6-10.2,10.2s4.6,10.2,10.2,10.2c5.6,0,10.2-4.6,10.2-10.2S165.9,52.8,160.4,52.8"
			/>
		<rect x="151.3" y="82.6" class="st1" width="18.1" height="51.1"/>
		<path class="st1" d="M60.8,102.9C71.5,101,77.3,92,77.3,81.7c0-16-11.3-23.1-26.1-23.1H22v75.1h19.5v-28.9h0.2l18.4,28.9h24.3
			L60.8,102.9z M43.4,92.2h-1.9V73.5h1.9c6.4,0,13.6,1.2,13.6,9.4C57,91,49.8,92.2,43.4,92.2"/>
		<path class="st1" d="M122.8,82.6v5c-3.8-4.5-10-6.7-15.8-6.7c-15.1,0-25.6,12.6-25.6,27.2s10.7,27.3,25.8,27.3
			c6,0,12.3-2.3,15.4-7.4h0.2v5.7h18.1V82.6H122.8z M111.7,119.6c-7.4,0-11.7-5-11.7-11.5c0-6.3,4.3-11.6,11.7-11.6
			c7.4,0,11.7,5.3,11.7,11.6C123.3,114.7,119.1,119.6,111.7,119.6"/>
	</g>
	<path class="st0" d="M246.2,118.7v15.7h-33.1v-15.7h7.4V74h-7.4V58.4h32.7c8,0,14.1,0.5,19.3,4.2c6.7,4.7,10.3,11.9,10.3,21.4
		c0,8-2.8,14.7-8.5,19.9c-5.6,5.1-12.6,6.1-22.4,6.1h-5.3v8.8H246.2z M242.8,93.5c9.2,0,13.7-2.4,13.7-9.2c0-6.4-4-8.8-12.2-8.8
		h-4.9v18H242.8z"/>
	<polygon class="st0" points="287,73.8 279.9,73.8 279.9,58.4 303.6,58.4 303.6,119 311,119 311,134.5 279.7,134.5 279.7,119 
		287,119 	"/>
	<path class="st0" d="M343.1,135.3c-16.5,0-28.8-12.6-28.8-30.3c0-17.7,12.3-30.3,28.8-30.3c7.9,0,13.6,2.5,18,8.2v-7.3h22.5v15.4
		h-6.4V119h6.4v15.5h-23.3v-6.5C356.3,133,350.7,135.3,343.1,135.3 M346.2,119.7c8.1,0,14.1-6.1,14.1-14.7s-6-14.7-14.1-14.7
		c-8.1,0-14.1,6.1-14.1,14.7S338.1,119.7,346.2,119.7"/>
	<polygon class="st0" points="423.3,91.1 423.3,75.7 450.1,75.7 450.1,91.1 445,91.1 427.2,137.6 432.4,137.6 432.4,153.1 
		405,153.1 405,137.6 410.5,137.6 411.6,134.8 395.2,91.1 390.1,91.1 390.1,75.7 417.3,75.7 417.3,91.1 412.7,91.1 420.2,114.1 
		427.9,91.1 	"/>
</g>
</svg>
