<?xml version="1.0" encoding="UTF-8" standalone="no"?>
<!-- Created with Inkscape (http://www.inkscape.org/) -->

<svg
   xmlns:dc="http://purl.org/dc/elements/1.1/"
   xmlns:cc="http://creativecommons.org/ns#"
   xmlns:rdf="http://www.w3.org/1999/02/22-rdf-syntax-ns#"
   xmlns:svg="http://www.w3.org/2000/svg"
   xmlns="http://www.w3.org/2000/svg"
   xmlns:xlink="http://www.w3.org/1999/xlink"
   xmlns:sodipodi="http://sodipodi.sourceforge.net/DTD/sodipodi-0.dtd"
   xmlns:inkscape="http://www.inkscape.org/namespaces/inkscape"
   id="svg3004"
   version="1.1"
   inkscape:version="0.48.5 r10040"
   width="1000"
   height="656.03632"
   xml:space="preserve"
   sodipodi:docname="9364536a.pdf"><metadata
     id="metadata3010"><rdf:RDF><cc:Work
         rdf:about=""><dc:format>image/svg+xml</dc:format><dc:type
           rdf:resource="http://purl.org/dc/dcmitype/StillImage" /><dc:title></dc:title></cc:Work></rdf:RDF></metadata><defs
     id="defs3008"><linearGradient
       id="linearGradient3706"><stop
         style="stop-color:#467ec5;stop-opacity:1"
         offset="0"
         id="stop3708" /><stop
         id="stop3730"
         offset="0.1"
         style="stop-color:#467ec5;stop-opacity:1" /><stop
         id="stop3728"
         offset="0.2"
         style="stop-color:#467ec5;stop-opacity:1" /><stop
         id="stop3726"
         offset="0.30000001"
         style="stop-color:#467ec5;stop-opacity:1" /><stop
         id="stop3724"
         offset="0.40000001"
         style="stop-color:#457dc3;stop-opacity:1" /><stop
         id="stop3722"
         offset="0.5"
         style="stop-color:#457bc0;stop-opacity:1" /><stop
         id="stop3720"
         offset="0.60000002"
         style="stop-color:#4477bb;stop-opacity:1" /><stop
         id="stop3718"
         offset="0.69999999"
         style="stop-color:#4268a6;stop-opacity:1" /><stop
         id="stop3716"
         offset="0.80000001"
         style="stop-color:#3e558e;stop-opacity:1" /><stop
         id="stop3714"
         offset="0.89999998"
         style="stop-color:#37396f;stop-opacity:1" /><stop
         style="stop-color:#35356d;stop-opacity:1"
         offset="1"
         id="stop3710" /></linearGradient><clipPath
       clipPathUnits="userSpaceOnUse"
       id="clipPath3020"><path
         d="m 0,680.315 481.89,0 L 481.89,0 0,0 0,680.315 z"
         id="path3022"
         inkscape:connector-curvature="0" /></clipPath><clipPath
       clipPathUnits="userSpaceOnUse"
       id="clipPath3028"><path
         d="m -14.173,-41.811 511.103,0 0,763.937 -511.103,0 0,-763.937 z"
         id="path3030"
         inkscape:connector-curvature="0" /></clipPath><clipPath
       clipPathUnits="userSpaceOnUse"
       id="clipPath3054"><path
         d="m 27.874,611.004 103.512,0 0,40.964 -103.512,0 0,-40.964 z"
         id="path3056"
         inkscape:connector-curvature="0" /></clipPath><clipPath
       clipPathUnits="userSpaceOnUse"
       id="clipPath3096"><path
         d="m -0.067688,-0.420563 1.138248,0 0,0.822495 -1.138248,0 0,-0.822495 z"
         id="path3098"
         inkscape:connector-curvature="0" /></clipPath><linearGradient
       x1="0"
       y1="0"
       x2="1"
       y2="0"
       gradientUnits="userSpaceOnUse"
       gradientTransform="matrix(16.249023,1.4216156,1.4216156,-16.249023,56.787079,619.33662)"
       spreadMethod="pad"
       id="linearGradient3100"><stop
         style="stop-opacity:1;stop-color:#0b8ed8"
         offset="0"
         id="stop3102" /><stop
         style="stop-opacity:1;stop-color:#102d5d"
         offset="0.955063"
         id="stop3104" /><stop
         style="stop-opacity:1;stop-color:#102d5d"
         offset="1"
         id="stop3106" /></linearGradient><clipPath
       clipPathUnits="userSpaceOnUse"
       id="clipPath3114"><path
         d="m 27.874,611.004 103.512,0 0,40.964 -103.512,0 0,-40.964 z"
         id="path3116"
         inkscape:connector-curvature="0" /></clipPath><clipPath
       clipPathUnits="userSpaceOnUse"
       id="clipPath3166"><path
         d="m 0,0 481.89,0 0,680.315 L 0,680.315 0,0 z"
         id="path3168"
         inkscape:connector-curvature="0" /></clipPath><clipPath
       clipPathUnits="userSpaceOnUse"
       id="clipPath3178"><path
         d="m 288.213,147.402 c 0,0 -5.103,0 -5.103,-5.103 l 0,0 0,-99.407 c 0,-0.117 0.06,-5.101 5.103,-5.101 l 0,0 160.228,0 c 0,0 5.102,0 5.102,5.103 l 0,0 0,99.405 c 0,0 0,5.103 -5.102,5.103 l 0,0 -160.228,0 z"
         id="path3180"
         inkscape:connector-curvature="0" /></clipPath><clipPath
       clipPathUnits="userSpaceOnUse"
       id="clipPath3358"><path
         d="m -0.0670624,-0.411774 1.1381524,0 0,0.822525 -1.1381524,0 0,-0.822525 z"
         id="path3360"
         inkscape:connector-curvature="0" /></clipPath><linearGradient
       x1="0"
       y1="0"
       x2="1"
       y2="0"
       gradientUnits="userSpaceOnUse"
       gradientTransform="matrix(17.697235,1.5482941,-1.5482941,17.697235,313.93175,109.53349)"
       spreadMethod="pad"
       id="linearGradient3362"><stop
         style="stop-opacity:1;stop-color:#4185cd"
         offset="0"
         id="stop3364" /><stop
         style="stop-opacity:1;stop-color:#2b366c"
         offset="0.955063"
         id="stop3366" /><stop
         style="stop-opacity:1;stop-color:#2b366c"
         offset="1"
         id="stop3368" /></linearGradient><clipPath
       clipPathUnits="userSpaceOnUse"
       id="clipPath3376"><path
         d="m 288.213,147.402 c 0,0 -5.103,0 -5.103,-5.103 l 0,0 0,-99.407 c 0,-0.117 0.06,-5.101 5.103,-5.101 l 0,0 160.228,0 c 0,0 5.102,0 5.102,5.103 l 0,0 0,99.405 c 0,0 0,5.103 -5.102,5.103 l 0,0 -160.228,0 z"
         id="path3378"
         inkscape:connector-curvature="0" /></clipPath><linearGradient
       inkscape:collect="always"
       xlink:href="#linearGradient3706"
       id="linearGradient3712"
       x1="229.24417"
       y1="1679.073"
       x2="525.40961"
       y2="1679.073"
       gradientUnits="userSpaceOnUse" /></defs><sodipodi:namedview
     pagecolor="#ffffff"
     bordercolor="#666666"
     borderopacity="1"
     objecttolerance="10"
     gridtolerance="10"
     guidetolerance="10"
     inkscape:pageopacity="0"
     inkscape:pageshadow="2"
     inkscape:window-width="993"
     inkscape:window-height="1038"
     id="namedview3006"
     showgrid="false"
     fit-margin-top="0"
     fit-margin-left="0"
     fit-margin-right="0"
     fit-margin-bottom="0"
     inkscape:zoom="0.22792291"
     inkscape:cx="752.25944"
     inkscape:cy="177.42"
     inkscape:window-x="920"
     inkscape:window-y="-21"
     inkscape:window-maximized="0"
     inkscape:current-layer="g3012"><inkscape:grid
       type="xygrid"
       id="grid3699"
       empspacing="5"
       visible="true"
       enabled="true"
       snapvisiblegridlinesonly="true"
       originx="177.00223px"
       originy="915.68776px" /></sodipodi:namedview><g
     id="g3012"
     inkscape:groupmode="layer"
     inkscape:label="9364536a"
     transform="matrix(1.25,0,0,-1.25,177.00223,-259.65142)"><path
       style="fill:url(#linearGradient3712);fill-opacity:1;stroke:none"
       d="m 488.71875,1524.75 -23.34375,9.0312 c -12.76353,30.1513 -26.32509,47.6987 -56.71875,72.2188 -7.26871,6.6043 -11.96875,11.2315 -11.96875,14.2812 0,1.7693 1.58708,2.4688 4.15625,2.4688 5.53792,0 10.4648,-2.0453 14.5625,-5.0625 -17.08328,18.7397 -50.19506,39.3619 -94.5625,49.2813 l -62.78125,8.2812 -1.46875,6.5 c 1.71575,1.2692 4.71875,3.5383 4.71875,4.5938 0,0.9892 -2.34375,1 -2.34375,1 l -0.0625,0.7812 c 7.528,2.9808 23.8125,9 23.8125,9 0,0 -0.6875,0.2713 -0.6875,1.1875 0,3.4303 10.20831,7.25 34.34375,7.25 17.01662,0 28.625,-2.75 28.625,-2.75 l 6.5,7.4375 -79.40625,26.3438 c 0,0 -6.25047,1.25 -17.875,1.25 -13.26798,0.1534 -25,-2.4688 -25,-2.4688 11.40819,4.8954 42.375,13.4688 42.375,13.4688 l 11.75,-4.3438 c 0.21029,-1.9958 30.78125,-3.7188 30.78125,-3.7188 l -1.34375,1.1876 13.46875,9.0937 34.84375,-19.375 7.71875,-3.9375 7.25,0.8438 -35.53125,27.4374 0.0625,2.3438 C 392.34413,1748.2698 407.82016,1744.6384 448,1709.1562 l 42.5625,-60.125 34.5625,-91.625 -36.40625,-32.6562 z m -13.125,37.9375 c -2.2495,7.272 -4.4547,12.8216 -8.71875,20.9687 -6.0291,10.6306 -7.72672,13.9366 -16.875,19.5938 -4.88788,2.9747 -10.45993,5.9059 -14.96875,11.0312 0,0 -0.98445,-0.7812 -1.9375,-0.7812 -1.5028,0 -3.03125,1.1562 -3.03125,1.1562 0.24991,-4.8135 2.9212,-6.3854 3.03125,-9.7812 0,-1.5112 -0.97442,-2.3499 -2.1875,-3.125 4.67594,-10.5648 14.7802,-21.0842 23.75,-31.9062 0.10343,1.5169 1.23195,3.0624 3.84375,3.0624 4.71388,0 13.87146,-6.3911 15.65625,-8.125 l 1.4375,-2.0937 z"
       transform="matrix(0.8,0,0,-0.8,0,680.315)"
       id="path3701"
       inkscape:connector-curvature="0" /><g
       id="g3082"><g
         id="g3084"><g
           id="g3090"><g
             id="g3092"><g
               id="g3094"
               clip-path="url(#clipPath3096)"><path
                 d="m 67.158,622.508 c -1.716,-1.404 -0.232,-0.994 -0.213,-0.986 l 0,0 c 0.166,0.065 0.317,0.165 0.386,0.211 l 0,0 c -1.623,-1.808 -6.255,-3.807 -9.68,-2.378 l 0,0 c -0.905,0.38 -1.526,0.602 0.206,-0.465 l 0,0 c -0.018,0 -0.037,0.006 -0.052,0.01 l 0,0 c 0.735,-0.367 1.648,-0.866 1.186,-0.886 l 0,0 c 0,-0.008 0,-0.021 -0.002,-0.032 l 0,0 -0.021,0.008 0.023,-0.013 c 0.017,-0.015 0.017,-0.015 1.269,-0.477 l 0,0 c -0.079,-0.032 -0.144,-0.305 0.904,-0.41 l 0,0 c 1.221,-0.117 2.319,0.018 3.336,0.314 l 0,0 c -2.141,-1.482 -4.624,-2.429 -7.086,-1.949 l 0,0 c 0.065,-0.023 0.154,-0.063 0.213,-0.084 l 0,0 c 0.574,-0.203 0.945,-0.276 1.511,-0.317 l 0,0 c 0,-0.026 -0.005,-0.063 -0.008,-0.099 l 0,0 c 0.399,-0.212 0.933,-0.077 1.02,-0.032 l 0,0 c 0.229,0.12 0.316,0.141 1.792,0.25 l 0,0 c -0.329,-0.269 -0.793,-0.141 -1.13,-0.375 l 0,0 c 0.011,-0.048 0.05,-0.11 0.089,-0.141 l 0,0 c 1.865,0.258 3.787,0.522 8.545,4.393 l 0,0 c 0.057,0.046 0.146,0.091 0.209,0.117 l 0,0 -0.009,-0.011 c -0.351,-0.331 -0.351,-0.331 -3.314,-2.845 l 0,0 c -0.708,-0.603 -1.733,-0.67 -2.392,-1.346 l 0,0 c 0.01,-0.027 0.02,-0.061 0.026,-0.087 l 0,0 -0.018,-0.015 0.029,0.013 c 0.166,-0.039 0.323,-0.039 0.477,-0.016 l 0,0 c -0.296,-0.12 -0.657,-0.273 -1.101,-0.471 l 0,0 c 0,-0.022 -0.024,0.018 -0.006,-0.152 l 0,0 c 0.836,0.193 2.5,0.407 3.6,1.064 l 0,0 c 1.636,0.9 4.721,3.613 6.147,6.581 l 0,0 c 0.037,0.076 0.1,0.169 0.168,0.217 l 0,0 0.002,-0.081 c 0.055,-0.102 0.055,-0.102 -0.096,-0.639 l 0,0 c 0.115,0.247 0.204,0.506 0.279,0.764 l 0,0 c 0.271,2.472 -1.359,3.383 -1.735,3.555 l 0,0 c -0.19,0.091 -0.399,0.167 -0.616,0.232 l 0,0 c 0,-0.005 -0.001,-0.005 -0.001,-0.013 l 0,0 c -0.017,0.013 -0.037,0.016 -0.053,0.026 l 0,0 c -0.35,0.1 -0.714,0.17 -1.062,0.222 l 0,0 c -0.72,-1.704 -1.648,-2.7 -2.822,-3.657 m 3.307,2.048 c 0.024,0.03 0.05,0.075 0.071,0.106 l 0,0 c -0.106,-0.375 -0.308,-0.834 -0.587,-1.343 l 0,0 c -0.068,-0.107 -0.135,-0.209 -0.209,-0.321 l 0,0 c -0.331,-0.508 -0.996,-0.62 -1.361,-1.087 l 0,0 c -0.089,0.049 -0.115,0.065 -0.261,-0.016 l 0,0 c -0.037,0.23 0.332,0.54 0.036,0.681 l 0,0 c 0.296,0.647 0.822,1.15 1.268,1.703 l 0,0 c 0.027,-0.115 0.102,-0.159 0.198,-0.159 l 0,0 c 0.303,0 0.827,0.412 0.845,0.436 m -4.718,-9.289 c 0,-0.003 -0.002,-0.003 -0.007,-0.003 l 0,0 c 0.002,0.003 0.005,0.003 0.007,0.003"
                 style="fill:url(#linearGradient3100);stroke:none"
                 id="path3108"
                 inkscape:connector-curvature="0" /></g></g></g></g></g><g
       id="g3284"
       transform="matrix(13.801739,0,0,13.801739,420.06427,-626.83012)"><path
         d="M 0,0 C 0.042,0.118 0.083,0.236 0.121,0.357 L 0.009,0.034 C 0.006,0.021 0.003,0.01 0,0"
         style="fill:#25336a;fill-opacity:1;fill-rule:nonzero;stroke:none"
         id="path3286"
         inkscape:connector-curvature="0" /></g><g
       id="g3288"
       transform="matrix(13.801739,0,0,13.801739,181.57988,-652.47803)"><path
         d="M 0,0 C -0.103,0.07 -0.212,0.124 -0.327,0.166 -0.327,0.16 -0.196,0.1 0,0"
         style="fill:#25336a;fill-opacity:1;fill-rule:nonzero;stroke:none"
         id="path3290"
         inkscape:connector-curvature="0" /></g><g
       id="g3292"
       transform="matrix(13.801739,0,0,13.801739,421.83103,-620.63604)"><path
         d="m 0,0 0.003,0.014 0.004,0.018 c 0.023,0.091 0.044,0.184 0.064,0.272 -0.752,-2.307 -2.373,-4.057 -3.37,-4.966 0.137,0.091 0.239,0.169 0.383,0.306 -0.212,-0.22 -0.276,-0.291 -0.327,-0.382 0.129,0.117 0.241,0.214 0.376,0.319 -0.037,-0.086 -0.037,-0.086 -0.843,-0.877 1.003,0.886 2.636,2.323 3.521,4.682 l 0.07,0.199 C -0.074,-0.273 -0.035,-0.134 0,0"
         style="fill:#25336a;fill-opacity:1;fill-rule:nonzero;stroke:none"
         id="path3294"
         inkscape:connector-curvature="0" /></g><g
       id="g3296"
       transform="matrix(13.801739,0,0,13.801739,419.55913,-628.28344)"><path
         d="M 0,0 -0.017,-0.044 C -0.013,-0.029 -0.004,-0.015 0,0"
         style="fill:#25336a;fill-opacity:1;fill-rule:nonzero;stroke:none"
         id="path3298"
         inkscape:connector-curvature="0" /></g><g
       id="g3300"
       transform="matrix(13.801739,0,0,13.801739,189.15979,-656.09271)"><path
         d="M 0,0 C -0.206,0.102 -0.395,0.193 -0.549,0.262 -0.369,0.16 -0.201,0.05 0,0"
         style="fill:#25336a;fill-opacity:1;fill-rule:nonzero;stroke:none"
         id="path3302"
         inkscape:connector-curvature="0" /></g><g
       id="g3304"
       transform="matrix(13.801739,0,0,13.801739,419.22512,-629.11307)"><path
         d="M 0,0 -0.005,-0.019 0.008,0.016 0.024,0.06 0.049,0.128 C 0.054,0.144 0.058,0.153 0.061,0.165 0.063,0.175 0.067,0.188 0.069,0.2 L 0,0 z"
         style="fill:#dddfe1;fill-opacity:1;fill-rule:nonzero;stroke:none"
         id="path3306"
         inkscape:connector-curvature="0" /></g><g
       id="g3308"
       transform="matrix(13.801739,0,0,13.801739,539.05044,-441.28796)"><path
         d="m 0,0 -8.337,0 -0.542,0 0,-1.613 0.542,0 3.091,0 0,-9.263 0,-0.699 2.157,0 0,0.699 0,9.263 3.089,0 0.543,0 L 0.543,0 0,0 z"
         style="fill:#5a5758;fill-opacity:1;fill-rule:nonzero;stroke:none"
         id="path3310"
         inkscape:connector-curvature="0" /></g><g
       id="g3312"
       transform="matrix(13.801739,0,0,13.801739,22.694256,-326.91847)"><path
         d="M 0,0 C 0,0.862 0.701,1.563 1.563,1.563 2.428,1.563 3.127,0.862 3.127,0 L 0,0 z m 1.542,3.352 c -2.336,0 -4.23,-1.913 -4.23,-4.279 0,-2.364 1.895,-4.282 4.23,-4.282 1.78,0 3.174,0.808 3.89,2.068 L 3.357,-2.18 C 3.09,-2.753 2.471,-3.156 1.751,-3.156 c -0.961,0 -1.743,0.715 -1.743,1.595 0,0.058 -0.021,0.036 -0.017,0.092 L 5.645,-1.47 c 0.018,0.172 0.027,0.351 0.026,0.535 C 5.71,1.833 3.877,3.352 1.542,3.352"
         style="fill:#ed1443;fill-opacity:1;fill-rule:nonzero;stroke:none"
         id="path3314"
         inkscape:connector-curvature="0" /></g><g
       id="g3316"
       transform="matrix(13.801739,0,0,13.801739,-20.560534,-270.2154)"><path
         d="m 0,0 c 0,2.089 -1.727,3.783 -3.857,3.783 -0.065,0 -0.364,-0.003 -0.427,-0.005 l -4.486,0 0,-12.809 2.723,0 0,10.6 1.623,0.014 c 1.007,0 1.77,-0.752 1.77,-1.676 0,-0.926 -0.816,-1.678 -1.821,-1.678 l -0.629,-0.013 0,-3.049 2.719,-4.198 3.209,0 -3.762,5.352 C -1.25,-3.273 0,-1.781 0,0"
         style="fill:#ed1443;fill-opacity:1;fill-rule:nonzero;stroke:none"
         id="path3318"
         inkscape:connector-curvature="0" /></g><g
       id="g3320"
       transform="matrix(13.801739,0,0,13.801739,180.49092,-367.7799)"><path
         d="m 0,0 c -1.036,0 -1.88,0.918 -1.88,2.057 0,1.136 0.844,2.057 1.88,2.057 1.038,0 1.877,-0.921 1.877,-2.057 C 1.877,0.918 1.038,0 0,0 M 1.847,5.238 C 1.165,5.91 0.261,6.32 -0.727,6.32 c -2.112,0 -3.824,-1.876 -3.824,-4.187 0,-2.311 1.712,-4.186 3.824,-4.186 1,0 1.903,0.425 2.583,1.111 l 0,-1.032 2.543,0 0,13.571 -2.552,0 0,-6.359 z"
         style="fill:#ed1443;fill-opacity:1;fill-rule:nonzero;stroke:none"
         id="path3322"
         inkscape:connector-curvature="0" /></g><path
       d="m 623.07953,-395.11976 35.3187,0 0,185.99223 -35.3187,0 0,-185.99223 z"
       style="fill:#ed1443;fill-opacity:1;fill-rule:nonzero;stroke:none"
       id="path3324"
       inkscape:connector-curvature="0" /><g
       id="g3326"
       transform="matrix(13.801739,0,0,13.801739,509.14759,-350.43111)"><path
         d="m 0,0 c 0,-0.769 -0.655,-1.391 -1.462,-1.391 -0.808,0 -1.463,0.622 -1.463,1.391 l 0,4.616 -2.54,0 0,-5.106 c 0,-1.729 1.788,-3.127 3.995,-3.127 2.203,0 3.993,1.398 3.993,3.127 l 0,5.106 L 0,4.616 0,0 z"
         style="fill:#ed1443;fill-opacity:1;fill-rule:nonzero;stroke:none"
         id="path3328"
         inkscape:connector-curvature="0" /></g><path
       d="m 563.35944,-395.11976 35.33249,0 0,185.99223 -35.33249,0 0,-185.99223 z"
       style="fill:#ed1443;fill-opacity:1;fill-rule:nonzero;stroke:none"
       id="path3330"
       inkscape:connector-curvature="0" /><g
       id="g3332"
       transform="matrix(13.801739,0,0,13.801739,360.9459,-364.16398)"><path
         d="m 0,0 -2.449,0 0,8.311 1.707,0 c 0.75,0 1.359,-0.61 1.359,-1.357 0,-0.752 -0.609,-1.358 -1.359,-1.358 l -0.89,0 0,-2.303 1.632,0 C 0.909,3.293 1.596,2.56 1.596,1.65 1.563,0.712 0.988,0.063 0,0 m 2.139,4.752 c 0.703,0.65 1.129,1.527 1.129,2.488 0,0.872 -0.333,1.672 -0.92,2.303 -0.61,0.67 -1.691,0.967 -3.151,0.967 l -4.372,0 0,-12.744 5.649,0 c 2.162,0.037 3.907,1.679 3.907,3.684 0,1.458 -0.513,2.501 -2.242,3.302"
         style="fill:#ed1443;fill-opacity:1;fill-rule:nonzero;stroke:none"
         id="path3334"
         inkscape:connector-curvature="0" /></g><g
       id="g3336"
       transform="matrix(13.801739,0,0,13.801739,206.13856,-455.3823)"><path
         d="m 0,0 c -1.465,-0.535 -3.289,-1.476 -4.83,-2.876 -0.439,-0.4 -0.855,-0.777 -1.571,-1.101 l 0,0.005 c -0.076,-0.177 -0.171,-0.419 -0.247,-0.592 -0.137,-0.372 -0.207,-0.568 -0.278,-0.815 0,-0.017 0.008,-0.042 0.017,-0.062 0.111,-0.011 0.323,0.11 1.108,0.588 1.423,0.867 2.084,1.255 3.38,1.87 -0.104,-0.378 -0.271,-0.602 -0.696,-0.941 -0.119,-0.079 -0.274,-0.191 -0.4,-0.258 -0.462,-0.267 -0.947,-0.486 -1.412,-0.748 -0.545,-0.312 -1.068,-0.663 -1.616,-0.968 -0.048,-0.027 -0.117,-0.063 -0.166,-0.092 -0.216,-0.1 -0.342,-0.046 -0.331,0.155 0,0.011 10e-4,0.024 0.004,0.04 -0.028,-0.109 -0.056,-0.225 -0.092,-0.363 -0.207,-0.917 -0.245,-1.701 -0.278,-2.328 -10e-4,-1.952 0.383,-3.089 0.403,-3.133 0.003,-0.02 0.016,-0.041 0.022,-0.06 0.042,-0.008 0.09,-0.018 0.132,-0.027 0.116,-0.54 0.13,-0.598 0.218,-0.849 0.234,-0.17 0.143,-0.468 0.287,-0.672 0.073,0.028 0.175,0.05 0.255,0.05 l -0.119,-0.04 c 0.119,-0.047 0.278,-0.085 0.398,-0.114 -0.014,-0.435 -0.014,-0.435 0.046,-0.535 0.035,0.023 0.082,0.056 0.118,0.08 0.671,-0.145 0.671,-0.145 1.013,0.139 l 0.278,0.239 c -0.282,-0.328 -0.282,-0.328 -0.255,-0.568 0.203,-0.03 0.203,-0.03 4.261,2.798 l -0.004,0.003 c 1.809,1.023 3.527,2.206 5.321,3.255 -1.347,-0.4 -2.513,-1.185 -3.79,-1.729 -0.413,-0.241 -0.785,-0.46 -1.131,-0.659 -0.006,0.008 -0.015,0.016 -0.022,0.023 -0.008,0.016 -0.055,0.12 -0.087,0.133 -0.019,10e-4 -0.036,10e-4 -0.053,10e-4 -0.021,0 -0.042,0 -0.066,0.008 -0.076,0.027 -0.204,0.047 -0.285,0.027 -0.02,-0.004 -0.05,-0.024 -0.066,-0.035 -0.04,-0.016 -0.062,-0.029 -0.101,-0.049 -0.039,-0.009 -0.066,-0.04 -0.107,-0.049 -0.041,-0.014 -0.092,-0.008 -0.14,0 l -0.071,0 c -0.015,0 -0.119,-0.008 -0.131,0 -0.027,0.031 0.014,0.098 0.025,0.121 0.012,0.024 0.018,0.054 0.024,0.082 0.006,0.018 0.015,0.029 0.036,0.03 0.015,0.021 0.015,0.03 0.025,0.054 0.032,0.072 0.121,0.138 0.185,0.184 0.083,0.059 0.179,0.123 0.264,0.179 0.098,0.062 0.201,0.152 0.313,0.182 0.038,0.01 0.083,0.01 0.122,0.019 0.049,0.017 0.047,0.033 0.069,0.077 0.012,0.023 0.027,0.027 0.021,0.053 0,0.012 -0.138,0.071 -0.159,0.076 0.005,0.004 0.011,0.01 0.016,0.012 -0.006,-0.006 -0.015,-0.008 -0.023,-0.012 -0.045,0.006 -0.028,0.007 -0.067,-0.005 -0.049,-0.022 -0.091,-0.037 -0.135,-0.068 -0.05,-0.038 -0.105,-0.059 -0.157,-0.09 -0.037,-0.034 -0.059,-0.064 -0.082,-0.098 -0.15,-0.097 -0.298,-0.186 -0.444,-0.282 -0.008,-0.004 -0.019,-0.009 -0.032,-0.009 -0.037,-0.01 -0.066,-0.005 -0.098,-0.014 -0.098,-0.02 -0.2,-0.062 -0.295,-0.09 -0.066,-0.016 -0.16,-0.027 -0.217,-0.075 -0.025,-0.021 -0.042,-0.044 -0.066,-0.07 -0.041,-0.047 -0.112,-0.096 -0.164,-0.125 -0.064,-0.036 -0.102,-0.029 -0.173,-0.029 l -0.042,0 c -0.029,-0.002 -0.054,-0.007 -0.077,0.002 -0.007,0.002 -0.011,0.002 -0.018,-0.002 -0.009,0.002 -0.009,0.002 -0.022,0.021 -10e-4,0.01 0,0.042 0.008,0.052 0.021,0.037 0.067,0.052 0.08,0.102 -0.034,0.042 -0.185,0.018 -0.238,0 -0.114,-0.029 -0.217,-0.068 -0.322,-0.118 -0.086,-0.042 -0.177,-0.057 -0.263,-0.099 -0.115,-0.053 -0.186,-0.014 -0.307,0.01 -0.002,0.041 -0.002,0.061 0.018,0.091 0.016,0.026 0.05,0.05 0.067,0.076 0.006,0.008 0.014,0.021 0.014,0.031 0.042,0.043 0.086,0.095 0.129,0.138 0.088,0.089 0.218,0.153 0.311,0.231 0.113,0.102 0.22,0.208 0.328,0.314 0.018,0.018 0.04,0.031 0.059,0.052 0.015,-0.004 0.028,0 0.038,0.015 0.02,0.018 0.016,0.049 0.034,0.07 0.011,0.003 0.022,0.015 0.03,0.023 0.05,0.048 0.101,0.081 0.155,0.117 0.029,0.012 0.046,0.033 0.062,0.052 0.008,0.024 0.008,0.075 -0.006,0.096 -0.036,0 -0.056,-0.054 -0.074,-0.072 -0.043,-0.047 -0.105,-0.065 -0.162,-0.099 -0.145,-0.067 -0.33,-0.145 -0.496,-0.15 -0.046,-0.003 -0.097,-0.003 -0.144,0.002 -0.026,10e-4 -0.058,10e-4 -0.083,10e-4 -0.004,0 -0.124,-0.009 -0.136,0 -0.026,0.038 0.056,0.147 0.073,0.167 0.032,0.046 0.068,0.092 0.103,0.134 0.018,0.02 0.032,0.046 0.043,0.071 0.02,0.019 0.004,0.011 0.041,0.03 0.112,0.065 0.219,0.131 0.324,0.201 0.022,0.016 0.046,0.037 0.073,0.04 0.024,0.006 0.041,0 0.063,0.012 0.027,0.016 0.055,0.045 0.08,0.062 0.123,0.081 0.273,0.135 0.407,0.205 0.18,0.1 0.33,0.237 0.518,0.325 0.057,0.033 0.116,0.061 0.178,0.083 0.042,0.013 0.08,0.019 0.119,0.043 0.082,0.063 0.171,0.11 0.267,0.156 0.095,0.045 0.201,0.078 0.294,0.128 0.028,0.016 0.047,0.04 0.072,0.056 0.025,0.009 0.051,0.015 0.076,0.018 0.044,0.026 0.09,0.047 0.133,0.069 0.037,0.021 0.104,0.051 0.143,0.063 0.053,0.021 0.09,0.036 0.136,0.065 0.047,0.02 0.064,0.036 0.085,0.085 0.009,0.024 0.031,0.074 0.009,0.099 -0.078,0.006 -0.164,-0.04 -0.233,-0.073 -0.073,-0.029 -0.147,-0.05 -0.217,-0.081 -0.04,-0.015 -0.073,-0.04 -0.107,-0.063 -0.021,-0.008 -0.037,-0.005 -0.054,-0.003 -0.009,-0.002 -0.018,-0.002 -0.029,0 -0.03,0 -0.063,-0.008 -0.093,-0.025 -0.046,-0.007 -0.093,-0.024 -0.139,-0.038 -0.089,-0.03 -0.184,-0.083 -0.265,-0.136 -0.105,-0.057 -0.204,-0.126 -0.317,-0.173 -0.13,-0.065 -0.268,-0.139 -0.409,-0.178 -0.109,-0.03 -0.218,-0.066 -0.32,-0.101 -0.068,-0.024 -0.137,-0.042 -0.2,-0.069 -0.034,-0.013 -0.037,-0.027 -0.062,-0.047 -0.036,-0.032 -0.078,-0.051 -0.129,-0.065 -0.128,-0.049 -0.256,-0.103 -0.383,-0.149 -0.043,-0.007 -0.075,-0.034 -0.119,-0.038 -0.052,-0.008 -0.113,-0.003 -0.173,0 -0.033,0 -0.071,0.003 -0.102,0 -0.078,0.004 -0.127,0.012 -0.202,0.044 -0.005,0.002 -0.027,0.007 -0.052,0.021 0.342,0.238 0.692,0.466 1.053,0.685 0.388,0.234 0.786,0.459 1.191,0.667 0.43,0.232 0.863,0.445 1.305,0.652 0.456,0.22 0.921,0.421 1.386,0.619 0.473,0.2 0.953,0.387 1.438,0.57 0.481,0.182 0.966,0.351 1.457,0.513 0.475,0.152 0.961,0.304 1.445,0.442 0.464,0.133 0.93,0.251 1.4,0.36 0.442,0.103 0.881,0.195 1.328,0.273 0.204,0.036 0.408,0.067 0.611,0.095 0.055,0.007 0.106,0.011 0.157,0.023 0.031,0.004 0.065,0.02 0.094,0.032 L 9.308,-3.35 c 0.098,0.013 0.193,0.026 0.288,0.038 0.089,-0.003 0.178,-0.003 0.265,-0.01 0.037,-0.002 0.238,0.019 0.241,-0.055 0.008,-0.045 -0.05,-0.038 -0.078,-0.046 -0.04,-0.018 -0.078,-0.036 -0.114,-0.052 0.105,0.005 0.209,0.003 0.314,0.003 0.058,-10e-4 0.11,-10e-4 0.166,-10e-4 0.02,0 0.097,0.011 0.1,-0.02 C 10.487,-3.512 10.481,-3.517 10.457,-3.517 10.41,-3.554 10.359,-3.586 10.309,-3.618 10.254,-3.653 10.213,-3.666 10.146,-3.684 10.029,-3.713 9.915,-3.751 9.8,-3.778 9.631,-3.817 9.454,-3.85 9.284,-3.866 9.242,-3.87 9.188,-3.858 9.206,-3.924 c 0.036,-0.008 0.07,-0.008 0.107,-0.004 0.139,0 0.275,-0.004 0.416,-0.004 0.071,0 0.147,-0.007 0.214,0.008 0.052,0.011 0.098,0.016 0.149,0.011 0.06,-0.005 0.123,-0.023 0.184,-0.037 C 9.552,-4.019 8.767,-4.137 8.033,-4.333 7.431,-4.499 7.313,-4.509 7.016,-4.49 c 0.049,0.065 0.118,0.152 0.174,0.209 -0.368,0.055 -2.565,-0.704 -2.714,-1.094 0.006,0 0.012,0 0.018,0.004 C 4.468,-5.433 4.503,-5.448 4.555,-5.467 4.699,-5.498 4.845,-5.51 4.992,-5.504 5.169,-5.51 5.343,-5.51 5.516,-5.506 5.649,-5.51 5.783,-5.51 5.915,-5.51 c 0.249,0 0.498,-0.019 0.747,0.035 0.201,0.048 0.402,0.125 0.598,0.191 0.195,0.058 0.388,0.134 0.584,0.185 0.044,0.016 0.091,0.026 0.137,0.041 0.02,0.004 0.072,0.037 0.095,0.037 C 8.123,-5.02 8.13,-5.046 8.115,-5.083 8.071,-5.156 7.849,-5.202 7.791,-5.221 7.693,-5.257 7.588,-5.291 7.489,-5.334 c 0.003,-0.092 0.139,-0.075 0.242,-0.065 0.039,0.008 0.076,0.016 0.095,0.018 0.009,-0.002 0.02,0.002 0.038,0.002 0.02,0 0.045,0.004 0.06,0 C 7.962,-5.402 7.943,-5.487 7.932,-5.518 7.916,-5.56 7.884,-5.597 7.862,-5.63 7.828,-5.676 7.802,-5.699 7.745,-5.725 7.735,-5.806 8.253,-5.76 8.301,-5.752 c 0.089,0.018 0.193,0.085 0.285,0.097 0.033,0.006 0.06,-0.002 0.099,0.007 0.054,0.015 0.092,0.021 0.145,0.027 0.057,0.01 0.107,0.038 0.168,0.044 0.041,0.005 0.081,0 0.119,-0.001 0.04,0.001 0.083,-0.005 0.128,0 0.102,0.006 0.202,0.055 0.305,0.068 0.026,0.004 0.048,0.004 0.074,0.004 0.026,0 0.051,0 0.074,0.002 0.088,0.014 0.178,0.027 0.26,0.043 0.114,0.028 0.227,0.043 0.34,0.059 0.156,0.031 0.331,0.006 0.489,0.003 0.147,-0.003 0.292,-0.055 0.435,-0.07 0.173,-0.023 -0.031,-0.136 -0.091,-0.17 C 10.93,-5.764 10.706,-5.876 10.484,-5.96 10.335,-6.023 10.213,-6.065 10.049,-6.058 9.961,-6.056 9.894,-6.063 9.808,-6.093 9.755,-6.111 9.707,-6.129 9.652,-6.137 9.605,-6.138 9.557,-6.132 9.507,-6.132 9.44,-6.132 9.363,-6.12 9.294,-6.128 9.262,-6.137 9.245,-6.147 9.207,-6.155 9.184,-6.153 9.158,-6.153 9.139,-6.15 9.088,-6.147 9.04,-6.147 8.992,-6.167 8.941,-6.188 8.94,-6.204 8.881,-6.208 l -0.064,0 C 8.767,-6.204 8.715,-6.204 8.664,-6.223 8.542,-6.277 8.415,-6.278 8.285,-6.281 8.268,-6.28 8.256,-6.278 8.239,-6.28 8.23,-6.288 8.22,-6.294 8.21,-6.304 8.13,-6.338 8.045,-6.365 7.964,-6.39 7.784,-6.461 7.618,-6.561 7.428,-6.615 7.382,-6.628 7.358,-6.623 7.317,-6.633 7.203,-6.659 7.08,-6.701 6.969,-6.729 6.919,-6.752 6.859,-6.766 6.808,-6.781 6.714,-6.805 6.653,-6.853 6.567,-6.891 6.525,-6.913 6.481,-6.928 6.44,-6.952 6.37,-6.987 6.307,-7.004 6.23,-7.014 6.164,-7.023 6.108,-7.042 6.044,-7.053 5.978,-7.064 5.959,-7.108 5.911,-7.139 5.869,-7.167 5.813,-7.157 5.77,-7.181 5.682,-7.23 5.596,-7.28 5.507,-7.328 5.464,-7.348 5.427,-7.364 5.389,-7.381 5.336,-7.412 5.265,-7.442 5.221,-7.488 5.185,-7.528 5.185,-7.624 5.196,-7.683 c -0.003,0 -0.006,-0.003 -0.011,-0.003 0.005,0 0.008,0.003 0.011,0.003 C 5.199,-7.694 5.2,-7.7 5.2,-7.708 5.309,-7.74 5.407,-7.736 5.524,-7.717 c 0.04,0.004 0.084,0.01 0.124,0.023 0.059,0.014 0.107,0.016 0.165,0.024 0.108,0.009 0.205,0.068 0.306,0.11 0.015,0.005 0.03,0.016 0.042,0.024 1.318,0.294 2.561,0.909 3.934,1.004 0.024,0 2.295,0.103 3.824,-0.608 0.475,-0.219 2.771,-1.503 1.589,-5.248 l 0.112,0.324 c 0.269,0.898 0.346,1.37 0.422,1.897 l 0.006,0.049 c 0.102,0.932 0.099,1.112 0.076,2.1 -0.106,1.397 -0.223,1.863 -0.536,2.928 l -0.041,0.071 c -0.044,0.118 0.367,1.13 -1.871,3.367 -0.955,0.904 -2.329,0.976 -3.412,1.633 0.158,0.055 0.158,0.055 0.387,0.009 C 9.743,0.561 8.634,0.43 7.671,0.8 7.791,0.9 7.855,0.959 8.16,0.946 8.153,0.982 8.143,1.039 8.137,1.075 9.582,1.247 10.609,0.942 11.336,0.551 11.245,0.618 11.155,0.687 11.064,0.762 11.277,0.666 11.382,0.615 11.714,0.375 L 11.745,0.347 11.66,0.419 C 10.191,1.538 8.082,2.962 1.588,0.341 L 1.097,0.507 C 1.093,0.517 0.547,0.205 0.543,0.212 m 7.505,-4.798 c -0.028,0 -0.057,0 -0.086,0.001 0.423,0.077 0.805,0.136 1.15,0.175 C 9.014,-4.439 8.915,-4.475 8.82,-4.508 8.786,-4.518 8.703,-4.521 8.664,-4.542 8.66,-4.557 8.648,-4.569 8.628,-4.571 8.632,-4.569 8.574,-4.585 8.574,-4.585 8.474,-4.601 8.367,-4.588 8.261,-4.588 c -0.053,0 -0.108,0.002 -0.165,0.002 -0.014,0 -0.032,-10e-4 -0.048,0 M 7.753,-4.626 C 7.735,-4.629 7.716,-4.633 7.698,-4.641 7.667,-4.646 7.634,-4.652 7.602,-4.652 c 0.049,0.011 0.101,0.019 0.151,0.026 M 5.235,-5.182 C 5.215,-5.193 5.196,-5.2 5.168,-5.2 l -0.003,0 c 0.022,0.006 0.048,0.011 0.07,0.018 m -4.913,-5.367 0.014,0.006 c -0.263,-0.145 -0.614,-0.342 -0.875,-0.494 0.255,0.152 0.603,0.347 0.861,0.488 m 5.892,4.565 C 6.117,-6.023 6.057,-6.05 5.976,-6.104 5.983,-6.105 5.992,-6.106 6,-6.109 c 0.138,-0.023 0.138,-0.023 0.693,0.187 0.012,0.006 0.03,0.011 0.042,0.018 -0.246,-0.017 -0.369,-0.033 -0.521,-0.08 m 9.22,-6.623 0.054,0.146 c 0.009,0.026 0.015,0.045 0.02,0.073 l -0.074,-0.219 z"
         style="fill:#fcd205;fill-opacity:1;fill-rule:nonzero;stroke:none"
         id="path3338"
         inkscape:connector-curvature="0" /></g><g
       id="g3340"
       transform="matrix(13.801739,0,0,13.801739,398.06016,-469.48892)"><path
         d="M 0,0 C -0.005,0.008 -0.014,0.016 -0.02,0.025 -0.014,0.016 -0.011,0.012 -0.004,0.004 -0.002,0.002 -0.001,0 0,0 m -17.781,1.141 c -0.018,-0.023 -0.039,-0.044 -0.06,-0.06 l 0.015,0.013 c 0.013,0.015 0.03,0.029 0.045,0.047 m 10.827,2.718 c -0.298,0.038 -0.86,0.1 -1.622,0.112 -0.029,0 -0.073,10e-4 -0.101,10e-4 0.935,0.026 1.609,-0.03 2.323,-0.187 -0.224,0.036 -0.33,0.047 -0.6,0.074 m -4.235,-4.761 0.013,-0.001 c -0.302,-0.037 -0.707,-0.105 -1.007,-0.15 0.297,0.051 0.695,0.11 0.994,0.151 M 2.397,-6.226 c -0.147,1.341 -0.23,1.627 -0.526,2.698 l -0.178,0.503 c -0.432,1.139 -0.906,1.869 -1.364,2.578 -0.146,0.209 -0.154,0.22 -0.333,0.451 -0.007,0.006 -0.013,0.015 -0.02,0.021 l 0.004,0 c -0.692,0.864 -0.995,1.116 -1.753,1.761 0.137,-0.087 0.137,-0.087 0.33,-0.239 l -0.085,0.077 c -1.95,1.69 -3.89,2.215 -6.203,2.482 0.247,0.04 2.545,-0.036 4.796,-1.433 -2.189,1.372 -4.222,1.652 -5.31,1.741 -0.26,0.011 -0.56,0.023 -0.901,0.023 -0.985,0.007 -2.325,-0.173 -4.082,-0.734 l 0.007,0.007 c 0,0 -1.121,-0.339 -2.161,-0.837 -0.027,-0.015 -0.055,-0.026 -0.079,-0.038 L -15.503,2.814 C -15.579,2.776 -15.648,2.741 -15.717,2.706 -15.731,2.699 -15.742,2.692 -15.756,2.685 -15.801,2.66 -15.847,2.635 -15.891,2.609 -15.995,2.551 -16.098,2.492 -16.194,2.43 l 0.002,0 C -16.266,2.384 -16.339,2.339 -16.415,2.29 L -16.58,2.172 c -0.13,-0.101 -0.304,-0.236 -0.434,-0.341 -0.283,-0.232 -0.292,-0.242 -0.767,-0.69 0.803,0.737 3.061,2.037 6.695,2.445 -0.175,-0.147 -0.383,-0.226 -0.917,-0.361 -1.889,-0.431 -4.739,-1.085 -6.049,-2.362 -0.006,-0.006 -0.016,-0.017 -0.022,-0.02 -0.136,-0.14 -0.252,-0.279 -0.601,-0.693 -0.328,-0.404 -0.347,-0.435 -0.827,-1.161 l -0.236,-0.396 c -0.011,-0.038 -0.021,-0.094 -0.03,-0.134 0.035,-0.006 0.08,-0.01 0.112,-0.014 -0.272,-1.116 -0.272,-1.116 -0.274,-1.122 0.429,0.35 0.429,0.35 0.449,0.363 -0.253,-0.575 -0.253,-0.575 -0.297,-0.728 0.003,0 0.005,0.008 0.007,0.008 -0.041,-0.103 -0.09,-0.244 -0.12,-0.349 0.027,-0.034 0.062,-0.082 0.085,-0.114 0.206,0.132 0.376,0.309 0.597,0.421 l -0.255,-0.179 c 0.174,0.075 0.414,0.169 0.592,0.237 -0.178,-0.231 -0.362,-0.443 -0.537,-0.673 0.182,0.11 0.345,0.253 0.546,0.339 0.023,-0.023 0.056,-0.055 0.078,-0.078 0.271,0.035 0.431,0.121 1.198,0.568 l 0.465,0.267 c -0.48,-0.305 -0.545,-0.344 -0.676,-0.564 0.172,0.016 0.172,0.016 1.137,0.475 1.268,0.589 2.088,0.912 4.574,1.497 l -0.007,0.003 c 3.636,0.6 3.636,0.6 6.099,0.524 -0.884,0.178 -0.884,0.178 -4.033,0.136 -3.245,-0.361 -4.541,-0.853 -5.099,-1.063 -0.916,-0.352 -0.939,-0.343 -1.109,-0.317 0.788,0.583 4.406,1.845 5.338,1.977 -0.024,0 -2.893,-0.409 -4.506,-1.244 -0.916,-0.467 -2.004,-0.787 -2.008,-0.788 0.416,0.388 0.892,0.713 1.267,1.138 -0.368,0.092 -0.368,0.092 -1.009,-0.054 2.502,3.178 16.248,4.045 18.635,-2.329 -0.148,0.216 -1.498,2.115 -3.868,3.116 -0.586,0.248 -0.605,0.269 -0.723,0.384 0.032,0.01 0.071,0.031 0.106,0.047 -0.312,0.18 -1.912,0.676 -2.545,0.555 2.276,-0.571 5.817,-2.245 5.724,-3.136 -0.96,0.321 -1.661,1.089 -2.609,1.433 1.07,-0.586 2.864,-1.567 3.146,-2.52 C 0.682,-3.343 0.635,-3.371 0.605,-3.392 0.498,-3.324 0.362,-3.224 0.266,-3.141 0.264,-3.149 0.26,-3.152 0.26,-3.158 c -0.215,0.233 -1.474,1.215 -2.304,1.571 -1.173,0.499 -2.457,0.606 -3.671,0.975 1.319,-0.51 2.757,-0.685 4,-1.392 1.485,-0.834 2.592,-2.322 2.606,-2.336 1.973,-2.666 1.193,-5.391 0.903,-6.409 L 1.55,-11.4 l 0.258,0.678 c 0.28,0.857 0.304,0.999 0.504,2.066 0.131,1.107 0.124,1.335 0.085,2.43 m -6.18,5.937 c -0.203,0.096 -0.319,0.146 -0.463,0.182 -0.082,0.024 -0.147,0.033 -0.242,0.039 0.002,0 0.011,-0.006 0.017,-0.01 0.097,-0.057 0.097,-0.057 0.65,-0.203 0.011,-0.004 0.027,-0.008 0.038,-0.008 m -14.291,1.131 0,0.001 c 0.003,0.001 0.004,0.003 0.006,0.006 l -0.006,-0.007 z m 15.156,1.82 c -0.007,0.005 -0.014,0.007 -0.017,0.011 l 0,-0.002 0.017,-0.009 z m 2.987,-2.745 c -0.011,0.011 -0.022,0.024 -0.03,0.034 0.005,-0.007 0.008,-0.011 0.014,-0.019 l 0.016,-0.015 z m -18.137,0.932 0.227,0.232 c -0.098,-0.098 -0.164,-0.166 -0.227,-0.232"
         style="fill:#f68712;fill-opacity:1;fill-rule:nonzero;stroke:none"
         id="path3342"
         inkscape:connector-curvature="0" /></g><g
       id="g3344"><g
         id="g3346"><g
           id="g3352"><g
             id="g3354"><g
               id="g3356"
               clip-path="url(#clipPath3358)"><path
                 d="m 325.253,112.82 c -1.873,-1.529 -0.25,-1.083 -0.23,-1.074 l 0,0 c 0.179,0.07 0.343,0.175 0.418,0.227 l 0,0 c -1.767,-1.966 -6.811,-4.147 -10.544,-2.59 l 0,0 c -0.986,0.413 -1.66,0.66 0.224,-0.507 l 0,0 c -0.02,0 -0.039,0.007 -0.057,0.013 l 0,0 c 0.802,-0.402 1.797,-0.946 1.293,-0.964 l 0,0 c 0,-0.009 0,-0.025 -0.002,-0.038 l 0,0 -0.022,0.009 0.024,-0.013 c 0.018,-0.014 0.018,-0.014 1.382,-0.522 l 0,0 c -0.087,-0.032 -0.158,-0.328 0.983,-0.444 l 0,0 c 1.331,-0.129 2.528,0.021 3.635,0.341 l 0,0 c -2.331,-1.619 -5.039,-2.647 -7.718,-2.124 l 0,0 c 0.068,-0.025 0.167,-0.064 0.236,-0.092 l 0,0 c 0.623,-0.217 1.025,-0.299 1.643,-0.345 l 0,0 c -0.003,-0.031 -0.006,-0.07 -0.007,-0.11 l 0,0 c 0.435,-0.228 1.013,-0.083 1.108,-0.031 l 0,0 c 0.249,0.128 0.344,0.153 1.949,0.27 l 0,0 c -0.356,-0.292 -0.857,-0.154 -1.227,-0.409 l 0,0 c 0.01,-0.048 0.053,-0.119 0.098,-0.148 l 0,0 c 2.028,0.276 4.121,0.561 9.307,4.781 l 0,0 c 0.065,0.051 0.155,0.099 0.227,0.129 l 0,0 -0.012,-0.013 c -0.379,-0.36 -0.379,-0.36 -3.61,-3.101 l 0,0 c -0.771,-0.653 -1.885,-0.727 -2.605,-1.466 l 0,0 c 0.009,-0.029 0.023,-0.065 0.03,-0.095 l 0,0 -0.023,-0.016 0.033,0.01 c 0.175,-0.04 0.342,-0.04 0.5,-0.017 l 0,0 c -0.315,-0.129 -0.703,-0.293 -1.179,-0.506 l 0,0 c 0,-0.027 -0.025,0.016 -0.009,-0.169 l 0,0 c 0.915,0.211 2.729,0.444 3.925,1.161 l 0,0 c 1.78,0.978 5.138,3.935 6.699,7.171 l 0,0 c 0.037,0.082 0.106,0.185 0.176,0.236 l 0,0 0.005,-0.086 c 0.057,-0.116 0.057,-0.116 -0.106,-0.7 l 0,0 c 0.127,0.273 0.223,0.551 0.304,0.835 l 0,0 c 0.296,2.689 -1.479,3.68 -1.886,3.868 l 0,0 c -0.214,0.097 -0.44,0.181 -0.674,0.249 l 0,0 c 0,-0.002 -0.002,-0.004 -0.002,-0.007 l 0,0 c -0.015,0.01 -0.037,0.016 -0.055,0.026 l 0,0 c -0.385,0.107 -0.779,0.187 -1.157,0.239 l 0,0 c -0.783,-1.853 -1.798,-2.938 -3.074,-3.978 m 3.603,2.229 c 0.025,0.034 0.052,0.081 0.072,0.12 l 0,0 c -0.11,-0.414 -0.331,-0.917 -0.638,-1.472 l 0,0 c -0.072,-0.111 -0.145,-0.225 -0.222,-0.343 l 0,0 c -0.365,-0.554 -1.085,-0.675 -1.486,-1.187 l 0,0 c -0.095,0.055 -0.124,0.073 -0.283,-0.014 l 0,0 c -0.04,0.247 0.36,0.587 0.039,0.739 l 0,0 c 0.323,0.704 0.896,1.251 1.379,1.854 l 0,0 c 0.029,-0.126 0.111,-0.173 0.218,-0.173 l 0,0 c 0.33,0 0.901,0.449 0.921,0.476 m -5.138,-10.123 -0.002,0 -0.002,0 0.004,0 z"
                 style="fill:url(#linearGradient3362);stroke:none"
                 id="path3370"
                 inkscape:connector-curvature="0" /></g></g></g></g></g><g
       id="g3380"
       transform="matrix(13.801739,0,0,13.801739,411.96403,-564.12758)"><path
         d="m 0,0 c -0.454,-1.805 -0.999,-2.639 -1.799,-3.858 -0.447,-0.68 -1.332,-0.834 -1.824,-1.456 -0.116,0.063 -0.152,0.084 -0.345,-0.022 -0.051,0.305 0.44,0.72 0.051,0.909 0.655,1.432 2.144,2.328 2.603,3.89 -0.177,-0.222 -0.305,-0.482 -0.483,-0.707 0.202,0.689 0.512,1.34 0.662,2.043 -0.033,0.015 -0.07,0.028 -0.104,0.043 C -1.28,0.772 -1.33,0.68 -1.4,0.553 -2.369,-1.836 -3.641,-3.205 -5.25,-4.52 c -2.297,-1.878 -0.309,-1.326 -0.285,-1.318 0.224,0.09 0.418,0.221 0.516,0.279 -2.739,-3.046 -11.901,-6.512 -16.115,-0.602 0.041,-0.058 0.088,-0.146 0.128,-0.207 1.022,-1.554 1.022,-1.554 3.334,-2.984 -0.432,0.072 -0.741,0.409 -1.147,0.536 0.006,-0.012 0.992,-1.297 3.938,-1.633 3.142,-0.362 4.034,-0.121 4.978,0.138 0.807,0.218 1.532,0.294 1.535,0.294 l -0.015,-0.008 c -2.321,-0.709 -2.321,-0.709 -4.912,-0.872 -0.503,-0.032 -0.986,0.073 -1.469,0.184 -0.46,0.102 -0.92,0.207 -1.394,0.192 0,-0.01 0,-0.029 -0.003,-0.041 l -0.029,0.003 0.032,-0.01 c 0.024,-0.022 0.024,-0.022 1.693,-0.643 -0.104,-0.038 -0.598,-0.107 -2.651,0.774 0.018,-0.013 2.461,-1.178 3.858,-1.316 4.579,-0.448 7.871,1.768 11.057,3.913 0,-0.014 -0.006,-0.036 -0.007,-0.054 0.039,-0.006 0.088,-0.013 0.129,-0.018 -0.024,-0.07 -0.024,-0.07 -0.369,-0.48 0.752,0.605 1.136,1.547 1.933,2.118 -0.07,-0.333 -2.554,-4.329 -8.089,-5.612 0.268,0.036 0.352,0.051 0.644,0.127 -0.38,-0.109 -0.39,-0.118 -0.552,-0.171 0.1,0.014 0.1,0.014 0.618,0.117 -0.301,-0.148 -0.652,-0.219 -1.493,-0.389 4.791,0.828 8.306,3.552 9.892,7.678 0.217,0.716 0.306,1.008 0.393,1.46 C 1.048,-1.552 0.541,-0.586 0,0"
         style="fill:#102d5d;fill-opacity:1;fill-rule:nonzero;stroke:none"
         id="path3382"
         inkscape:connector-curvature="0" /></g><g
       id="g3384"
       transform="matrix(13.801739,0,0,13.801739,147.96312,-631.70503)"
       style="fill:#ffffff"><path
         d="m 0,0 c -0.115,-0.143 -0.289,-0.186 -0.445,-0.466 -0.317,0.125 -0.372,0.541 -0.431,0.722 0.254,0.047 0.85,0.161 1.162,0.209 C 0.158,0.301 0.067,0.191 0,0 m 7.515,-1.307 c -0.316,0.18 -0.508,0.457 -0.637,0.68 -0.056,0.096 -0.108,0.195 -0.159,0.29 l -0.06,0.112 C 6.596,-0.107 6.517,0.028 6.427,0.148 6.393,0.191 6.35,0.238 6.306,0.284 L 6.177,0.419 C 6.139,0.463 6.1,0.502 6.069,0.542 6.038,0.582 6.015,0.617 6.005,0.643 5.442,2.079 5.31,2.893 5.106,4.324 5.001,5.059 4.55,5.655 3.819,6.551 3.728,6.66 3.627,6.79 3.518,6.93 3.444,7.028 3.365,7.126 3.288,7.228 3.047,7.529 2.851,7.753 2.698,7.901 2.436,8.124 2.204,8.319 1.993,8.497 1.696,8.748 1.444,8.961 1.213,9.154 0.773,9.514 0.436,9.766 0.047,10.03 -0.495,10.397 -1.077,10.581 -1.678,10.581 -2.293,10.58 -2.745,10.382 -2.898,10.276 -3.415,9.922 -3.806,9.703 -4.245,9.522 -4.561,9.389 -4.892,9.282 -5.311,9.144 -5.445,9.1 -5.589,9.053 -5.743,9.002 -6.219,8.841 -6.556,8.567 -6.795,8.342 -6.853,8.287 -6.908,8.235 -6.96,8.184 -7.019,8.125 -7.073,8.072 -7.126,8.025 -7.236,7.925 -7.311,7.873 -7.377,7.847 -7.451,7.822 -7.566,7.804 -7.735,7.793 -7.822,7.787 -7.912,7.784 -8.001,7.78 -8.064,7.775 -8.129,7.771 -8.189,7.769 -8.734,7.738 -9.171,7.43 -9.454,7.2 -9.601,7.08 -9.737,6.957 -9.868,6.835 L -9.931,6.777 c -0.167,-0.149 -0.284,-0.251 -0.398,-0.324 -0.387,-0.251 -0.752,-0.288 -1.155,-0.328 -0.205,-0.019 -0.42,-0.04 -0.647,-0.089 -0.273,-0.056 -0.53,-0.144 -0.787,-0.263 -0.29,-0.138 -0.582,-0.312 -0.947,-0.567 -0.156,-0.108 -0.313,-0.22 -0.466,-0.333 -0.134,-0.098 -0.269,-0.198 -0.403,-0.292 -0.603,-0.423 -1.12,-0.703 -1.681,-0.703 -0.555,-0.003 -0.948,0.321 -1.002,0.824 -0.048,0.441 0.178,0.888 0.636,1.261 l 0.251,0.201 c 0.188,0.151 0.365,0.292 0.522,0.429 0.267,0.229 0.447,0.413 0.587,0.595 0.344,0.452 0.433,0.919 0.283,1.511 -0.133,0.533 -0.543,0.895 -1.253,1.107 -0.252,0.077 -0.509,0.12 -0.751,0.16 l -0.083,0.015 c -0.074,0.011 -0.141,0.02 -0.2,0.032 -0.077,0.014 -0.132,0.028 -0.163,0.042 -0.385,0.17 -1.221,0.73 -1.388,0.841 l -0.069,0.044 -0.046,-0.066 c -0.152,-0.22 -0.272,-0.394 -0.363,-1.154 -0.099,-0.842 0.593,-1.869 1.786,-2.055 0.066,-0.011 0.121,-0.059 0.14,-0.126 0.016,-0.064 -0.007,-0.133 -0.06,-0.175 -1.262,-0.994 -1.529,-1.419 -1.596,-2.535 -0.041,-0.689 0.203,-1.368 0.665,-1.861 0.507,-0.536 1.241,-0.818 2.123,-0.818 0.235,0 0.484,0.022 0.737,0.059 0.009,0.004 0.018,0.004 0.028,0.004 0.037,0 0.076,-0.013 0.104,-0.037 0.037,-0.028 0.062,-0.073 0.064,-0.119 0.059,-0.776 0.2,-1.405 0.376,-1.685 0.044,-0.071 0.033,-0.161 -0.028,-0.217 -0.053,-0.05 -0.139,-0.099 -0.247,-0.143 -0.27,-0.103 -0.678,-0.17 -1.085,-0.17 -0.254,-0.001 -0.443,-0.175 -0.596,-0.552 -0.049,-0.12 -0.089,-0.252 -0.128,-0.375 l -0.01,-0.036 c -0.022,-0.064 -0.039,-0.122 -0.059,-0.176 -0.018,-0.047 -0.036,-0.092 -0.055,-0.128 -0.051,-0.089 -0.126,-0.18 -0.23,-0.274 -0.032,-0.026 -0.071,-0.041 -0.113,-0.041 -0.008,0 -0.019,0.002 -0.028,0.002 -0.05,0.01 -0.095,0.04 -0.12,0.085 -0.125,0.224 -0.321,0.367 -0.583,0.423 l -0.007,0.002 -0.026,0 c -0.386,0 -1.056,-0.328 -1.301,-0.944 -0.025,-0.055 -0.077,-0.098 -0.14,-0.103 l -0.031,-0.006 c -0.307,-0.033 -0.502,-0.174 -0.611,-0.449 -0.046,-0.118 -0.076,-0.249 -0.096,-0.361 l -0.017,-0.086 c -0.017,-0.093 -0.035,-0.192 -0.058,-0.284 -0.021,-0.075 -0.047,-0.139 -0.087,-0.213 -0.02,-0.037 -0.04,-0.07 -0.058,-0.102 -0.014,-0.023 -0.029,-0.044 -0.042,-0.067 -0.068,-0.128 -0.103,-0.259 -0.047,-0.477 0.024,-0.099 0.105,-0.189 0.236,-0.259 0.099,-0.054 0.223,-0.098 0.375,-0.136 0.271,-0.068 0.535,-0.085 0.587,-0.085 0.037,0 0.075,0.011 0.11,0.03 0.026,0.014 0.05,0.034 0.078,0.055 0.03,0.026 0.074,0.038 0.112,0.038 0.009,0 0.019,0 0.026,-0.001 l 0.126,-0.024 c 0.102,-0.019 0.231,-0.045 0.359,-0.072 l 0.02,-0.004 c 0.125,-0.023 0.245,-0.047 0.342,-0.066 0.053,-0.009 0.1,-0.017 0.135,-0.025 0.04,-0.004 0.07,-0.006 0.088,-0.005 l 0.002,-0.001 c 0.533,0.027 0.758,0.234 0.905,0.432 0.044,0.059 0.082,0.116 0.119,0.178 l 0.06,0.104 0.045,0.078 c 0.044,0.072 0.087,0.141 0.134,0.206 0.033,0.045 0.084,0.069 0.138,0.069 0.014,0 0.028,0 0.043,-0.004 0.061,-0.016 0.122,-0.028 0.174,-0.038 0.123,-0.019 0.238,-0.031 0.285,-0.034 0.035,0 0.068,-0.004 0.102,-0.004 0.506,0 0.883,0.282 1.193,0.549 l 0.102,0.085 c 0.05,0.042 0.095,0.081 0.142,0.12 0.061,0.054 0.142,0.12 0.228,0.174 0.153,0.102 0.279,0.15 0.405,0.149 l 0.031,-10e-4 c 0.122,-0.006 0.576,-0.04 1.35,-0.159 0.033,-0.008 0.067,-0.011 0.1,-0.011 0.175,0 0.397,0.063 0.662,0.179 0.19,0.087 0.407,0.204 0.627,0.341 0.048,0.032 0.104,0.059 0.174,0.091 l 0.017,0.007 c 0.064,0.028 0.133,0.06 0.202,0.094 0.126,0.064 0.311,0.174 0.461,0.363 0.089,0.111 0.208,0.342 0.323,0.578 l 0.126,0.258 c 0.07,0.143 0.144,0.295 0.217,0.445 0.03,0.058 0.089,0.093 0.154,0.095 l 0.001,-0.002 0.046,0 c 0.24,0 0.526,0.038 0.776,0.073 0.11,0.018 0.218,0.033 0.321,0.05 0.231,0.037 0.429,0.069 0.576,0.076 0.036,0 0.133,-0.007 0.269,-0.018 l 0.307,-0.02 c 0.385,-0.021 0.701,-0.034 0.963,-0.03 0.155,0 0.291,0.003 0.407,0.011 0.205,0.014 0.394,0.045 0.547,0.093 0.042,0.012 0.089,0.028 0.135,0.046 0.022,0.01 0.045,0.014 0.069,0.016 0.042,0 0.085,-0.017 0.118,-0.049 0.083,-0.081 0.173,-0.166 0.263,-0.245 0.055,-0.043 0.074,-0.115 0.051,-0.18 -0.022,-0.065 -0.08,-0.11 -0.148,-0.116 -0.033,-0.001 -0.068,-0.005 -0.099,-0.01 -0.107,-0.016 -0.306,-0.058 -0.402,-0.186 -0.034,-0.044 -0.083,-0.065 -0.135,-0.065 -0.022,0 -0.046,0.004 -0.068,0.013 -0.023,0.01 -0.047,0.019 -0.072,0.025 -0.051,0.015 -0.102,0.018 -0.144,0.018 l -0.021,0 -0.058,0 -0.087,-0.002 -0.047,0 c -0.154,0 -0.513,0.002 -0.823,-0.05 -0.192,-0.032 -0.343,-0.078 -0.451,-0.141 -0.102,-0.055 -0.22,-0.161 -0.21,-0.332 0.018,-0.32 0.468,-1.183 0.774,-1.486 0.059,-0.062 0.26,-0.123 0.483,-0.123 0.023,0 0.048,0.002 0.071,0.003 l 0.012,0 c 0.064,0 0.121,-0.036 0.15,-0.092 0.314,-0.618 0.857,-1.032 1.351,-1.032 l 0.032,0.002 c 0.471,0.017 1.743,0.476 2.634,0.901 0.013,0.003 0.024,0.006 0.036,0.009 0.029,0.007 0.062,0.011 0.097,0.018 0.053,0.007 0.112,0.014 0.176,0.021 l 0.089,0.009 c 0.197,0.025 0.42,0.058 0.583,0.134 0.151,0.075 0.37,0.357 0.556,0.719 0.032,0.058 0.09,0.092 0.152,0.092 l 0.015,0 c 0.069,-0.008 0.126,-0.055 0.145,-0.121 0.023,-0.072 0.05,-0.138 0.082,-0.195 0.152,-0.287 0.424,-0.432 0.807,-0.43 0.021,0 0.041,0 0.063,10e-4 0.264,0.01 0.553,0.097 0.805,0.18 l 0.142,0.047 c 0.217,0.074 0.42,0.142 0.61,0.174 0.068,0.013 0.145,0.019 0.234,0.021 0.041,0 0.085,-0.002 0.129,-0.003 0.08,-0.005 0.161,-0.012 0.243,-0.019 0.054,-0.003 0.109,-0.008 0.164,-0.01 0.078,-0.006 0.16,-0.011 0.245,-0.01 0.235,-10e-4 0.416,0.034 0.579,0.112 0.236,0.098 0.423,0.231 0.544,0.319 l 0.045,0.033 c 0.03,0.023 0.065,0.03 0.098,0.033 0.042,-0.003 0.081,-0.016 0.114,-0.043 0.334,-0.298 1.052,-0.794 2.111,-0.792 l 0.108,0 c 0.251,0.009 0.448,0.092 0.554,0.238 0.071,0.093 0.094,0.209 0.064,0.322 -0.013,0.046 -0.004,0.096 0.021,0.135 0.025,0.04 0.067,0.068 0.115,0.075 0.17,0.032 0.312,0.094 0.415,0.184 0.094,0.084 0.155,0.203 0.156,0.308 0,0.07 -0.025,0.129 -0.079,0.181 -0.116,0.107 -0.182,0.147 -0.519,0.334"
         style="fill:#ffffff;fill-opacity:1;fill-rule:nonzero;stroke:none"
         id="path3386"
         inkscape:connector-curvature="0" /></g><path
       inkscape:connector-curvature="0"
       id="path3390"
       style="fill:#ed1443;fill-opacity:1;fill-rule:nonzero;stroke:none"
       d="m 210.11636,-610.68636 c -0.0138,-0.0828 -0.40026,-1.11795 -0.40026,-1.11795 -0.0138,-0.0966 -0.35884,-1.20075 -0.35884,-1.20075 -0.38645,-1.07653 -0.97992,-1.65621 -1.93224,-1.87703 -0.56588,-0.16562 -1.06274,-0.0828 -1.46299,0.22082 -0.42785,0.31744 -0.67628,0.82811 -0.67628,1.40778 l -0.069,1.20075 -0.44166,4.15433 c -0.31744,1.91844 -0.89711,3.43663 -1.79422,4.69259 -0.0276,0.0138 -1.80803,2.11166 -1.80803,2.11166 -0.0828,0.069 -2.08406,2.3325 -2.08406,2.3325 -1.5872,1.601 -3.02258,2.33249 -4.49937,2.4015 -1.18695,-0.35884 -2.22208,-1.11794 -3.38143,-2.3601 l -1.40777,-1.79422 -1.28357,-1.71142 c -0.45545,-0.75909 -1.49058,-0.31744 -1.51819,-0.31744 0,0 -0.069,0.0552 -0.16562,0.0828 -0.0414,0.0828 -0.069,0.20703 -0.069,0.20703 -0.31744,0.8143 -0.45545,1.601 -0.44165,2.31869 0,1.29736 0.37264,2.47051 0.77289,3.42283 l 1.10414,2.27729 1.24216,2.63613 0.20703,0.24843 c 0.34504,0.35885 0.71769,1.00753 1.11794,2.11167 l 0.35884,0.95232 0.71769,1.86323 c 1.14555,2.41531 2.78795,3.06399 5.23086,2.04266 1.91844,-1.02133 3.09159,-2.63613 3.9749,-4.07151 l 0.60728,-1.02133 0.7729,-1.24216 1.5872,-2.02885 c 4.38895,-4.88582 6.51442,-9.53701 6.51442,-14.32621 0,-1.15935 -0.13802,-2.3877 -0.41405,-3.61605 m -16.54829,-36.94726 c 0,0 -0.0414,-0.069 -0.0414,-0.069 -0.0414,0 -0.12422,0 -0.12422,0 -2.49812,-0.8005 -5.35508,-1.13174 -8.44666,-0.96612 l -0.16563,0.0276 c 0.0138,0 -0.56587,0.23463 -0.56587,0.23463 l -0.59347,0.37265 c -0.30364,0.26223 -0.7591,0.74529 -0.49686,1.53199 1.17314,3.50564 4.63738,7.59096 9.05394,8.50187 0.11041,0 0.35884,0.0276 0.35884,0.0276 l 0.63488,-0.0276 0.97993,-0.12421 c 0.48306,-0.15182 1.28356,-0.52447 1.49058,-1.69762 0.0966,-0.62107 0.12422,-1.38017 0.12422,-2.11166 0,-2.05646 -0.41405,-4.33375 -2.20828,-5.70012 m -51.71512,89.32485 c -0.15182,0.0414 -0.33124,0.0828 -0.33124,0.0828 0,0 -0.0276,-0.0828 -0.0552,-0.13802 -0.0414,-0.0276 -0.0552,-0.0966 -0.0552,-0.0966 -0.41405,-0.37265 -1.09034,-0.64869 -1.78043,-0.19323 0,0 -0.0966,0.0552 -0.17942,0.11042 -0.0138,0.0966 -0.0552,0.23462 -0.0552,0.23462 -1.03513,5.39648 -2.26348,11.0966 -4.43035,16.41027 0,0 -1.25596,2.16688 -1.25596,2.16688 l -0.49686,0.67628 -1.06274,1.5596 c -0.88331,1.33877 -1.69761,3.202 -0.56587,5.36887 l 0.12422,0.20703 c 0.97992,0.96612 2.71894,1.06273 3.91969,0.60728 l 0.15182,-0.0828 c 2.31869,-1.5596 3.80928,-4.22334 4.89962,-6.14178 1.36637,-3.202 2.08406,-7.1631 2.08406,-11.30362 0,-3.1606 -0.41405,-6.3626 -1.24216,-9.38518 0,0 0.17942,-0.0414 0.33124,-0.0828 m 106.41141,-95.35621 c -8.11542,4.72019 -11.37263,13.67752 -16.41027,20.71641 -1.76662,2.60853 -4.88581,4.26474 -6.50061,6.81806 -5.83814,15.83059 -10.84817,31.64739 -12.36636,49.81048 -1.24216,4.49936 -2.15307,9.06774 -4.60978,13.30487 -7.32873,11.8833 -16.83813,22.73147 -26.03008,33.67625 -0.84191,0.8143 -0.84191,0.92471 -2.59473,2.58092 l -32.11665,26.63736 c -3.9611,2.98117 -8.41906,4.88581 -12.87702,6.91467 -6.80426,2.56712 -16.01002,2.00125 -22.62105,-0.84191 -6.91467,-3.64366 -13.153064,-8.95733 -20.440384,-11.40023 -10.55833,-4.7616 -22.46923,-5.72773 -31.56457,-13.82935 -5.27227,-4.60978 -9.75783,-11.77288 -17.62482,-10.58593 -8.77791,0.40025 -16.6449,-2.84316 -23.24213,-8.29485 -5.98996,-5.38267 -11.6762703,-11.80048 -19.40525033,-13.29107 -6.76284997,-2.85696 -15.01628967,-1.47679 -21.91715967,-4.08532 -10.97238,-2.69133 -19.65368,-11.38643 -28.96985,-18.03887 -9.34378,-5.41028 -18.2873,-11.23461 -29.93597,-10.98618 -7.60476,0.53826 -14.90588,5.79673 -17.34879,13.09785 -2.318686,8.43286 0.24843,17.07275 6.88707,22.77287 6.88707,8.28104 17.87325,13.16686 23.28353,22.64865 2.81556,5.02383 2.41531,13.13926 -1.35257,17.91466 -7.2045,7.42533 -17.5144,7.67376 -26.84438,9.95105 -5.976146,1.65621 -10.585926,6.23839 -15.858196,9.06774 -2.02885,-3.09159 -2.69134,-6.48681 -2.4429,-10.26849 1.09033,-8.52947 7.60475,-16.25845 15.733976,-19.22582 4.72019,-2.04266 10.17188,-0.55207 15.04389,-1.61481 1.36638,-0.55206 2.70514,-1.91844 2.84316,-3.40902 -0.27603,-1.32497 -0.40025,-2.69134 -1.6148,-3.64366 -7.57716,-6.37641 -15.56836,-12.46297 -21.930966,-20.31616 -6.76285,-7.34253 -7.56335,-20.19195 -4.0301,-29.42531 3.90589,-10.53073 14.905876,-17.473 25.478006,-18.81177 7.70137,-1.21455 14.62984,0.8281 21.66873,2.34629 0.93852,0 1.35257,-0.97992 1.76662,-1.50439 0.67629,-6.22458 -0.27603,-11.77288 1.09034,-17.4868 1.21455,-5.27226 2.98117,-8.91592 4.89962,-14.07777 0.26223,-1.73902 0,-3.64366 -1.21456,-5.02384 -3.9473,-2.96737 -8.01881,-4.99623 -12.35255,-6.91467 l -10.55833,-0.66248 -2.01506,-0.97992 c -3.91969,-4.62359 -4.04391,-9.34378 -6.47301,-14.51943 -3.25721,-5.39648 -9.23337,-8.00501 -14.229596,-11.1104 -1.601,-2.56713 -3.38142,-5.28607 -5.68631,-7.31493 -1.75282,-1.5872 -3.9059,-2.07026 -6.22459,-2.29108 -3.64366,-4.20953 -4.45796,-10.04767 -5.41028,-15.74779 5.96235,-0.53827 12.20074,-3.78167 18.025066,-0.53827 5.01003,2.30489 6.08657,8.40526 9.86824,12.09033 2.98118,3.24341 7.46675,0.8143 10.98619,0.11041 5.28607,-0.23463 9.08154,3.54705 13.53951,5.34127 3.10539,2.00126 5.64491,5.5483 8.91592,7.57716 6.25219,2.99498 14.91968,1.39397 21.4341,0.15182 5.12044,-1.32497 10.54453,-0.51067 15.03009,1.49059 4.18193,2.60852 8.11543,5.85193 12.8356197,6.92847 4.19573,2.18067 6.23838997,6.91467 7.99120997,10.84817 1.36637003,3.67126 4.89961003,6.50061 4.62358003,10.73775 -1.10414,0.92472 -2.30489,2.99498 -3.9611,2.80175 -2.04266003,-2.80175 -3.53324,-5.78293 -5.81053,-8.52947 -9.7992397,-13.37389 -17.4867997,-14.64365 -37.3751097,-14.67125 -14.78166,0.55207 -28.04513,-3.9611 -38.18941,-15.47175 -0.67629,-0.42785 -1.64241,-0.13802 -2.18068,0.41405 -0.37264,1.6148 0.96612,4.33375 1.62861,5.5483 9.05394,12.87702 23.15932,15.8444 38.06519,16.14803 8.11543,0.55207 15.8444,1.90464 22.74527,5.43789 7.71517,3.91969 12.9874397,10.08907 16.2584497,17.65242 1.73902,8.54328 2.4015,17.73524 4.56837,25.86446 0.27604,0.84191 2.29109,1.43538 2.93977,1.15935 0.84191,-0.15182 2.47052,-0.86951 2.48432,-1.80803 -1.51819,-8.40526 -4.19573,-18.3011 -0.92472,-26.40273 6.4868203,-8.54327 18.5633403,-3.90589 27.3550503,-3.50564 9.21956,0.81431 16.63109,0.12422 25.4228,-0.41405 4.33375,0.11041 7.54955,-0.95232 10.93098,1.76662 0.93852,1.50439 1.32497,3.53325 1.04893,5.14805 -0.27603,2.42911 -2.33249,3.90589 -0.0138,5.93475 0.69009,0.55207 2.70514,0.22083 3.24341,-0.48306 1.22835,-3.36763 1.78042,-7.03889 3.9473,-10.02006 4.34754,-5.57591 10.71014,-9.89585 16.6725,-13.02885 5.65871,-3.91969 10.434114,-9.45419 10.848164,-16.38266 0.0138,-3.51944 -3.25721,-5.92095 -5.962354,-7.57715 -4.60978,-2.30489 -9.59221,-4.19573 -15.04389,-3.65746 -7.17691,3.49184 -9.06775,11.06899 -13.81554,16.63109 -2.44291,2.70514 -6.10037,3.22961 -9.75783,2.98118 -3.9473,-0.41406 -7.85319,-0.56588 -11.37264,-1.78043 -0.93852,-0.7867 -1.21455,-2.05646 -1.09033,-3.25721 2.4429,-4.45796 5.16185,-8.79171 7.86699,-13.24967 3.13299,-1.91844 7.46674,1.06274 10.15808,-2.29109 2.31869,-3.56085 3.82308,-7.72897 7.32872,-10.44791 3.38143,-2.93977 8.55708,-4.33375 13.01504,-2.44291 10.00626,3.13299 20.053934,6.41781 29.397704,11.44164 l 3.1054,0 c 3.78167,0.37265 7.9774,0.15182 10.69634,2.99498 2.96738,4.30614 5.42409,8.37765 7.70137,13.00124 2.30489,3.10539 1.24216,7.85319 0.27604,11.22081 -4.62358,5.72772 -7.21831,12.07652 -9.64742,18.60474 -2.30489,0.70389 -4.31994,2.01506 -6.90087,1.89084 -1.22835,-0.52446 -2.98117,-0.27603 -3.65746,-1.601 l 10.71015,-21.18567 c 0.67629,-1.6286 1.50439,-3.9611 1.10414,-6.10037 -1.50439,-4.48556 -3.79548,-8.80551 -7.45294,-12.07652 -0.66248,-0.38645 -1.49059,-0.7729 -2.01505,0.15182 1.21455,4.59598 3.36762,9.61981 3.09159,14.90588 l -10.44792,18.85317 c -1.20075,2.55333 -3.38142,4.87202 -3.25721,7.85319 -0.0276,1.36638 1.22836,2.3187 2.30489,2.84316 4.59598,1.47679 10.14428,1.24216 13.66372,4.89962 4.62359,7.1631 5.5621,14.21579 6.79046,22.74527 0.26223,0.53826 1.33877,1.57339 2.16687,1.57339 0.8143,0.30364 1.72522,-0.88331 2.13927,-1.31116 1.35257,-9.31618 -0.51066,-18.78417 -5.94855,-26.12669 -0.24843,-0.95232 -0.66248,-2.16688 0.41405,-2.82936 5.14805,-1.65621 10.57214,0 14.90588,2.30489 5.5759,-0.12422 10.68255,1.21455 15.69258,2.02886 0.56587,-0.24844 1.11794,-0.81431 1.11794,-1.36638 -3.39523,-3.78167 -5.29987,-7.9636 -6.22458,-12.86322 -4.05772,-4.22333 -9.89585,-7.88079 -10.2961,-13.96736 0.67628,-2.98117 3.27101,-0.13801 5.02383,-0.42785 0.8143,-0.11042 1.33877,-0.8005 1.33877,-1.6148 l -4.04391,-5.94855 c -2.18067,-3.54705 0.40025,-7.60476 0.40025,-10.97239 0.95232,-2.73274 4.20953,-4.07151 7.05269,-4.07151 6.12797,0.24843 11.52445,2.58093 16.94854,4.48557 5.94854,2.59472 13.37388,2.4291 19.8883,1.38017 6.3764,0.38645 11.1242,4.60978 15.8306,8.83311 2.60852,-0.0276 4.91341,-1.78042 6.65243,-3.67126 7.31493,-7.85319 16.82432,-11.23462 27.52067,-10.93098 l 0.92472,0.52447 c 0.69009,0.69009 0.42785,1.90464 -0.41405,2.4291 l -6.335,3.24341 c -4.47177,2.85696 -10.03387,6.63864 -11.52445,11.63487 -1.38018,4.49937 -3.82309,9.35758 -6.51443,13.69132 -0.96612,2.20828 -3.13299,3.9335 -4.07151,6.12798 0.23463,0.27603 0.53827,0.67628 0.93852,0.53826 7.06649,-2.4153 11.24842,-9.35757 14.49183,-15.60976 5.18945,-7.1493 12.61479,-13.24967 22.38642,-11.64867 l 0.8005,0.71769 c 0.41405,0.52447 0.28983,1.22835 0,1.601 l -4.88582,2.44291 z" /><g
       id="g3392"
       transform="matrix(13.801739,0,0,13.801739,-111.37721,-669.02066)"><path
         d="M 0,0 C 0.305,0.178 0.5,0.512 0.659,0.796 0.628,0.903 0.521,0.983 0.432,1.061 0.373,1.11 0.285,1.07 0.216,1.051 -0.001,0.864 -0.225,0.718 -0.46,0.569 -0.56,0.501 -0.519,0.354 -0.54,0.246 -0.54,0.148 -0.422,0.078 -0.363,0.02 -0.254,-0.029 -0.117,-0.038 0,0"
         style="fill:#e21948;fill-opacity:1;fill-rule:nonzero;stroke:none"
         id="path3394"
         inkscape:connector-curvature="0" /></g><g
       id="g3396"
       transform="matrix(13.801739,0,0,13.801739,-125.5861,-669.42105)"><path
         d="m 0,0 c -0.157,-0.079 -0.324,-0.227 -0.363,-0.403 -0.049,-0.315 0.021,-0.608 -0.224,-0.836 -0.009,-0.059 -0.072,-0.128 -0.009,-0.188 0.214,-0.066 0.42,-0.155 0.684,-0.184 0.119,0.384 0.206,0.806 0.345,1.139 l 0,0.097 C 0.315,-0.227 0.196,-0.039 0,0"
         style="fill:#e21948;fill-opacity:1;fill-rule:nonzero;stroke:none"
         id="path3398"
         inkscape:connector-curvature="0" /></g><g
       id="g3400"
       transform="matrix(13.801739,0,0,13.801739,79.894326,-654.88919)"><path
         d="m 0,0 c 0.196,-0.217 0.187,-0.548 0.413,-0.716 0.294,-0.05 0.557,0.068 0.785,0.245 0.128,0.109 -0.059,0.246 -0.079,0.375 C 0.991,0.087 1.079,0.463 0.766,0.472 0.45,0.424 0.136,0.413 -0.177,0.411 L -0.266,0.351 C -0.324,0.167 -0.049,0.167 0,0"
         style="fill:#e21948;fill-opacity:1;fill-rule:nonzero;stroke:none"
         id="path3402"
         inkscape:connector-curvature="0" /></g><g
       id="g3404"
       transform="matrix(13.801739,0,0,13.801739,522.33102,-600.98788)"><path
         d="M 0,0 0.001,0.002 C -0.001,0.002 -0.002,0 0,0"
         style="fill:#5a5758;fill-opacity:1;fill-rule:nonzero;stroke:none"
         id="path3406"
         inkscape:connector-curvature="0" /></g><g
       id="g3408"
       transform="matrix(13.801739,0,0,13.801739,633.75933,-464.09533)"><path
         d="M 0,0 0,0 C -0.302,1.432 -1.543,1.566 -2,1.576 -2.231,1.58 -2.317,1.492 -2.317,1.492 c -0.055,-0.09 0.12,-0.207 0.204,-0.257 1.229,-0.733 0.269,-2.868 -0.932,-4.745 -1.767,-2.432 -2.646,-3.529 -2.646,-3.529 -0.215,-0.296 -0.388,-0.188 -0.388,0.238 l 0,5.881 0,-0.05 -1.994,0 0,0.05 0,-7.853 0,-0.367 c 0,-0.425 0.484,-0.777 0.837,-0.777 l 0.68,0 c 0.61,0 0.975,0.314 1.16,0.593 l 4.75,7.071 C -0.467,-1.993 0.267,-0.963 0,0"
         style="fill:#5a5758;fill-opacity:1;fill-rule:nonzero;stroke:none"
         id="path3410"
         inkscape:connector-curvature="0" /></g></g></svg>