<?xml version="1.0" encoding="UTF-8" standalone="no"?>
<svg
   xmlns:dc="http://purl.org/dc/elements/1.1/"
   xmlns:cc="http://creativecommons.org/ns#"
   xmlns:rdf="http://www.w3.org/1999/02/22-rdf-syntax-ns#"
   xmlns:svg="http://www.w3.org/2000/svg"
   xmlns="http://www.w3.org/2000/svg"
   xmlns:xlink="http://www.w3.org/1999/xlink"
   xmlns:sodipodi="http://sodipodi.sourceforge.net/DTD/sodipodi-0.dtd"
   xmlns:inkscape="http://www.inkscape.org/namespaces/inkscape"
   inkscape:version="1.0 (4035a4f, 2020-05-01)"
   sodipodi:docname="TIMVISION_white.svg"
   id="svg1494"
   version="1.1"
   viewBox="0 0 185 85"
   height="85px"
   width="185px">
  <metadata
     id="metadata1498">
    <rdf:RDF>
      <cc:Work
         rdf:about="">
        <dc:format>image/svg+xml</dc:format>
        <dc:type
           rdf:resource="http://purl.org/dc/dcmitype/StillImage" />
        <dc:title>TIMVISION</dc:title>
      </cc:Work>
    </rdf:RDF>
  </metadata>
  <sodipodi:namedview
     inkscape:pagecheckerboard="true"
     inkscape:current-layer="svg1494"
     inkscape:window-maximized="1"
     inkscape:window-y="25"
     inkscape:window-x="0"
     inkscape:cy="188.80831"
     inkscape:cx="118.29314"
     inkscape:zoom="0.50836011"
     showgrid="false"
     id="namedview1496"
     inkscape:window-height="793"
     inkscape:window-width="1440"
     inkscape:pageshadow="2"
     inkscape:pageopacity="0"
     guidetolerance="10"
     gridtolerance="10"
     objecttolerance="10"
     borderopacity="1"
     bordercolor="#666666"
     pagecolor="#ffffff" />
  <title
     id="title1431">TIMVISION</title>
  <defs
     id="defs1439">
    <polygon
       points="0 0 100.441 0 100.441 56.894 0 56.894"
       id="path-1" />
    <polygon
       points="0 0 100.441 0 100.441 56.894 0 56.894"
       id="path-3" />
    <polygon
       points="0 0 36.736 0 36.736 14.143 0 14.143"
       id="path-5" />
    <polygon
       points="0 0 36.736 0 36.736 14.143 0 14.143"
       id="path-7" />
    <polygon
       points="0 0 36.736 0 36.736 14.143 0 14.143"
       id="path-9" />
    <polygon
       points="0 0 36.736 0 36.736 14.143 0 14.143"
       id="path-11" />
  </defs>
  <g
     style="fill:#004c97;fill-opacity:1"
     fill-rule="evenodd"
     fill="none"
     stroke-width="1"
     stroke="none"
     id="Page-1">
    <g
       style="fill:#004c97;fill-opacity:1"
       transform="translate(0.000000, 0.798000)"
       id="TIMVISION">
      <g
         style="fill:#004c97;fill-opacity:1"
         transform="translate(84.155000, 0.044000)"
         id="Group-4">
        <g
           style="fill:#004c97;fill-opacity:1"
           id="Fill-1-Clipped">
          <mask
             fill="white"
             id="mask-2">
            <use
               id="use1441"
               xlink:href="#path-1" />
          </mask>
          <g
             style="fill:#004c97;fill-opacity:1"
             id="g1444" />
          <path
             style="fill:#004c97;fill-opacity:1"
             mask="url(#mask-2)"
             fill-rule="nonzero"
             fill="#FFFFFF"
             id="Fill-1"
             d="M17.225,56.814 C16.224,56.763 15.606,56.656 15.369,56.498 C15.131,56.34 15.013,56.024 15.013,55.55 L15.013,10.747 L1.58,10.747 C1.106,10.747 0.776,10.655 0.592,10.47 C0.407,10.286 0.262,9.838 0.158,9.126 C0.051,8.415 0,7.269 0,5.689 L0,4.899 C0,3.319 0.04,2.2 0.118,1.541 C0.197,0.883 0.341,0.462 0.553,0.276 C0.762,0.093 1.106,0 1.58,0 L42.038,0 C42.511,0 42.853,0.093 43.065,0.276 C43.274,0.462 43.42,0.883 43.499,1.541 C43.578,2.2 43.618,3.319 43.618,4.899 L43.618,5.61 C43.618,7.244 43.565,8.415 43.459,9.126 C43.353,9.838 43.208,10.286 43.025,10.47 C42.839,10.655 42.511,10.747 42.038,10.747 L28.604,10.747 L28.604,55.55 C28.604,55.973 28.472,56.274 28.209,56.459 C27.945,56.644 27.3,56.763 26.273,56.814 C25.246,56.867 23.942,56.894 22.362,56.894 L21.255,56.894 C19.569,56.894 18.226,56.867 17.225,56.814" />
        </g>
        <g
           style="fill:#004c97;fill-opacity:1"
           id="Fill-3-Clipped">
          <mask
             fill="white"
             id="mask-4">
            <use
               id="use1448"
               xlink:href="#path-3" />
          </mask>
          <g
             style="fill:#004c97;fill-opacity:1"
             id="g1451" />
          <path
             style="fill:#004c97;fill-opacity:1"
             mask="url(#mask-4)"
             fill-rule="nonzero"
             fill="#FFFFFF"
             id="Fill-3"
             d="M67.284,56.34 C66.94,56.13 66.691,55.761 66.533,55.234 L47.805,1.422 C47.594,0.896 47.832,0.527 48.516,0.316 C49.201,0.106 50.781,0 53.257,0 L54.916,0 C57.077,0 58.604,0.027 59.499,0.079 C60.395,0.132 61.001,0.264 61.318,0.474 C61.633,0.685 61.871,1.027 62.029,1.501 L69.693,26.787 C71.695,33.373 73.301,39.378 74.513,44.804 C75.04,42.17 75.764,39.141 76.686,35.716 C77.608,32.292 78.464,29.29 79.254,26.708 L87.235,1.501 C87.393,1.027 87.63,0.685 87.947,0.474 C88.262,0.264 88.828,0.132 89.645,0.079 C90.461,0.027 91.819,0 93.714,0 L93.873,0 C95.979,0 97.494,0.039 98.416,0.119 C99.337,0.198 99.93,0.329 100.194,0.514 C100.458,0.699 100.51,1.027 100.352,1.501 L82.652,55.076 C82.441,55.656 82.125,56.063 81.704,56.301 C81.282,56.538 80.598,56.695 79.65,56.774 C78.702,56.853 77.173,56.894 75.067,56.894 L74.592,56.894 C72.116,56.894 70.365,56.853 69.337,56.774 C68.31,56.695 67.625,56.552 67.284,56.34 Z" />
        </g>
      </g>
      <path
         style="fill:#004c97;fill-opacity:1"
         fill-rule="nonzero"
         fill="#FFFFFF"
         id="Fill-5"
         d="M88.383,83.991 C88.14,83.979 87.99,83.953 87.932,83.914 C87.875,83.876 87.845,83.8 87.845,83.684 L87.845,72.802 L84.583,72.802 C84.467,72.802 84.388,72.779 84.343,72.734 C84.298,72.689 84.262,72.581 84.237,72.408 C84.212,72.235 84.199,71.957 84.199,71.573 L84.199,71.381 C84.199,70.997 84.209,70.726 84.228,70.565 C84.247,70.405 84.282,70.304 84.333,70.258 C84.384,70.214 84.467,70.191 84.583,70.191 L94.41,70.191 C94.526,70.191 94.608,70.214 94.66,70.258 C94.711,70.304 94.746,70.405 94.765,70.565 C94.784,70.726 94.795,70.997 94.795,71.381 L94.795,71.554 C94.795,71.951 94.781,72.235 94.755,72.408 C94.73,72.581 94.695,72.689 94.65,72.734 C94.605,72.779 94.526,72.802 94.41,72.802 L91.147,72.802 L91.147,83.684 C91.147,83.787 91.115,83.86 91.051,83.904 C90.987,83.95 90.831,83.979 90.58,83.991 C90.331,84.004 90.014,84.011 89.631,84.011 L89.362,84.011 C88.952,84.011 88.627,84.004 88.383,83.991" />
      <path
         style="fill:#004c97;fill-opacity:1"
         fill-rule="nonzero"
         fill="#FFFFFF"
         id="Fill-6"
         d="M97.347,83.991 C97.104,83.979 96.953,83.953 96.896,83.914 C96.839,83.876 96.809,83.8 96.809,83.684 L96.809,70.518 C96.809,70.402 96.839,70.326 96.896,70.286 C96.953,70.248 97.104,70.223 97.347,70.21 C97.589,70.197 97.916,70.191 98.325,70.191 L98.575,70.191 C98.972,70.191 99.295,70.197 99.544,70.21 C99.794,70.223 99.95,70.252 100.015,70.296 C100.079,70.342 100.111,70.415 100.111,70.518 L100.111,83.684 C100.111,83.787 100.079,83.86 100.015,83.904 C99.95,83.95 99.794,83.979 99.544,83.991 C99.295,84.004 98.972,84.011 98.575,84.011 L98.325,84.011 C97.916,84.011 97.589,84.004 97.347,83.991" />
      <path
         style="fill:#004c97;fill-opacity:1"
         fill-rule="nonzero"
         fill="#FFFFFF"
         id="Fill-7"
         d="M103.613,83.991 C103.376,83.979 103.229,83.95 103.172,83.904 C103.114,83.86 103.086,83.78 103.086,83.665 L103.086,70.537 C103.086,70.396 103.172,70.304 103.345,70.258 C103.518,70.214 103.885,70.191 104.447,70.191 L105.6,70.191 C106.214,70.191 106.619,70.214 106.819,70.258 C107.017,70.304 107.148,70.402 107.212,70.556 L108.48,73.3 C109.08,74.593 109.714,76.07 110.379,77.734 C111.248,75.738 111.915,74.26 112.375,73.3 L113.681,70.556 C113.757,70.415 113.898,70.319 114.103,70.267 C114.308,70.217 114.704,70.191 115.293,70.191 L116.118,70.191 C116.681,70.191 117.051,70.214 117.231,70.258 C117.41,70.304 117.5,70.396 117.5,70.537 L117.5,83.665 C117.5,83.78 117.464,83.86 117.394,83.904 C117.324,83.95 117.164,83.979 116.914,83.991 C116.664,84.004 116.349,84.011 115.964,84.011 L115.791,84.011 C115.395,84.011 115.075,84.004 114.831,83.991 C114.589,83.979 114.438,83.95 114.381,83.904 C114.323,83.86 114.295,83.78 114.295,83.665 L114.333,79.308 C114.333,77.376 114.339,76.198 114.352,75.776 C113.981,76.801 113.399,78.163 112.606,79.864 L111.896,81.381 C111.844,81.471 111.786,81.535 111.723,81.573 C111.658,81.611 111.537,81.64 111.358,81.659 C111.179,81.678 110.891,81.688 110.494,81.688 L110.13,81.688 C109.72,81.688 109.422,81.678 109.237,81.659 C109.051,81.64 108.923,81.611 108.853,81.573 C108.782,81.535 108.729,81.471 108.691,81.381 L107.98,79.864 C107.558,78.943 107.221,78.183 106.972,77.581 C106.723,76.979 106.483,76.359 106.252,75.72 C106.279,76.538 106.291,77.632 106.291,79.001 L106.291,83.665 C106.291,83.78 106.255,83.86 106.185,83.904 C106.115,83.95 105.955,83.979 105.705,83.991 C105.456,84.004 105.133,84.011 104.737,84.011 L104.564,84.011 C104.166,84.011 103.85,84.004 103.613,83.991" />
      <path
         style="fill:#004c97;fill-opacity:1"
         fill-rule="nonzero"
         fill="#FFFFFF"
         id="Fill-8"
         d="M124.245,83.981 C123.996,83.963 123.829,83.928 123.746,83.876 C123.662,83.825 123.603,83.736 123.565,83.607 L119.015,70.537 C118.964,70.409 119.022,70.319 119.188,70.267 C119.355,70.217 119.738,70.191 120.34,70.191 L120.743,70.191 C121.267,70.191 121.638,70.197 121.856,70.21 C122.072,70.223 122.221,70.255 122.298,70.307 C122.374,70.357 122.432,70.44 122.47,70.556 L124.332,76.697 C124.818,78.297 125.208,79.757 125.503,81.073 C125.63,80.434 125.807,79.698 126.03,78.866 C126.254,78.035 126.462,77.305 126.654,76.678 L128.593,70.556 C128.631,70.44 128.689,70.357 128.766,70.307 C128.842,70.255 128.98,70.223 129.178,70.21 C129.376,70.197 129.706,70.191 130.167,70.191 L130.205,70.191 C130.717,70.191 131.084,70.2 131.309,70.22 C131.532,70.239 131.676,70.271 131.741,70.316 C131.805,70.361 131.818,70.44 131.779,70.556 L127.48,83.569 C127.428,83.71 127.352,83.809 127.249,83.866 C127.147,83.925 126.981,83.963 126.75,83.981 C126.521,84.001 126.149,84.011 125.637,84.011 L125.523,84.011 C124.921,84.011 124.495,84.001 124.245,83.981" />
      <g
         style="fill:#004c97;fill-opacity:1"
         transform="translate(133.776000, 69.999000)"
         id="Group-14">
        <g
           style="fill:#004c97;fill-opacity:1"
           id="Fill-9-Clipped">
          <mask
             fill="white"
             id="mask-6">
            <use
               id="use1460"
               xlink:href="#path-5" />
          </mask>
          <g
             style="fill:#004c97;fill-opacity:1"
             id="g1463" />
          <path
             style="fill:#004c97;fill-opacity:1"
             mask="url(#mask-6)"
             fill-rule="nonzero"
             fill="#FFFFFF"
             id="Fill-9"
             d="M0.538,13.992 C0.294,13.98 0.144,13.954 0.086,13.915 C0.029,13.877 0,13.801 0,13.685 L0,0.519 C0,0.403 0.029,0.327 0.086,0.287 C0.144,0.249 0.294,0.224 0.538,0.211 C0.78,0.198 1.106,0.192 1.515,0.192 L1.766,0.192 C2.163,0.192 2.485,0.198 2.735,0.211 C2.985,0.224 3.141,0.253 3.206,0.297 C3.269,0.343 3.3,0.416 3.3,0.519 L3.3,13.685 C3.3,13.788 3.269,13.861 3.206,13.905 C3.141,13.951 2.985,13.98 2.735,13.992 C2.485,14.005 2.163,14.012 1.766,14.012 L1.515,14.012 C1.106,14.012 0.78,14.005 0.538,13.992" />
        </g>
        <g
           style="fill:#004c97;fill-opacity:1"
           id="Fill-11-Clipped">
          <mask
             fill="white"
             id="mask-8">
            <use
               id="use1467"
               xlink:href="#path-7" />
          </mask>
          <g
             style="fill:#004c97;fill-opacity:1"
             id="g1470" />
          <path
             style="fill:#004c97;fill-opacity:1"
             mask="url(#mask-8)"
             fill-rule="nonzero"
             fill="#FFFFFF"
             id="Fill-11"
             d="M7.984,13.839 C7.14,13.596 6.422,13.27 5.835,12.859 C5.731,12.783 5.68,12.687 5.68,12.572 C5.68,12.418 5.79,12.131 6.007,11.708 L6.256,11.247 C6.422,10.954 6.561,10.742 6.67,10.614 C6.778,10.486 6.877,10.422 6.967,10.422 C7.044,10.422 7.107,10.441 7.159,10.48 C8.413,11.209 9.506,11.574 10.441,11.574 C11.003,11.574 11.461,11.452 11.813,11.209 C12.166,10.967 12.34,10.621 12.34,10.173 C12.34,9.776 12.178,9.443 11.851,9.175 C11.525,8.905 10.914,8.567 10.019,8.157 C9.11,7.748 8.393,7.364 7.869,7.006 C7.344,6.647 6.948,6.238 6.678,5.777 C6.411,5.317 6.276,4.748 6.276,4.068 C6.276,3.275 6.48,2.572 6.89,1.958 C7.299,1.344 7.878,0.863 8.628,0.519 C9.376,0.173 10.236,0 11.209,0 C11.951,0 12.664,0.093 13.349,0.278 C14.033,0.464 14.626,0.73 15.124,1.074 C15.226,1.152 15.278,1.241 15.278,1.344 C15.278,1.497 15.163,1.805 14.931,2.265 L14.72,2.668 C14.581,2.938 14.464,3.123 14.376,3.225 C14.286,3.327 14.197,3.378 14.106,3.378 C14.068,3.378 13.999,3.352 13.895,3.301 C13.039,2.815 12.207,2.572 11.401,2.572 C10.85,2.572 10.409,2.681 10.076,2.897 C9.744,3.116 9.578,3.43 9.578,3.839 C9.578,4.095 9.644,4.313 9.779,4.491 C9.913,4.671 10.136,4.85 10.451,5.028 C10.764,5.208 11.241,5.444 11.88,5.739 C13.16,6.315 14.106,6.917 14.72,7.544 C15.335,8.171 15.642,8.996 15.642,10.02 C15.642,10.851 15.447,11.581 15.057,12.207 C14.667,12.834 14.097,13.324 13.349,13.675 C12.6,14.027 11.695,14.203 10.632,14.203 C9.712,14.203 8.829,14.081 7.984,13.839" />
        </g>
        <g
           style="fill:#004c97;fill-opacity:1"
           id="Fill-12-Clipped">
          <mask
             fill="white"
             id="mask-10">
            <use
               id="use1474"
               xlink:href="#path-9" />
          </mask>
          <g
             style="fill:#004c97;fill-opacity:1"
             id="g1477" />
          <path
             style="fill:#004c97;fill-opacity:1"
             mask="url(#mask-10)"
             fill-rule="nonzero"
             fill="#FFFFFF"
             id="Fill-12"
             d="M18.656,13.992 C18.413,13.98 18.262,13.954 18.205,13.915 C18.147,13.877 18.118,13.801 18.118,13.685 L18.118,0.519 C18.118,0.403 18.147,0.327 18.205,0.287 C18.262,0.249 18.413,0.224 18.656,0.211 C18.898,0.198 19.225,0.192 19.634,0.192 L19.884,0.192 C20.281,0.192 20.604,0.198 20.853,0.211 C21.103,0.224 21.259,0.253 21.324,0.297 C21.388,0.343 21.42,0.416 21.42,0.519 L21.42,13.685 C21.42,13.788 21.388,13.861 21.324,13.905 C21.259,13.951 21.103,13.98 20.853,13.992 C20.604,14.005 20.281,14.012 19.884,14.012 L19.634,14.012 C19.225,14.012 18.898,14.005 18.656,13.992" />
        </g>
        <g
           style="fill:#004c97;fill-opacity:1"
           id="Fill-13-Clipped">
          <mask
             fill="white"
             id="mask-12">
            <use
               id="use1481"
               xlink:href="#path-11" />
          </mask>
          <g
             style="fill:#004c97;fill-opacity:1"
             id="g1484" />
          <path
             style="fill:#004c97;fill-opacity:1"
             mask="url(#mask-12)"
             fill-rule="nonzero"
             fill="#FFFFFF"
             id="Fill-13"
             d="M32.513,10.336 C33.076,9.588 33.357,8.471 33.357,6.986 C33.357,5.528 33.118,4.456 32.638,3.772 C32.158,3.087 31.4,2.745 30.363,2.745 C29.251,2.745 28.422,3.116 27.878,3.857 C27.334,4.601 27.062,5.721 27.062,7.217 C27.062,8.689 27.295,9.764 27.762,10.441 C28.23,11.12 28.982,11.458 30.018,11.458 C31.119,11.458 31.95,11.084 32.513,10.336 Z M25.277,12.457 C24.215,11.292 23.684,9.571 23.684,7.293 C23.684,5.003 24.253,3.215 25.393,1.93 C26.531,0.643 28.214,0 30.441,0 C32.501,0 34.065,0.586 35.133,1.757 C36.202,2.928 36.736,4.645 36.736,6.909 C36.736,9.188 36.166,10.973 35.028,12.265 C33.888,13.558 32.207,14.203 29.98,14.203 C27.907,14.203 26.338,13.621 25.277,12.457 L25.277,12.457 Z" />
        </g>
      </g>
      <path
         style="fill:#004c97;fill-opacity:1"
         fill-rule="nonzero"
         fill="#FFFFFF"
         id="Fill-15"
         d="M173.266,83.991 C173.017,83.979 172.863,83.953 172.806,83.914 C172.747,83.876 172.719,83.8 172.719,83.684 L172.719,70.518 C172.719,70.402 172.738,70.326 172.777,70.286 C172.815,70.248 172.936,70.223 173.141,70.21 C173.345,70.197 173.621,70.191 173.967,70.191 L174.081,70.191 C174.414,70.191 174.689,70.197 174.906,70.21 C175.124,70.223 175.272,70.252 175.348,70.296 C175.425,70.342 175.508,70.421 175.598,70.537 L178.899,74.913 C180.243,76.743 181.138,78.138 181.587,79.097 C181.548,78.572 181.516,77.802 181.49,76.784 C181.465,75.767 181.452,74.899 181.452,74.184 L181.452,70.518 C181.452,70.415 181.481,70.342 181.538,70.296 C181.596,70.252 181.742,70.223 181.981,70.21 C182.217,70.197 182.527,70.191 182.91,70.191 L183.065,70.191 C183.436,70.191 183.738,70.197 183.976,70.21 C184.213,70.223 184.365,70.252 184.437,70.296 C184.507,70.342 184.542,70.415 184.542,70.518 L184.542,83.684 C184.542,83.8 184.523,83.876 184.485,83.914 C184.446,83.953 184.343,83.979 184.177,83.991 C184.011,84.004 183.71,84.011 183.276,84.011 L183.159,84.011 C182.763,84.011 182.476,84.004 182.296,83.991 C182.117,83.979 181.989,83.95 181.912,83.904 C181.836,83.86 181.759,83.78 181.682,83.665 L178.362,79.288 C176.981,77.434 176.09,76.122 175.694,75.354 C175.732,75.931 175.764,76.672 175.79,77.581 C175.816,78.489 175.828,79.244 175.828,79.846 L175.828,83.684 C175.828,83.787 175.8,83.86 175.741,83.904 C175.684,83.95 175.536,83.979 175.3,83.991 C175.064,84.004 174.759,84.011 174.389,84.011 L174.254,84.011 C173.845,84.011 173.515,84.004 173.266,83.991" />
      <path
         style="fill:#e4002b;fill-opacity:1"
         fill-rule="nonzero"
         fill="#D62330"
         id="Fill-18"
         d="M27.294,44.81 L3.279,44.81 C2.372,44.81 1.551,45.178 0.957,45.772 C0.366,46.366 0,47.185 0,48.088 L0,53.724 C0,54.624 0.363,55.44 0.952,56.033 C1.546,56.632 2.369,57.002 3.279,57.002 L27.294,57.002 L27.294,44.81 Z M67.287,45.781 C66.693,45.181 65.868,44.809 64.956,44.809 L40.941,44.809 L40.941,57.002 L64.956,57.002 C65.867,57.002 66.692,56.63 67.286,56.03 C67.873,55.438 68.235,54.623 68.235,53.723 L68.235,48.088 C68.235,47.188 67.873,46.374 67.287,45.781 Z M67.287,23.377 C66.693,22.777 65.868,22.405 64.956,22.405 L40.941,22.405 L40.941,34.598 L64.956,34.598 C65.867,34.598 66.692,34.226 67.286,33.626 C67.873,33.034 68.235,32.219 68.235,31.319 L68.235,25.684 C68.235,24.784 67.873,23.97 67.287,23.377 Z M27.294,22.405 L3.279,22.405 C2.372,22.405 1.55,22.773 0.957,23.369 C0.366,23.961 0,24.78 0,25.684 L0,31.319 C0,32.22 0.363,33.036 0.952,33.629 C1.546,34.227 2.369,34.598 3.279,34.598 L27.294,34.598 L27.294,22.405 Z M64.956,12.193 L3.279,12.193 C2.369,12.193 1.546,11.823 0.952,11.225 C0.363,10.632 0,9.816 0,8.915 L0,3.279 C0,2.375 0.365,1.557 0.957,0.964 C1.55,0.369 2.372,0 3.279,0 L64.956,0 C65.868,0 66.693,0.373 67.287,0.973 C67.873,1.565 68.235,2.38 68.235,3.279 L68.235,8.915 C68.235,9.814 67.872,10.629 67.286,11.222 C66.692,11.822 65.867,12.193 64.956,12.193 L64.956,12.193 Z" />
      <line
         style="fill:none;fill-opacity:1;stroke:#004c97;stroke-opacity:1"
         stroke="#FFFFFF"
         id="Stroke-16"
         y2="63.579"
         x2="184.596"
         y1="63.579"
         x1="84.199" />
    </g>
  </g>
</svg>
